G04 Layer_Color=65535*
%FSTAX24Y24*%
%MOIN*%
G70*
G01*
G75*
%ADD13C,0.0120*%
%ADD14C,0.0100*%
%ADD53C,0.0070*%
%ADD54C,0.0050*%
%ADD55C,0.0098*%
%ADD56C,0.0079*%
%ADD57C,0.0150*%
%ADD58C,0.0060*%
%ADD59C,0.0080*%
%ADD60C,0.0039*%
%ADD61R,0.0200X0.1000*%
G36*
X0139Y019561D02*
X0134D01*
X01365Y019811D01*
X0139Y019561D01*
D02*
G37*
G36*
X03928Y018931D02*
Y018921D01*
X03891D01*
Y017861D01*
X03832D01*
Y018921D01*
X03795D01*
X03861Y019581D01*
X03863D01*
X03928Y018931D01*
D02*
G37*
G36*
X01414Y036946D02*
X01335D01*
Y037176D01*
X01414D01*
Y036946D01*
D02*
G37*
G36*
X04325Y048411D02*
X0429Y048761D01*
X0436D01*
X04325Y048411D01*
D02*
G37*
G36*
X02579Y038701D02*
X02604Y038631D01*
X02619Y038541D01*
X02629Y038461D01*
X02638Y038341D01*
X02645Y038261D01*
X02598D01*
Y038331D01*
X02595Y038431D01*
X02591Y038491D01*
X02584Y038551D01*
X02577Y038601D01*
X0257Y038631D01*
X0256Y038641D01*
X0255Y038631D01*
X02541Y038601D01*
X02533Y038551D01*
X02528Y038481D01*
X02524Y038381D01*
X02522Y038261D01*
X02476D01*
X02481Y038361D01*
X025Y038531D01*
X0252Y038651D01*
X02551Y038721D01*
X02579Y038701D01*
D02*
G37*
D13*
X022236Y011575D02*
G03*
X021562Y011577I-000336J000435D01*
G01*
X0326Y016731D02*
G03*
X0326Y016731I-00006J0D01*
G01*
X0376Y016711D02*
G03*
X0376Y016711I-00006J0D01*
G01*
X04264D02*
G03*
X04264Y016711I-00006J0D01*
G01*
X0476D02*
G03*
X0476Y016711I-00006J0D01*
G01*
X0202Y012011D02*
X0206D01*
X0202Y011011D02*
Y012011D01*
X0196Y011011D02*
X0202D01*
X0196D02*
Y012011D01*
X01915D02*
X0196D01*
X01915Y011011D02*
Y012011D01*
X0189Y011011D02*
X01915D01*
X0189D02*
Y015261D01*
X01915D01*
X0232Y012011D02*
X0236D01*
Y011011D02*
Y012011D01*
Y011011D02*
X0242D01*
Y012011D01*
X02465D01*
Y011011D02*
Y012011D01*
Y011011D02*
X0249D01*
Y015261D01*
X02465D02*
X0249D01*
X02465Y012911D02*
Y015261D01*
X01915Y012911D02*
X02465D01*
X01915D02*
Y015261D01*
X02385Y013061D02*
Y014711D01*
X01995D02*
X02385D01*
X01995Y013061D02*
Y014711D01*
Y013061D02*
X02385D01*
X0232Y011011D02*
Y012011D01*
X0224Y011011D02*
X0232D01*
X0206D02*
Y012011D01*
Y011011D02*
X0214D01*
X02224Y011571D02*
X0224Y011411D01*
Y011011D02*
Y011411D01*
X0214Y011011D02*
Y011411D01*
X021564Y011575D01*
D14*
X046128Y019361D02*
G03*
X043772Y019361I-001178J000287D01*
G01*
X041178D02*
G03*
X038822Y019361I-001178J000287D01*
G01*
X036478D02*
G03*
X034122Y019361I-001178J000287D01*
G01*
X031528Y019311D02*
G03*
X029172Y019311I-001178J000287D01*
G01*
X04255Y02165D02*
Y02465D01*
Y02165D02*
X04355D01*
Y02465D01*
X04255D02*
Y02515D01*
Y02465D02*
X04355D01*
Y02515D01*
X04377Y019361D02*
X04612D01*
X03882D02*
X04117D01*
X03412D02*
X03647D01*
X02917Y019311D02*
X03152D01*
X043785Y020705D02*
Y020805D01*
X043585Y021005D01*
X043385Y020805D01*
Y020705D01*
X043585Y021005D02*
Y021305D01*
X043185D02*
X042985D01*
X043085D01*
Y020705D01*
X043185Y020805D01*
X023765Y037196D02*
X023665Y037096D01*
Y036896D01*
X023765Y036796D01*
X024165D01*
X024265Y036896D01*
Y037096D01*
X024165Y037196D01*
X024265Y037396D02*
Y037595D01*
Y037495D01*
X023665D01*
X023765Y037396D01*
X024265Y038295D02*
Y037895D01*
X023865Y038295D01*
X023765D01*
X023665Y038195D01*
Y037995D01*
X023765Y037895D01*
X016945Y033846D02*
X017045Y033946D01*
Y034146D01*
X016945Y034246D01*
X016545D01*
X016445Y034146D01*
Y033946D01*
X016545Y033846D01*
X016445Y033646D02*
Y033446D01*
Y033546D01*
X017045D01*
X016945Y033646D01*
X016445Y033146D02*
Y032946D01*
Y033046D01*
X017045D01*
X016945Y033146D01*
X015895Y039996D02*
X015995Y040096D01*
Y040296D01*
X015895Y040396D01*
X015495D01*
X015395Y040296D01*
Y040096D01*
X015495Y039996D01*
X015395Y039796D02*
Y039596D01*
Y039696D01*
X015995D01*
X015895Y039796D01*
Y039296D02*
X015995Y039196D01*
Y038996D01*
X015895Y038896D01*
X015495D01*
X015395Y038996D01*
Y039196D01*
X015495Y039296D01*
X015895D01*
X023585Y026746D02*
X024185D01*
Y026446D01*
X024085Y026346D01*
X023885D01*
X023785Y026446D01*
Y026746D01*
Y026546D02*
X023585Y026346D01*
Y026146D02*
Y025946D01*
Y026046D01*
X024185D01*
X024085Y026146D01*
X024185Y025646D02*
Y025246D01*
X024085D01*
X023685Y025646D01*
X023585D01*
X025022Y026746D02*
X025622D01*
Y026446D01*
X025522Y026346D01*
X025322D01*
X025222Y026446D01*
Y026746D01*
Y026546D02*
X025022Y026346D01*
Y026146D02*
Y025946D01*
Y026046D01*
X025622D01*
X025522Y026146D01*
X025622Y025246D02*
X025522Y025446D01*
X025322Y025646D01*
X025122D01*
X025022Y025546D01*
Y025346D01*
X025122Y025246D01*
X025222D01*
X025322Y025346D01*
Y025646D01*
X026272Y026746D02*
X026872D01*
Y026446D01*
X026772Y026346D01*
X026572D01*
X026472Y026446D01*
Y026746D01*
Y026546D02*
X026272Y026346D01*
Y026146D02*
Y025946D01*
Y026046D01*
X026872D01*
X026772Y026146D01*
X026872Y025246D02*
Y025646D01*
X026572D01*
X026672Y025446D01*
Y025346D01*
X026572Y025246D01*
X026372D01*
X026272Y025346D01*
Y025546D01*
X026372Y025646D01*
X027585Y026746D02*
X028185D01*
Y026446D01*
X028085Y026346D01*
X027885D01*
X027785Y026446D01*
Y026746D01*
Y026546D02*
X027585Y026346D01*
Y026146D02*
Y025946D01*
Y026046D01*
X028185D01*
X028085Y026146D01*
X027585Y025346D02*
X028185D01*
X027885Y025646D01*
Y025246D01*
X028972Y026696D02*
X029572D01*
Y026396D01*
X029472Y026296D01*
X029272D01*
X029172Y026396D01*
Y026696D01*
Y026496D02*
X028972Y026296D01*
Y026096D02*
Y025896D01*
Y025996D01*
X029572D01*
X029472Y026096D01*
Y025596D02*
X029572Y025496D01*
Y025296D01*
X029472Y025196D01*
X029372D01*
X029272Y025296D01*
Y025396D01*
Y025296D01*
X029172Y025196D01*
X029072D01*
X028972Y025296D01*
Y025496D01*
X029072Y025596D01*
X030422Y026796D02*
X031022D01*
Y026496D01*
X030922Y026396D01*
X030722D01*
X030622Y026496D01*
Y026796D01*
Y026596D02*
X030422Y026396D01*
Y026196D02*
Y025996D01*
Y026096D01*
X031022D01*
X030922Y026196D01*
X030422Y025296D02*
Y025696D01*
X030822Y025296D01*
X030922D01*
X031022Y025396D01*
Y025596D01*
X030922Y025696D01*
X031672Y026796D02*
X032272D01*
Y026496D01*
X032172Y026396D01*
X031972D01*
X031872Y026496D01*
Y026796D01*
Y026596D02*
X031672Y026396D01*
Y026196D02*
Y025996D01*
Y026096D01*
X032272D01*
X032172Y026196D01*
X031672Y025696D02*
Y025496D01*
Y025596D01*
X032272D01*
X032172Y025696D01*
X032985Y026746D02*
X033585D01*
Y026446D01*
X033485Y026346D01*
X033285D01*
X033185Y026446D01*
Y026746D01*
Y026546D02*
X032985Y026346D01*
Y026146D02*
Y025946D01*
Y026046D01*
X033585D01*
X033485Y026146D01*
Y025646D02*
X033585Y025546D01*
Y025346D01*
X033485Y025246D01*
X033085D01*
X032985Y025346D01*
Y025546D01*
X033085Y025646D01*
X033485D01*
X034575Y042726D02*
Y042126D01*
X034275D01*
X034175Y042226D01*
Y042426D01*
X034275Y042526D01*
X034575D01*
X034375D02*
X034175Y042726D01*
X033975D02*
X033775D01*
X033875D01*
Y042126D01*
X033975Y042226D01*
X046002Y044785D02*
X045402D01*
Y044385D01*
X045902Y043786D02*
X046002Y043886D01*
Y044085D01*
X045902Y044185D01*
X045502D01*
X045402Y044085D01*
Y043886D01*
X045502Y043786D01*
X046002Y043586D02*
X045402D01*
Y043286D01*
X045502Y043186D01*
X045902D01*
X046002Y043286D01*
Y043586D01*
X045402Y042986D02*
Y042786D01*
Y042886D01*
X046002D01*
X045902Y042986D01*
X012915Y040096D02*
X013315Y039496D01*
Y040096D02*
X012915Y039496D01*
X013515D02*
X013715D01*
X013615D01*
Y040096D01*
X013515Y039996D01*
X050865Y034176D02*
X050465D01*
X050265Y033976D01*
X050465Y033776D01*
X050865D01*
X050265Y033576D02*
X050865D01*
Y033276D01*
X050765Y033176D01*
X050565D01*
X050465Y033276D01*
Y033576D01*
Y033376D02*
X050265Y033176D01*
Y032976D02*
Y032776D01*
Y032876D01*
X050865D01*
X050765Y032976D01*
X044915Y027745D02*
Y027246D01*
X045015Y027146D01*
X045215D01*
X045315Y027246D01*
Y027745D01*
X045915Y027146D02*
X045515D01*
X045915Y027546D01*
Y027646D01*
X045815Y027745D01*
X045615D01*
X045515Y027646D01*
X026465Y016976D02*
Y017476D01*
X026365Y017576D01*
X026165D01*
X026065Y017476D01*
Y016976D01*
X025865Y017576D02*
X025665D01*
X025765D01*
Y016976D01*
X025865Y017076D01*
X044885Y014326D02*
X044785Y014425D01*
X044585D01*
X044485Y014326D01*
Y014226D01*
X044585Y014126D01*
X044785D01*
X044885Y014026D01*
Y013926D01*
X044785Y013826D01*
X044585D01*
X044485Y013926D01*
X045085Y014425D02*
Y013826D01*
X045285Y014026D01*
X045485Y013826D01*
Y014425D01*
X046084D02*
X045885Y014326D01*
X045685Y014126D01*
Y013926D01*
X045785Y013826D01*
X045985D01*
X046084Y013926D01*
Y014026D01*
X045985Y014126D01*
X045685D01*
X034135Y014476D02*
X034035Y014576D01*
X033835D01*
X033735Y014476D01*
Y014376D01*
X033835Y014276D01*
X034035D01*
X034135Y014176D01*
Y014076D01*
X034035Y013976D01*
X033835D01*
X033735Y014076D01*
X034335Y014576D02*
Y013976D01*
X034535Y014176D01*
X034735Y013976D01*
Y014576D01*
X035334D02*
X034935D01*
Y014276D01*
X035135Y014376D01*
X035235D01*
X035334Y014276D01*
Y014076D01*
X035235Y013976D01*
X035035D01*
X034935Y014076D01*
X039285Y014526D02*
X039185Y014626D01*
X038985D01*
X038885Y014526D01*
Y014426D01*
X038985Y014326D01*
X039185D01*
X039285Y014226D01*
Y014126D01*
X039185Y014026D01*
X038985D01*
X038885Y014126D01*
X039485Y014626D02*
Y014026D01*
X039685Y014226D01*
X039885Y014026D01*
Y014626D01*
X040385Y014026D02*
Y014626D01*
X040085Y014326D01*
X040484D01*
X028935Y014476D02*
X028835Y014576D01*
X028635D01*
X028535Y014476D01*
Y014376D01*
X028635Y014276D01*
X028835D01*
X028935Y014176D01*
Y014076D01*
X028835Y013976D01*
X028635D01*
X028535Y014076D01*
X029135Y014576D02*
Y013976D01*
X029335Y014176D01*
X029535Y013976D01*
Y014576D01*
X029735Y014476D02*
X029835Y014576D01*
X030035D01*
X030134Y014476D01*
Y014376D01*
X030035Y014276D01*
X029935D01*
X030035D01*
X030134Y014176D01*
Y014076D01*
X030035Y013976D01*
X029835D01*
X029735Y014076D01*
X023885Y024976D02*
X023785Y025076D01*
X023585D01*
X023485Y024976D01*
Y024876D01*
X023585Y024776D01*
X023785D01*
X023885Y024676D01*
Y024576D01*
X023785Y024476D01*
X023585D01*
X023485Y024576D01*
X024085Y025076D02*
Y024476D01*
X024285Y024676D01*
X024485Y024476D01*
Y025076D01*
X025084Y024476D02*
X024685D01*
X025084Y024876D01*
Y024976D01*
X024985Y025076D01*
X024785D01*
X024685Y024976D01*
X012235Y020066D02*
X012135Y019966D01*
Y019766D01*
X012235Y019666D01*
X012335D01*
X012435Y019766D01*
Y019966D01*
X012535Y020066D01*
X012635D01*
X012735Y019966D01*
Y019766D01*
X012635Y019666D01*
X012135Y020266D02*
X012735D01*
X012535Y020465D01*
X012735Y020665D01*
X012135D01*
X012735Y020865D02*
Y021065D01*
Y020965D01*
X012135D01*
X012235Y020865D01*
X047775Y016326D02*
Y015726D01*
X047475D01*
X047375Y015826D01*
Y016026D01*
X047475Y016126D01*
X047775D01*
X047575D02*
X047375Y016326D01*
X047175Y016226D02*
X047075Y016326D01*
X046875D01*
X046775Y016226D01*
Y015826D01*
X046875Y015726D01*
X047075D01*
X047175Y015826D01*
Y015926D01*
X047075Y016026D01*
X046775D01*
X042925Y016176D02*
Y015576D01*
X042625D01*
X042525Y015676D01*
Y015876D01*
X042625Y015976D01*
X042925D01*
X042725D02*
X042525Y016176D01*
X042325Y015676D02*
X042225Y015576D01*
X042025D01*
X041925Y015676D01*
Y015776D01*
X042025Y015876D01*
X041925Y015976D01*
Y016076D01*
X042025Y016176D01*
X042225D01*
X042325Y016076D01*
Y015976D01*
X042225Y015876D01*
X042325Y015776D01*
Y015676D01*
X042225Y015876D02*
X042025D01*
X037325Y021046D02*
Y021646D01*
X037625D01*
X037725Y021546D01*
Y021346D01*
X037625Y021246D01*
X037325D01*
X037525D02*
X037725Y021046D01*
X037925Y021646D02*
X038325D01*
Y021546D01*
X037925Y021146D01*
Y021046D01*
X032525Y021146D02*
Y021746D01*
X032825D01*
X032925Y021646D01*
Y021446D01*
X032825Y021346D01*
X032525D01*
X032725D02*
X032925Y021146D01*
X033525Y021746D02*
X033325Y021646D01*
X033125Y021446D01*
Y021246D01*
X033225Y021146D01*
X033425D01*
X033525Y021246D01*
Y021346D01*
X033425Y021446D01*
X033125D01*
X035515Y047876D02*
Y048475D01*
X035815D01*
X035915Y048376D01*
Y048176D01*
X035815Y048076D01*
X035515D01*
X035715D02*
X035915Y047876D01*
X036515Y048475D02*
X036115D01*
Y048176D01*
X036315Y048276D01*
X036415D01*
X036515Y048176D01*
Y047976D01*
X036415Y047876D01*
X036215D01*
X036115Y047976D01*
X023335Y017036D02*
X023935D01*
Y016736D01*
X023835Y016636D01*
X023635D01*
X023535Y016736D01*
Y017036D01*
Y016836D02*
X023335Y016636D01*
X023835Y016436D02*
X023935Y016336D01*
Y016136D01*
X023835Y016036D01*
X023735D01*
X023635Y016136D01*
Y016236D01*
Y016136D01*
X023535Y016036D01*
X023435D01*
X023335Y016136D01*
Y016336D01*
X023435Y016436D01*
X048385Y028236D02*
X048985D01*
Y027936D01*
X048885Y027836D01*
X048685D01*
X048585Y027936D01*
Y028236D01*
Y028036D02*
X048385Y027836D01*
Y027236D02*
Y027636D01*
X048785Y027236D01*
X048885D01*
X048985Y027336D01*
Y027536D01*
X048885Y027636D01*
X048235Y029886D02*
X048835D01*
Y029586D01*
X048735Y029486D01*
X048535D01*
X048435Y029586D01*
Y029886D01*
Y029686D02*
X048235Y029486D01*
Y028986D02*
X048835D01*
X048535Y029286D01*
Y028886D01*
X044185Y021316D02*
Y021716D01*
X044085Y021816D01*
X043885D01*
X043785Y021716D01*
Y021316D01*
X043885Y021216D01*
X044085D01*
X043985Y021416D02*
X044185Y021216D01*
X044085D02*
X044185Y021316D01*
X044685Y021216D02*
Y021816D01*
X044385Y021516D01*
X044785D01*
X039235Y021316D02*
Y021716D01*
X039135Y021816D01*
X038935D01*
X038835Y021716D01*
Y021316D01*
X038935Y021216D01*
X039135D01*
X039035Y021416D02*
X039235Y021216D01*
X039135D02*
X039235Y021316D01*
X039435Y021716D02*
X039535Y021816D01*
X039735D01*
X039835Y021716D01*
Y021616D01*
X039735Y021516D01*
X039635D01*
X039735D01*
X039835Y021416D01*
Y021316D01*
X039735Y021216D01*
X039535D01*
X039435Y021316D01*
X034535D02*
Y021716D01*
X034435Y021816D01*
X034235D01*
X034135Y021716D01*
Y021316D01*
X034235Y021216D01*
X034435D01*
X034335Y021416D02*
X034535Y021216D01*
X034435D02*
X034535Y021316D01*
X035135Y021216D02*
X034735D01*
X035135Y021616D01*
Y021716D01*
X035035Y021816D01*
X034835D01*
X034735Y021716D01*
X029585Y021266D02*
Y021666D01*
X029485Y021765D01*
X029285D01*
X029185Y021666D01*
Y021266D01*
X029285Y021166D01*
X029485D01*
X029385Y021366D02*
X029585Y021166D01*
X029485D02*
X029585Y021266D01*
X029785Y021166D02*
X029985D01*
X029885D01*
Y021765D01*
X029785Y021666D01*
X021835Y047746D02*
X022435D01*
Y047446D01*
X022335Y047346D01*
X022135D01*
X022035Y047446D01*
Y047746D01*
X021835Y046846D02*
X022435D01*
X022135Y047146D01*
Y046746D01*
X012765Y028076D02*
X012165D01*
Y028376D01*
X012265Y028476D01*
X012465D01*
X012565Y028376D01*
Y028076D01*
X012265Y028675D02*
X012165Y028775D01*
Y028975D01*
X012265Y029075D01*
X012365D01*
X012465Y028975D01*
Y028875D01*
Y028975D01*
X012565Y029075D01*
X012665D01*
X012765Y028975D01*
Y028775D01*
X012665Y028675D01*
X022465Y027976D02*
X021865D01*
Y028276D01*
X021965Y028376D01*
X022165D01*
X022265Y028276D01*
Y027976D01*
X022465Y028975D02*
Y028575D01*
X022065Y028975D01*
X021965D01*
X021865Y028875D01*
Y028675D01*
X021965Y028575D01*
X032135Y047696D02*
X032735D01*
Y047396D01*
X032635Y047296D01*
X032435D01*
X032335Y047396D01*
Y047696D01*
X032135Y047096D02*
Y046896D01*
Y046996D01*
X032735D01*
X032635Y047096D01*
X020115Y022445D02*
Y021846D01*
X020515D01*
X021115Y022445D02*
X020715D01*
Y021846D01*
X021115D01*
X020715Y022146D02*
X020915D01*
X021315Y022445D02*
Y021846D01*
X021615D01*
X021714Y021946D01*
Y022346D01*
X021615Y022445D01*
X021315D01*
X021914Y021846D02*
X022114D01*
X022014D01*
Y022445D01*
X021914Y022346D01*
X013955Y017395D02*
X013755D01*
X013855D01*
Y016896D01*
X013755Y016796D01*
X013655D01*
X013555Y016896D01*
X014155Y016796D02*
Y017196D01*
X014355Y017395D01*
X014555Y017196D01*
Y016796D01*
Y017096D01*
X014155D01*
X015154Y017296D02*
X015055Y017395D01*
X014855D01*
X014755Y017296D01*
Y016896D01*
X014855Y016796D01*
X015055D01*
X015154Y016896D01*
X015354Y017395D02*
Y016796D01*
Y016996D01*
X015754Y017395D01*
X015454Y017096D01*
X015754Y016796D01*
X015954D02*
X016154D01*
X016054D01*
Y017395D01*
X015954Y017296D01*
X053336Y0341D02*
X053536D01*
X053436D01*
Y0346D01*
X053536Y0347D01*
X053636D01*
X053736Y0346D01*
X053136Y0347D02*
X052936D01*
X053036D01*
Y0341D01*
X053136Y0342D01*
X039045Y044345D02*
X039245D01*
X039145D01*
Y043746D01*
X039045D01*
X039245D01*
X039945Y044246D02*
X039845Y044345D01*
X039645D01*
X039545Y044246D01*
Y043846D01*
X039645Y043746D01*
X039845D01*
X039945Y043846D01*
X040145Y044246D02*
X040245Y044345D01*
X040445D01*
X040545Y044246D01*
Y044146D01*
X040445Y044046D01*
X040345D01*
X040445D01*
X040545Y043946D01*
Y043846D01*
X040445Y043746D01*
X040245D01*
X040145Y043846D01*
X015725Y034776D02*
Y034976D01*
Y034876D01*
X016325D01*
Y034776D01*
Y034976D01*
X015825Y035675D02*
X015725Y035575D01*
Y035375D01*
X015825Y035276D01*
X016225D01*
X016325Y035375D01*
Y035575D01*
X016225Y035675D01*
X016325Y036275D02*
Y035875D01*
X015925Y036275D01*
X015825D01*
X015725Y036175D01*
Y035975D01*
X015825Y035875D01*
X017935Y010876D02*
Y011076D01*
Y010976D01*
X018535D01*
Y010876D01*
Y011076D01*
X018035Y011775D02*
X017935Y011675D01*
Y011475D01*
X018035Y011376D01*
X018435D01*
X018535Y011475D01*
Y011675D01*
X018435Y011775D01*
X018535Y011975D02*
Y012175D01*
Y012075D01*
X017935D01*
X018035Y011975D01*
X036295Y045006D02*
X036895D01*
X036595D01*
Y045406D01*
X036295D01*
X036895D01*
X036295Y045606D02*
X036895D01*
Y045905D01*
X036795Y046005D01*
X036395D01*
X036295Y045905D01*
Y045606D01*
X036895Y046205D02*
Y046405D01*
Y046305D01*
X036295D01*
X036395Y046205D01*
X01635Y027711D02*
X01625Y02781D01*
X01605D01*
X01595Y027711D01*
Y027311D01*
X01605Y027211D01*
X01625D01*
X01635Y027311D01*
Y027511D01*
X01615D01*
X01655Y027211D02*
Y02781D01*
X01695Y027211D01*
Y02781D01*
X01715D02*
Y027211D01*
X01745D01*
X017549Y027311D01*
Y027711D01*
X01745Y02781D01*
X01715D01*
X017749Y027211D02*
X017949D01*
X017849D01*
Y02781D01*
X017749Y027711D01*
X049655Y022296D02*
X049055D01*
Y021996D01*
X049155Y021896D01*
X049555D01*
X049655Y021996D01*
Y022296D01*
X049555Y021296D02*
X049655Y021396D01*
Y021596D01*
X049555Y021696D01*
X049455D01*
X049355Y021596D01*
Y021396D01*
X049255Y021296D01*
X049155D01*
X049055Y021396D01*
Y021596D01*
X049155Y021696D01*
X049055Y021096D02*
Y020896D01*
Y020996D01*
X049655D01*
X049555Y021096D01*
X012655Y017776D02*
X013255D01*
Y018076D01*
X013155Y018176D01*
X012755D01*
X012655Y018076D01*
Y017776D01*
X013255Y018376D02*
Y018575D01*
Y018475D01*
X012655D01*
X012755Y018376D01*
X038475Y03404D02*
X038375Y03394D01*
Y03374D01*
X038475Y03364D01*
X038875D01*
X038975Y03374D01*
Y03394D01*
X038875Y03404D01*
Y03424D02*
X038975Y03434D01*
Y03454D01*
X038875Y03464D01*
X038475D01*
X038375Y03454D01*
Y03434D01*
X038475Y03424D01*
X038575D01*
X038675Y03434D01*
Y03464D01*
X044175Y043286D02*
X044075Y043386D01*
X043875D01*
X043775Y043286D01*
Y042886D01*
X043875Y042786D01*
X044075D01*
X044175Y042886D01*
X044375Y043286D02*
X044475Y043386D01*
X044675D01*
X044775Y043286D01*
Y043186D01*
X044675Y043086D01*
X044775Y042986D01*
Y042886D01*
X044675Y042786D01*
X044475D01*
X044375Y042886D01*
Y042986D01*
X044475Y043086D01*
X044375Y043186D01*
Y043286D01*
X044475Y043086D02*
X044675D01*
X044175Y040236D02*
X044075Y040335D01*
X043875D01*
X043775Y040236D01*
Y039836D01*
X043875Y039736D01*
X044075D01*
X044175Y039836D01*
X044375Y040335D02*
X044775D01*
Y040236D01*
X044375Y039836D01*
Y039736D01*
X042225Y033986D02*
X042125Y033886D01*
Y033686D01*
X042225Y033586D01*
X042625D01*
X042725Y033686D01*
Y033886D01*
X042625Y033986D01*
X042125Y034585D02*
X042225Y034385D01*
X042425Y034186D01*
X042625D01*
X042725Y034285D01*
Y034485D01*
X042625Y034585D01*
X042525D01*
X042425Y034485D01*
Y034186D01*
X016825Y020286D02*
X016725Y020186D01*
Y019986D01*
X016825Y019886D01*
X017225D01*
X017325Y019986D01*
Y020186D01*
X017225Y020286D01*
X016725Y020885D02*
Y020485D01*
X017025D01*
X016925Y020685D01*
Y020785D01*
X017025Y020885D01*
X017225D01*
X017325Y020785D01*
Y020585D01*
X017225Y020485D01*
X016875Y022706D02*
X016775Y022606D01*
Y022406D01*
X016875Y022306D01*
X017275D01*
X017375Y022406D01*
Y022606D01*
X017275Y022706D01*
X017375Y023205D02*
X016775D01*
X017075Y022905D01*
Y023305D01*
X026835Y013166D02*
X026935Y013066D01*
X027135D01*
X027235Y013166D01*
Y013566D01*
X027135Y013666D01*
X026935D01*
X026835Y013566D01*
X026635Y013166D02*
X026535Y013066D01*
X026335D01*
X026235Y013166D01*
Y013266D01*
X026335Y013366D01*
X026435D01*
X026335D01*
X026235Y013466D01*
Y013566D01*
X026335Y013666D01*
X026535D01*
X026635Y013566D01*
X027015Y014306D02*
X026915Y014405D01*
X026715D01*
X026615Y014306D01*
Y013906D01*
X026715Y013806D01*
X026915D01*
X027015Y013906D01*
X027615Y013806D02*
X027215D01*
X027615Y014206D01*
Y014306D01*
X027515Y014405D01*
X027315D01*
X027215Y014306D01*
X02472Y018236D02*
X02462Y018335D01*
X02442D01*
X02432Y018236D01*
Y017836D01*
X02442Y017736D01*
X02462D01*
X02472Y017836D01*
X02492Y017736D02*
X02512D01*
X02502D01*
Y018335D01*
X02492Y018236D01*
X030835Y023426D02*
X031435D01*
Y023726D01*
X031335Y023826D01*
X031235D01*
X031135Y023726D01*
Y023426D01*
Y023726D01*
X031035Y023826D01*
X030935D01*
X030835Y023726D01*
Y023426D01*
Y024025D02*
Y024425D01*
Y024225D01*
X031435D01*
Y024625D02*
Y024825D01*
Y024725D01*
X030835D01*
X030935Y024625D01*
X01415Y027211D02*
X01375D01*
X01415Y027611D01*
Y027711D01*
X01405Y02781D01*
X01385D01*
X01375Y027711D01*
X01885Y027161D02*
X01905D01*
X01895D01*
Y027761D01*
X01885Y027661D01*
X031287Y04254D02*
X031454D01*
X031371D01*
Y04304D01*
X031287Y042957D01*
X032037Y04304D02*
X031871Y042957D01*
X031704Y04279D01*
Y042624D01*
X031787Y04254D01*
X031954D01*
X032037Y042624D01*
Y042707D01*
X031954Y04279D01*
X031704D01*
X016487Y04254D02*
X016654D01*
X016571D01*
Y04304D01*
X016487Y042957D01*
X044343Y047556D02*
X044143D01*
X044243D01*
Y046956D01*
X044343Y047056D01*
X0442Y046361D02*
X0446D01*
X0442Y045961D01*
Y045861D01*
X0443Y045761D01*
X0445D01*
X0446Y045861D01*
X03864Y047401D02*
X03854Y047501D01*
X03834D01*
X03824Y047401D01*
Y047001D01*
X03834Y046901D01*
X03854D01*
X03864Y047001D01*
Y047101D01*
X03854Y047201D01*
X03824D01*
X03869Y046551D02*
X03849D01*
X03859D01*
Y045951D01*
X03869Y046051D01*
X03819D02*
X03809Y045951D01*
X03789D01*
X03779Y046051D01*
Y046451D01*
X03789Y046551D01*
X03809D01*
X03819Y046451D01*
Y046051D01*
X03507Y015471D02*
X03527D01*
X03517D01*
Y01607D01*
X03507Y015971D01*
X0423Y01605D02*
X0421Y015951D01*
X0419Y015751D01*
Y015551D01*
X042Y015451D01*
X0422D01*
X0423Y015551D01*
Y015651D01*
X0422Y015751D01*
X0419D01*
D53*
X0266Y037727D02*
G03*
X0266Y037727I-001J0D01*
G01*
X0134Y040461D02*
G03*
X0134Y039661I0J-0004D01*
G01*
X01441D02*
G03*
X01441Y040461I0J0004D01*
G01*
X01445Y034311D02*
G03*
X01445Y033511I0J-0004D01*
G01*
X01546D02*
G03*
X01546Y034311I0J0004D01*
G01*
X023252Y026311D02*
G03*
X023252Y026311I-000502J0D01*
G01*
X02469D02*
G03*
X02469Y026311I-000502J0D01*
G01*
X02594D02*
G03*
X02594Y026311I-000502J0D01*
G01*
X027252D02*
G03*
X027252Y026311I-000502J0D01*
G01*
X02864Y026261D02*
G03*
X02864Y026261I-000502J0D01*
G01*
X03009Y026361D02*
G03*
X03009Y026361I-000502J0D01*
G01*
X03134D02*
G03*
X03134Y026361I-000502J0D01*
G01*
X032652Y026311D02*
G03*
X032652Y026311I-000502J0D01*
G01*
X0265Y014601D02*
G03*
X0273Y014601I0004J0D01*
G01*
Y015611D02*
G03*
X0265Y015611I-0004J0D01*
G01*
X02735Y012871D02*
G03*
X02655Y012871I-0004J0D01*
G01*
Y011861D02*
G03*
X02735Y011861I0004J0D01*
G01*
X044846Y024311D02*
G03*
X04485Y025311I000017J0005D01*
G01*
X041471Y02948D02*
G03*
X041474Y02635I-004271J-00157D01*
G01*
X046713Y031367D02*
G03*
X048361Y031992I000547J001044D01*
G01*
X048351Y03283D02*
G03*
X046703Y033454I-001101J-000419D01*
G01*
X022285Y020918D02*
G03*
X022289Y019711I-001035J-000607D01*
G01*
X01823Y023291D02*
G03*
X01824Y022251I0J-00052D01*
G01*
X02126Y022251D02*
G03*
X02126Y023291I0J00052D01*
G01*
X036954Y0387D02*
G03*
X03695Y037701I-000017J-0005D01*
G01*
X0415Y035407D02*
G03*
X0405Y035411I-0005J000017D01*
G01*
X013Y035971D02*
G03*
X0145Y035978I00075J000005D01*
G01*
Y038108D02*
G03*
X013Y038101I-00075J-000005D01*
G01*
X01285Y036011D02*
G03*
X014649Y03601I000899J-00003D01*
G01*
X01465Y03812D02*
G03*
X01285Y038111I-0009J-000006D01*
G01*
X0249Y037261D02*
X0251D01*
X025Y037161D02*
Y037361D01*
X0134Y040461D02*
X0144D01*
X0134Y039661D02*
X0144D01*
X01445Y034311D02*
X01545D01*
X01445Y033511D02*
X01545D01*
X02275Y025661D02*
Y025911D01*
X024187Y025661D02*
Y025911D01*
X025437Y025661D02*
Y025911D01*
X02675Y025661D02*
Y025911D01*
X028137Y025611D02*
Y025861D01*
X029587Y025711D02*
Y025961D01*
X030837Y025711D02*
Y025961D01*
X03215Y025661D02*
Y025911D01*
X0342Y046081D02*
Y046431D01*
X03458Y044231D02*
Y046081D01*
X0342Y043891D02*
Y044231D01*
X03382D02*
Y046081D01*
Y044231D02*
X03458D01*
X03382Y046081D02*
X03458D01*
X0265Y014611D02*
Y015611D01*
X0273Y014611D02*
Y015611D01*
X02735Y011861D02*
Y012861D01*
X02655Y011861D02*
Y012861D01*
X04586Y025311D02*
X04787D01*
X04586Y024311D02*
Y025311D01*
Y024311D02*
X04787D01*
Y025311D01*
X04485Y026811D02*
X04885D01*
Y022811D02*
Y026811D01*
X04485Y022811D02*
X04885D01*
X04485Y025321D02*
Y026811D01*
Y022811D02*
Y024311D01*
X01413Y022141D02*
X01519D01*
X01413Y021341D02*
Y022141D01*
Y021341D02*
X01519D01*
X01307Y020111D02*
X01625D01*
Y023311D01*
X01307D02*
X01625D01*
X01307Y020111D02*
Y023311D01*
X01519Y021341D02*
Y022141D01*
X01675Y017711D02*
Y018211D01*
X01475Y017711D02*
X01675D01*
X01475D02*
Y018711D01*
X01675D01*
Y018211D02*
Y018711D01*
X01445Y018211D02*
X01475D01*
X01675D02*
X01705D01*
X01634Y017741D02*
Y018711D01*
X01675Y018001D02*
Y018211D01*
Y018371D01*
X01365Y010461D02*
X01695D01*
X01365Y015911D02*
X01695D01*
X01365Y010461D02*
Y015911D01*
X01695Y010461D02*
Y015911D01*
X01365Y011161D02*
X01695D01*
X04188Y028541D02*
Y029151D01*
X04241D01*
Y026701D02*
Y029151D01*
X04189Y026701D02*
X04241D01*
X04189D02*
Y027321D01*
X041487Y026361D02*
X04275D01*
Y029461D01*
X041471D02*
X04275D01*
X04581Y033191D02*
Y033701D01*
Y031101D02*
Y031611D01*
X04871Y031996D02*
Y032871D01*
X04862Y033411D02*
X04871Y032871D01*
X04831Y033721D02*
X04862Y033411D01*
X04656Y033721D02*
X04831D01*
X04595Y031731D02*
Y033101D01*
X04657Y031111D02*
X04832D01*
X04862Y031411D01*
X04871Y031996D01*
X04654Y031741D02*
Y033091D01*
X04711Y033331D02*
X04738D01*
X04711Y032561D02*
Y033331D01*
X04681Y032561D02*
X04711D01*
X04681Y032291D02*
Y032561D01*
Y032291D02*
X0471D01*
Y031491D02*
Y032291D01*
Y031491D02*
X04739D01*
Y032281D01*
X04764D01*
Y032551D01*
X04738D02*
X04764D01*
X04738D02*
Y033321D01*
X02229Y019721D02*
Y020911D01*
X02066Y020871D02*
Y021151D01*
X02051Y021001D02*
X02081D01*
X0187Y022761D02*
X01951D01*
X01989D02*
X02073D01*
X01951Y022491D02*
Y023041D01*
X01989Y022501D02*
Y023051D01*
X01825Y023291D02*
X02124D01*
X01825Y022251D02*
X02125D01*
X04468Y027861D02*
X04503D01*
Y028241D02*
X04688D01*
Y027861D02*
X04722D01*
X04503Y027481D02*
X04688D01*
Y028241D01*
X04503Y027481D02*
Y028241D01*
X04453Y029511D02*
X04488D01*
Y029891D02*
X04673D01*
Y029511D02*
X04707D01*
X04488Y029131D02*
X04673D01*
Y029891D01*
X04488Y029131D02*
Y029891D01*
X01963Y016661D02*
X01998D01*
Y017041D02*
X02183D01*
Y016661D02*
X02217D01*
X01998Y016281D02*
X02183D01*
Y017041D01*
X01998Y016281D02*
Y017041D01*
X02619Y021611D02*
X0262Y021621D01*
X03545Y043941D02*
Y046291D01*
X03655D01*
X03545Y043941D02*
X03655D01*
Y046291D01*
X03601D02*
Y046671D01*
Y043531D02*
Y043941D01*
X03724Y047301D02*
X03734D01*
X03724Y046307D02*
X03734D01*
X045169Y046286D02*
Y047261D01*
X045258Y045253D02*
Y048235D01*
X03723D02*
X045258D01*
X03734Y046307D02*
Y047301D01*
X045169Y046286D02*
X045258D01*
X045169Y047261D02*
X045248D01*
X045258Y047271D01*
X03724Y048201D02*
X037264Y048225D01*
X040248Y047961D02*
Y048231D01*
Y047961D02*
X042256D01*
Y048221D01*
X03723Y045253D02*
X045258D01*
X03724Y045251D02*
Y048201D01*
X03723Y045253D02*
X045258D01*
X03724Y045251D02*
Y048201D01*
X0474Y019681D02*
Y020031D01*
X04778Y017831D02*
Y019681D01*
X0474Y017491D02*
Y017831D01*
X04702D02*
Y019681D01*
Y017831D02*
X04778D01*
X04702Y019681D02*
X04778D01*
X04255Y019531D02*
Y019881D01*
X04293Y017681D02*
Y019531D01*
X04255Y017341D02*
Y017681D01*
X04217D02*
Y019531D01*
Y017681D02*
X04293D01*
X04217Y019531D02*
X04293D01*
X0377Y017341D02*
Y017691D01*
X03732D02*
Y019541D01*
X0377D02*
Y019881D01*
X03808Y017691D02*
Y019541D01*
X03732D02*
X03808D01*
X03732Y017691D02*
X03808D01*
X0329Y017441D02*
Y017791D01*
X03252D02*
Y019641D01*
X0329D02*
Y019981D01*
X03328Y017791D02*
Y019641D01*
X03252D02*
X03328D01*
X03252Y017791D02*
X03328D01*
X03595Y036211D02*
Y040211D01*
X01795Y036211D02*
X03595D01*
X01795D02*
Y040211D01*
X03595D01*
X03695Y038701D02*
Y041711D01*
Y034711D02*
Y037691D01*
X01695Y041711D02*
X03695D01*
X01695Y034711D02*
Y041711D01*
Y034711D02*
X03695D01*
X03621Y039511D02*
X03669D01*
X0362Y039501D02*
X03621Y039511D01*
X0362Y039501D02*
Y039521D01*
X03644Y039761D01*
Y039751D02*
Y039761D01*
Y039751D02*
X03668Y039511D01*
X03669D01*
X0405Y036411D02*
Y042411D01*
X0415D01*
Y036411D02*
Y042411D01*
X0405Y036411D02*
X0415D01*
Y035411D02*
X043D01*
X039D02*
X04049D01*
X043D02*
Y043411D01*
X039D02*
X043D01*
X039Y035421D02*
Y043411D01*
Y035421D02*
X03901Y035411D01*
X02865Y015211D02*
X04865D01*
X02865D02*
X04865D01*
X02865Y022211D02*
X04865D01*
Y015211D02*
Y022211D01*
X02865Y015211D02*
Y022211D01*
X04865D01*
X03124Y011111D02*
X03125Y011121D01*
X0145Y035991D02*
Y038091D01*
X013Y036001D02*
Y038101D01*
X01465Y03601D02*
Y03812D01*
X01285Y036011D02*
Y038111D01*
X01337Y037261D02*
X01412D01*
X01376D02*
Y037561D01*
X01337Y036851D02*
X01411D01*
X01376Y036541D02*
Y036851D01*
X04159Y011161D02*
X0416Y011171D01*
X03644Y011111D02*
X03645Y011121D01*
X04719Y010961D02*
X0472Y010971D01*
D54*
X031137Y04359D02*
G03*
X031837Y04359I00035J0D01*
G01*
X030137D02*
G03*
X030837Y04359I00035J0D01*
G01*
X029137D02*
G03*
X029837Y04359I00035J0D01*
G01*
X028137D02*
G03*
X028837Y04359I00035J0D01*
G01*
X027137D02*
G03*
X027837Y04359I00035J0D01*
G01*
X026137D02*
G03*
X026837Y04359I00035J0D01*
G01*
X025137D02*
G03*
X025837Y04359I00035J0D01*
G01*
X024137D02*
G03*
X024837Y04359I00035J0D01*
G01*
X023137D02*
G03*
X023837Y04359I00035J0D01*
G01*
X022137D02*
G03*
X022837Y04359I00035J0D01*
G01*
X021137D02*
G03*
X021837Y04359I00035J0D01*
G01*
X020137D02*
G03*
X020837Y04359I00035J0D01*
G01*
X019137D02*
G03*
X019837Y04359I00035J0D01*
G01*
X018137D02*
G03*
X018837Y04359I00035J0D01*
G01*
X017137D02*
G03*
X017837Y04359I00035J0D01*
G01*
X016137D02*
G03*
X016837Y04359I00035J0D01*
G01*
X031837D02*
Y044828D01*
X031137Y04359D02*
Y044837D01*
X030837Y04359D02*
Y044837D01*
X030137Y04359D02*
Y044837D01*
X029837Y04359D02*
Y044837D01*
X029137Y04359D02*
Y044855D01*
X028837Y04359D02*
Y044847D01*
X028137Y04359D02*
Y044847D01*
X027837Y04359D02*
Y044857D01*
X027137Y04359D02*
Y044847D01*
X026837Y04359D02*
Y044857D01*
X026137Y04359D02*
Y044847D01*
X025837Y04359D02*
Y044847D01*
X025137Y04359D02*
Y044847D01*
X024837Y04359D02*
Y044847D01*
X024137Y04359D02*
Y044847D01*
X023837Y04359D02*
Y044855D01*
X023137Y04359D02*
Y044857D01*
X022837Y04359D02*
Y044857D01*
X022137Y04359D02*
Y044847D01*
X021837Y04359D02*
Y044837D01*
X021137Y04359D02*
Y044857D01*
X020837Y04359D02*
Y044857D01*
X020137Y04359D02*
Y044857D01*
X019837Y04359D02*
Y044847D01*
X019137Y04359D02*
Y044847D01*
X018837Y04359D02*
Y044847D01*
X018137Y04359D02*
Y044847D01*
X017837Y04359D02*
Y044847D01*
X017137Y04359D02*
Y044837D01*
X016837Y04359D02*
Y044847D01*
X016137Y04359D02*
Y044857D01*
X015539Y040457D02*
X040932D01*
Y035024D02*
Y040457D01*
X015539Y035024D02*
X040932D01*
X015539D02*
Y040457D01*
X013289Y030389D02*
Y044857D01*
X013289Y044857D02*
X04508D01*
Y030389D02*
Y044857D01*
X013289Y030389D02*
X04508D01*
X013637Y041333D02*
Y04239D01*
Y04244D02*
X013887Y04194D01*
X013387D02*
X013637Y04244D01*
D55*
X02623Y018006D02*
G03*
X02623Y018006I-000049J0D01*
G01*
D56*
X025833Y016611D02*
G03*
X025833Y016611I-000787J0D01*
G01*
X019237Y020611D02*
G03*
X019237Y020611I-000787J0D01*
G01*
X05352Y037618D02*
G03*
X053793Y037891I0J000274D01*
G01*
X051707Y037616D02*
G03*
X051433Y037342I0J-000274D01*
G01*
X053793Y044321D02*
G03*
X05352Y044594I-000274J0D01*
G01*
X051433Y04487D02*
G03*
X051707Y044596I000274J0D01*
G01*
X045287Y038611D02*
G03*
X045287Y038611I-000787J0D01*
G01*
X044637Y034311D02*
G03*
X044637Y034311I-000787J0D01*
G01*
X045287Y041661D02*
G03*
X045287Y041661I-000787J0D01*
G01*
X040887Y034365D02*
G03*
X040887Y034365I-000787J0D01*
G01*
X01895Y023961D02*
X01995D01*
Y026961D01*
X01895D02*
X01995D01*
X01895Y023961D02*
Y026961D01*
Y023961D02*
X01995D01*
X025757Y01799D02*
Y020632D01*
X024143Y01799D02*
Y020632D01*
Y01799D02*
X025757D01*
X024143Y020632D02*
X025757D01*
X0318Y046761D02*
Y047761D01*
X0238Y046761D02*
X0318D01*
X0238D02*
Y047761D01*
X0318D01*
X0228Y027911D02*
Y028911D01*
X0308D01*
Y027911D02*
Y028911D01*
X0228Y027911D02*
X0308D01*
X051707Y037616D02*
X053518D01*
X051707Y044596D02*
X053518D01*
X046549Y043862D02*
X05025D01*
X051431Y035043D02*
Y047169D01*
X046549Y03835D02*
X05025D01*
X046549Y035043D02*
Y047169D01*
X053793Y037891D02*
Y044321D01*
X046549Y047169D02*
X051431D01*
X046549Y035043D02*
X051431D01*
X05025D02*
Y047169D01*
X0131Y028011D02*
Y029011D01*
X0211D01*
Y028011D02*
Y029011D01*
X0131Y028011D02*
X0211D01*
X0215Y046811D02*
Y047811D01*
X0135Y046811D02*
X0215D01*
X0135D02*
Y047811D01*
X0215D01*
X01635Y023961D02*
X01735D01*
Y026961D01*
X01635D02*
X01735D01*
X01635Y023961D02*
Y026961D01*
Y023961D02*
X01735D01*
X0138Y026961D02*
X0148D01*
X0138Y023961D02*
Y026961D01*
Y023961D02*
X0148D01*
Y026961D01*
X0138D02*
X0148D01*
D57*
X04544Y024081D02*
G03*
X04544Y024081I-00008J0D01*
G01*
X03654Y040191D02*
G03*
X03654Y040191I-00008J0D01*
G01*
X04181Y035921D02*
G03*
X04181Y035921I-00008J0D01*
G01*
X04015Y018911D02*
Y020511D01*
Y018911D02*
Y020511D01*
X04215Y018911D02*
Y020511D01*
Y018911D02*
Y020511D01*
X04035Y020711D02*
X04195D01*
X04035Y018711D02*
X04195D01*
X04035D02*
X04195D01*
X04035Y016711D02*
X04195D01*
X04015Y016911D02*
Y018511D01*
Y016911D02*
Y018511D01*
X04215Y016911D02*
Y018511D01*
Y016911D02*
Y018511D01*
X04015Y018911D02*
Y020511D01*
Y018911D02*
Y020511D01*
X04215Y018911D02*
Y020511D01*
Y018911D02*
Y020511D01*
X04035Y020711D02*
X04195D01*
X04035Y018711D02*
X04195D01*
X04035D02*
X04195D01*
X04035Y016711D02*
X04195D01*
X04015Y016911D02*
Y018511D01*
Y016911D02*
Y018511D01*
X04215Y016911D02*
Y018511D01*
Y016911D02*
Y018511D01*
X03515Y018911D02*
Y020511D01*
Y018911D02*
Y020511D01*
X03715Y018911D02*
Y020511D01*
Y018911D02*
Y020511D01*
X03535Y020711D02*
X03695D01*
X03535Y018711D02*
X03695D01*
X03535D02*
X03695D01*
X03535Y016711D02*
X03695D01*
X03515Y016911D02*
Y018511D01*
Y016911D02*
Y018511D01*
X03715Y016911D02*
Y018511D01*
Y016911D02*
Y018511D01*
X03515Y018911D02*
Y020511D01*
Y018911D02*
Y020511D01*
X03715Y018911D02*
Y020511D01*
Y018911D02*
Y020511D01*
X03535Y020711D02*
X03695D01*
X03535Y018711D02*
X03695D01*
X03535D02*
X03695D01*
X03535Y016711D02*
X03695D01*
X03515Y016911D02*
Y018511D01*
Y016911D02*
Y018511D01*
X03715Y016911D02*
Y018511D01*
Y016911D02*
Y018511D01*
X03015Y018911D02*
Y020511D01*
Y018911D02*
Y020511D01*
X03215Y018911D02*
Y020511D01*
Y018911D02*
Y020511D01*
X03035Y020711D02*
X03195D01*
X03035Y018711D02*
X03195D01*
X03035D02*
X03195D01*
X03035Y016711D02*
X03195D01*
X03015Y016911D02*
Y018511D01*
Y016911D02*
Y018511D01*
X03215Y016911D02*
Y018511D01*
Y016911D02*
Y018511D01*
X03015Y018911D02*
Y020511D01*
Y018911D02*
Y020511D01*
X03215Y018911D02*
Y020511D01*
Y018911D02*
Y020511D01*
X03035Y020711D02*
X03195D01*
X03035Y018711D02*
X03195D01*
X03035D02*
X03195D01*
X03035Y016711D02*
X03195D01*
X03015Y016911D02*
Y018511D01*
Y016911D02*
Y018511D01*
X03215Y016911D02*
Y018511D01*
Y016911D02*
Y018511D01*
X04015Y018911D02*
Y020511D01*
Y018911D02*
Y020511D01*
X04215Y018911D02*
Y020511D01*
Y018911D02*
Y020511D01*
X04035Y020711D02*
X04195D01*
X04035Y018711D02*
X04195D01*
X04035D02*
X04195D01*
X04035Y016711D02*
X04195D01*
X04015Y016911D02*
Y018511D01*
Y016911D02*
Y018511D01*
X04215Y016911D02*
Y018511D01*
Y016911D02*
Y018511D01*
X04015Y018911D02*
Y020511D01*
Y018911D02*
Y020511D01*
X04215Y018911D02*
Y020511D01*
Y018911D02*
Y020511D01*
X04035Y020711D02*
X04195D01*
X04035Y018711D02*
X04195D01*
X04035D02*
X04195D01*
X04035Y016711D02*
X04195D01*
X04015Y016911D02*
Y018511D01*
Y016911D02*
Y018511D01*
X04215Y016911D02*
Y018511D01*
Y016911D02*
Y018511D01*
X04515Y018911D02*
Y020511D01*
Y018911D02*
Y020511D01*
X04715Y018911D02*
Y020511D01*
Y018911D02*
Y020511D01*
X04535Y020711D02*
X04695D01*
X04535Y018711D02*
X04695D01*
X04535D02*
X04695D01*
X04535Y016711D02*
X04695D01*
X04515Y016911D02*
Y018511D01*
Y016911D02*
Y018511D01*
X04715Y016911D02*
Y018511D01*
Y016911D02*
Y018511D01*
X04515Y018911D02*
Y020511D01*
Y018911D02*
Y020511D01*
X04715Y018911D02*
Y020511D01*
Y018911D02*
Y020511D01*
X04535Y020711D02*
X04695D01*
X04535Y018711D02*
X04695D01*
X04535D02*
X04695D01*
X04535Y016711D02*
X04695D01*
X04515Y016911D02*
Y018511D01*
Y016911D02*
Y018511D01*
X04715Y016911D02*
Y018511D01*
Y016911D02*
Y018511D01*
X04515Y018911D02*
Y020511D01*
Y018911D02*
Y020511D01*
X04715Y018911D02*
Y020511D01*
Y018911D02*
Y020511D01*
X04535Y020711D02*
X04695D01*
X04535Y018711D02*
X04695D01*
X04535D02*
X04695D01*
X04535Y016711D02*
X04695D01*
X04515Y016911D02*
Y018511D01*
Y016911D02*
Y018511D01*
X04715Y016911D02*
Y018511D01*
Y016911D02*
Y018511D01*
X04515Y018911D02*
Y020511D01*
Y018911D02*
Y020511D01*
X04715Y018911D02*
Y020511D01*
Y018911D02*
Y020511D01*
X04535Y020711D02*
X04695D01*
X04535Y018711D02*
X04695D01*
X04535D02*
X04695D01*
X04535Y016711D02*
X04695D01*
X04515Y016911D02*
Y018511D01*
Y016911D02*
Y018511D01*
X04715Y016911D02*
Y018511D01*
Y016911D02*
Y018511D01*
X016606Y03293D02*
Y03218D01*
X017105D01*
X017855Y032805D02*
X01773Y03293D01*
X01748D01*
X017355Y032805D01*
Y032305D01*
X01748Y03218D01*
X01773D01*
X017855Y032305D01*
X018105Y03293D02*
Y03218D01*
X01848D01*
X018605Y032305D01*
Y032805D01*
X01848Y03293D01*
X018105D01*
X019605Y03218D02*
X019854D01*
X01973D01*
Y03293D01*
X019605Y032805D01*
X020729Y03293D02*
X020479Y032805D01*
X020229Y032555D01*
Y032305D01*
X020354Y03218D01*
X020604D01*
X020729Y032305D01*
Y03243D01*
X020604Y032555D01*
X020229D01*
X020979Y03293D02*
X021479Y03218D01*
Y03293D02*
X020979Y03218D01*
X022229D02*
X021729D01*
X022229Y03268D01*
Y032805D01*
X022104Y03293D01*
X021854D01*
X021729Y032805D01*
X022479Y032555D02*
X022978D01*
X023228Y03218D02*
Y03268D01*
X023478Y03293D01*
X023728Y03268D01*
Y03218D01*
Y032555D01*
X023228D01*
D58*
X02555Y022811D02*
G03*
X02555Y022811I-0005J0D01*
G01*
X0306Y012311D02*
G03*
X0306Y012311I-0005J0D01*
G01*
X04095Y012361D02*
G03*
X04095Y012361I-0005J0D01*
G01*
X0358Y012311D02*
G03*
X0358Y012311I-0005J0D01*
G01*
X04655Y012161D02*
G03*
X04655Y012161I-0005J0D01*
G01*
X02395Y022261D02*
Y023211D01*
X02426Y021761D02*
X0258D01*
X0262Y022261D02*
Y023211D01*
X02425Y023761D02*
X0258D01*
X029Y011761D02*
Y012711D01*
X02931Y011261D02*
X03085D01*
X03125Y011761D02*
Y012711D01*
X0293Y013261D02*
X03085D01*
X03935Y011811D02*
Y012761D01*
X03966Y011311D02*
X0412D01*
X0416Y011811D02*
Y012761D01*
X03965Y013311D02*
X0412D01*
X0342Y011761D02*
Y012711D01*
X03451Y011261D02*
X03605D01*
X03645Y011761D02*
Y012711D01*
X0345Y013261D02*
X03605D01*
X04495Y011611D02*
Y012561D01*
X04526Y011111D02*
X0468D01*
X0472Y011611D02*
Y012561D01*
X04525Y013111D02*
X0468D01*
D59*
X0251Y0466D02*
X02545D01*
Y046425D01*
X025392Y046367D01*
X025275D01*
X025217Y046425D01*
Y0466D01*
X02545Y04625D02*
X0251D01*
Y046075D01*
X025158Y046017D01*
X025217D01*
X025275Y046075D01*
Y04625D01*
Y046075D01*
X025333Y046017D01*
X025392D01*
X02545Y046075D01*
Y04625D01*
Y045667D02*
X025392Y045784D01*
X025275Y0459D01*
X025158D01*
X0251Y045842D01*
Y045725D01*
X025158Y045667D01*
X025217D01*
X025275Y045725D01*
Y0459D01*
X0261Y04655D02*
X02645D01*
Y046375D01*
X026392Y046317D01*
X026275D01*
X026217Y046375D01*
Y04655D01*
X02645Y0462D02*
X0261D01*
Y046025D01*
X026158Y045967D01*
X026217D01*
X026275Y046025D01*
Y0462D01*
Y046025D01*
X026333Y045967D01*
X026392D01*
X02645Y046025D01*
Y0462D01*
Y045617D02*
Y04585D01*
X026275D01*
X026333Y045734D01*
Y045675D01*
X026275Y045617D01*
X026158D01*
X0261Y045675D01*
Y045792D01*
X026158Y04585D01*
X027Y04655D02*
X02735D01*
Y046375D01*
X027292Y046317D01*
X027175D01*
X027117Y046375D01*
Y04655D01*
X02735Y0462D02*
X027D01*
Y046025D01*
X027058Y045967D01*
X027117D01*
X027175Y046025D01*
Y0462D01*
Y046025D01*
X027233Y045967D01*
X027292D01*
X02735Y046025D01*
Y0462D01*
X027Y045675D02*
X02735D01*
X027175Y04585D01*
Y045617D01*
X02815Y04665D02*
X0285D01*
Y046475D01*
X028442Y046417D01*
X028325D01*
X028267Y046475D01*
Y04665D01*
X0285Y0463D02*
X02815D01*
Y046125D01*
X028208Y046067D01*
X028267D01*
X028325Y046125D01*
Y0463D01*
Y046125D01*
X028383Y046067D01*
X028442D01*
X0285Y046125D01*
Y0463D01*
X028442Y04595D02*
X0285Y045892D01*
Y045775D01*
X028442Y045717D01*
X028383D01*
X028325Y045775D01*
Y045834D01*
Y045775D01*
X028267Y045717D01*
X028208D01*
X02815Y045775D01*
Y045892D01*
X028208Y04595D01*
X0291Y0466D02*
X02945D01*
Y046425D01*
X029392Y046367D01*
X029275D01*
X029217Y046425D01*
Y0466D01*
X02945Y04625D02*
X0291D01*
Y046075D01*
X029158Y046017D01*
X029217D01*
X029275Y046075D01*
Y04625D01*
Y046075D01*
X029333Y046017D01*
X029392D01*
X02945Y046075D01*
Y04625D01*
X0291Y045667D02*
Y0459D01*
X029333Y045667D01*
X029392D01*
X02945Y045725D01*
Y045842D01*
X029392Y0459D01*
X0301Y04655D02*
X03045D01*
Y046375D01*
X030392Y046317D01*
X030275D01*
X030217Y046375D01*
Y04655D01*
X03045Y0462D02*
X0301D01*
Y046025D01*
X030158Y045967D01*
X030217D01*
X030275Y046025D01*
Y0462D01*
Y046025D01*
X030333Y045967D01*
X030392D01*
X03045Y046025D01*
Y0462D01*
X0301Y04585D02*
Y045734D01*
Y045792D01*
X03045D01*
X030392Y04585D01*
X0311Y0466D02*
X03145D01*
Y046425D01*
X031392Y046367D01*
X031275D01*
X031217Y046425D01*
Y0466D01*
X03145Y04625D02*
X0311D01*
Y046075D01*
X031158Y046017D01*
X031217D01*
X031275Y046075D01*
Y04625D01*
Y046075D01*
X031333Y046017D01*
X031392D01*
X03145Y046075D01*
Y04625D01*
X031392Y0459D02*
X03145Y045842D01*
Y045725D01*
X031392Y045667D01*
X031158D01*
X0311Y045725D01*
Y045842D01*
X031158Y0459D01*
X031392D01*
X0241Y04665D02*
X02445D01*
Y046475D01*
X024392Y046417D01*
X024275D01*
X024217Y046475D01*
Y04665D01*
X02445Y0463D02*
X0241D01*
Y046125D01*
X024158Y046067D01*
X024217D01*
X024275Y046125D01*
Y0463D01*
Y046125D01*
X024333Y046067D01*
X024392D01*
X02445Y046125D01*
Y0463D01*
Y04595D02*
Y045717D01*
X024392D01*
X024158Y04595D01*
X0241D01*
X0138Y0467D02*
X01415D01*
Y046525D01*
X014092Y046467D01*
X013975D01*
X013917Y046525D01*
Y0467D01*
X01415Y04635D02*
X0138D01*
Y046175D01*
X013858Y046117D01*
X014092D01*
X01415Y046175D01*
Y04635D01*
Y046D02*
Y045767D01*
X014092D01*
X013858Y046D01*
X0138D01*
X0208Y04665D02*
X02115D01*
Y046475D01*
X021092Y046417D01*
X020975D01*
X020917Y046475D01*
Y04665D01*
X02115Y0463D02*
X0208D01*
Y046125D01*
X020858Y046067D01*
X021092D01*
X02115Y046125D01*
Y0463D01*
X021092Y04595D02*
X02115Y045892D01*
Y045775D01*
X021092Y045717D01*
X020858D01*
X0208Y045775D01*
Y045892D01*
X020858Y04595D01*
X021092D01*
X0198Y0466D02*
X02015D01*
Y046425D01*
X020092Y046367D01*
X019975D01*
X019917Y046425D01*
Y0466D01*
X02015Y04625D02*
X0198D01*
Y046075D01*
X019858Y046017D01*
X020092D01*
X02015Y046075D01*
Y04625D01*
X0198Y0459D02*
Y045784D01*
Y045842D01*
X02015D01*
X020092Y0459D01*
X0188Y04665D02*
X01915D01*
Y046475D01*
X019092Y046417D01*
X018975D01*
X018917Y046475D01*
Y04665D01*
X01915Y0463D02*
X0188D01*
Y046125D01*
X018858Y046067D01*
X019092D01*
X01915Y046125D01*
Y0463D01*
X0188Y045717D02*
Y04595D01*
X019033Y045717D01*
X019092D01*
X01915Y045775D01*
Y045892D01*
X019092Y04595D01*
X01785Y0467D02*
X0182D01*
Y046525D01*
X018142Y046467D01*
X018025D01*
X017967Y046525D01*
Y0467D01*
X0182Y04635D02*
X01785D01*
Y046175D01*
X017908Y046117D01*
X018142D01*
X0182Y046175D01*
Y04635D01*
X018142Y046D02*
X0182Y045942D01*
Y045825D01*
X018142Y045767D01*
X018083D01*
X018025Y045825D01*
Y045884D01*
Y045825D01*
X017967Y045767D01*
X017908D01*
X01785Y045825D01*
Y045942D01*
X017908Y046D01*
X0167Y0466D02*
X01705D01*
Y046425D01*
X016992Y046367D01*
X016875D01*
X016817Y046425D01*
Y0466D01*
X01705Y04625D02*
X0167D01*
Y046075D01*
X016758Y046017D01*
X016992D01*
X01705Y046075D01*
Y04625D01*
X0167Y045725D02*
X01705D01*
X016875Y0459D01*
Y045667D01*
X0158Y0466D02*
X01615D01*
Y046425D01*
X016092Y046367D01*
X015975D01*
X015917Y046425D01*
Y0466D01*
X01615Y04625D02*
X0158D01*
Y046075D01*
X015858Y046017D01*
X016092D01*
X01615Y046075D01*
Y04625D01*
Y045667D02*
Y0459D01*
X015975D01*
X016033Y045784D01*
Y045725D01*
X015975Y045667D01*
X015858D01*
X0158Y045725D01*
Y045842D01*
X015858Y0459D01*
X0148Y04665D02*
X01515D01*
Y046475D01*
X015092Y046417D01*
X014975D01*
X014917Y046475D01*
Y04665D01*
X01515Y0463D02*
X0148D01*
Y046125D01*
X014858Y046067D01*
X015092D01*
X01515Y046125D01*
Y0463D01*
Y045717D02*
X015092Y045834D01*
X014975Y04595D01*
X014858D01*
X0148Y045892D01*
Y045775D01*
X014858Y045717D01*
X014917D01*
X014975Y045775D01*
Y04595D01*
X0294Y0293D02*
X02905D01*
Y029475D01*
X029108Y029533D01*
X029225D01*
X029283Y029475D01*
Y0293D01*
X0294Y02965D02*
X029167D01*
X02905Y029767D01*
X029167Y029883D01*
X0294D01*
X029225D01*
Y02965D01*
X0294Y03D02*
Y030116D01*
Y030058D01*
X02905D01*
X029108Y03D01*
X0284Y02935D02*
X02805D01*
Y029525D01*
X028108Y029583D01*
X028225D01*
X028283Y029525D01*
Y02935D01*
X0284Y0297D02*
X028167D01*
X02805Y029817D01*
X028167Y029933D01*
X0284D01*
X028225D01*
Y0297D01*
X0284Y030283D02*
Y03005D01*
X028167Y030283D01*
X028108D01*
X02805Y030225D01*
Y030108D01*
X028108Y03005D01*
X0275Y02935D02*
X02715D01*
Y029525D01*
X027208Y029583D01*
X027325D01*
X027383Y029525D01*
Y02935D01*
X0275Y0297D02*
X027267D01*
X02715Y029817D01*
X027267Y029933D01*
X0275D01*
X027325D01*
Y0297D01*
X027208Y03005D02*
X02715Y030108D01*
Y030225D01*
X027208Y030283D01*
X027267D01*
X027325Y030225D01*
Y030166D01*
Y030225D01*
X027383Y030283D01*
X027442D01*
X0275Y030225D01*
Y030108D01*
X027442Y03005D01*
X02635Y02925D02*
X026D01*
Y029425D01*
X026058Y029483D01*
X026175D01*
X026233Y029425D01*
Y02925D01*
X02635Y0296D02*
X026117D01*
X026Y029717D01*
X026117Y029833D01*
X02635D01*
X026175D01*
Y0296D01*
X02635Y030125D02*
X026D01*
X026175Y02995D01*
Y030183D01*
X0254Y0293D02*
X02505D01*
Y029475D01*
X025108Y029533D01*
X025225D01*
X025283Y029475D01*
Y0293D01*
X0254Y02965D02*
X025167D01*
X02505Y029767D01*
X025167Y029883D01*
X0254D01*
X025225D01*
Y02965D01*
X02505Y030233D02*
Y03D01*
X025225D01*
X025167Y030116D01*
Y030175D01*
X025225Y030233D01*
X025342D01*
X0254Y030175D01*
Y030058D01*
X025342Y03D01*
X0244Y02935D02*
X02405D01*
Y029525D01*
X024108Y029583D01*
X024225D01*
X024283Y029525D01*
Y02935D01*
X0244Y0297D02*
X024167D01*
X02405Y029817D01*
X024167Y029933D01*
X0244D01*
X024225D01*
Y0297D01*
X02405Y030283D02*
X024108Y030166D01*
X024225Y03005D01*
X024342D01*
X0244Y030108D01*
Y030225D01*
X024342Y030283D01*
X024283D01*
X024225Y030225D01*
Y03005D01*
X0234Y0293D02*
X02305D01*
Y029475D01*
X023108Y029533D01*
X023225D01*
X023283Y029475D01*
Y0293D01*
X0234Y02965D02*
X023167D01*
X02305Y029767D01*
X023167Y029883D01*
X0234D01*
X023225D01*
Y02965D01*
X02305Y03D02*
Y030233D01*
X023108D01*
X023342Y03D01*
X0234D01*
X0304Y02925D02*
X03005D01*
Y029425D01*
X030108Y029483D01*
X030225D01*
X030283Y029425D01*
Y02925D01*
X0304Y0296D02*
X030167D01*
X03005Y029717D01*
X030167Y029833D01*
X0304D01*
X030225D01*
Y0296D01*
X030108Y02995D02*
X03005Y030008D01*
Y030125D01*
X030108Y030183D01*
X030342D01*
X0304Y030125D01*
Y030008D01*
X030342Y02995D01*
X030108D01*
X01975Y02925D02*
X0194D01*
Y029425D01*
X019458Y029483D01*
X019575D01*
X019633Y029425D01*
Y02925D01*
X019458Y029833D02*
X0194Y029775D01*
Y029658D01*
X019458Y0296D01*
X019692D01*
X01975Y029658D01*
Y029775D01*
X019692Y029833D01*
X0194Y030183D02*
X019458Y030066D01*
X019575Y02995D01*
X019692D01*
X01975Y030008D01*
Y030125D01*
X019692Y030183D01*
X019633D01*
X019575Y030125D01*
Y02995D01*
X01875Y0293D02*
X0184D01*
Y029475D01*
X018458Y029533D01*
X018575D01*
X018633Y029475D01*
Y0293D01*
X018458Y029883D02*
X0184Y029825D01*
Y029708D01*
X018458Y02965D01*
X018692D01*
X01875Y029708D01*
Y029825D01*
X018692Y029883D01*
X0184Y030233D02*
Y03D01*
X018575D01*
X018517Y030116D01*
Y030175D01*
X018575Y030233D01*
X018692D01*
X01875Y030175D01*
Y030058D01*
X018692Y03D01*
X01785Y0293D02*
X0175D01*
Y029475D01*
X017558Y029533D01*
X017675D01*
X017733Y029475D01*
Y0293D01*
X017558Y029883D02*
X0175Y029825D01*
Y029708D01*
X017558Y02965D01*
X017792D01*
X01785Y029708D01*
Y029825D01*
X017792Y029883D01*
X01785Y030175D02*
X0175D01*
X017675Y03D01*
Y030233D01*
X0167Y0292D02*
X01635D01*
Y029375D01*
X016408Y029433D01*
X016525D01*
X016583Y029375D01*
Y0292D01*
X016408Y029783D02*
X01635Y029725D01*
Y029608D01*
X016408Y02955D01*
X016642D01*
X0167Y029608D01*
Y029725D01*
X016642Y029783D01*
X016408Y0299D02*
X01635Y029958D01*
Y030075D01*
X016408Y030133D01*
X016467D01*
X016525Y030075D01*
Y030016D01*
Y030075D01*
X016583Y030133D01*
X016642D01*
X0167Y030075D01*
Y029958D01*
X016642Y0299D01*
X01575Y02925D02*
X0154D01*
Y029425D01*
X015458Y029483D01*
X015575D01*
X015633Y029425D01*
Y02925D01*
X015458Y029833D02*
X0154Y029775D01*
Y029658D01*
X015458Y0296D01*
X015692D01*
X01575Y029658D01*
Y029775D01*
X015692Y029833D01*
X01575Y030183D02*
Y02995D01*
X015517Y030183D01*
X015458D01*
X0154Y030125D01*
Y030008D01*
X015458Y02995D01*
X01475Y0293D02*
X0144D01*
Y029475D01*
X014458Y029533D01*
X014575D01*
X014633Y029475D01*
Y0293D01*
X014458Y029883D02*
X0144Y029825D01*
Y029708D01*
X014458Y02965D01*
X014692D01*
X01475Y029708D01*
Y029825D01*
X014692Y029883D01*
X01475Y03D02*
Y030116D01*
Y030058D01*
X0144D01*
X014458Y03D01*
X01375Y02925D02*
X0134D01*
Y029425D01*
X013458Y029483D01*
X013575D01*
X013633Y029425D01*
Y02925D01*
X013458Y029833D02*
X0134Y029775D01*
Y029658D01*
X013458Y0296D01*
X013692D01*
X01375Y029658D01*
Y029775D01*
X013692Y029833D01*
X013458Y02995D02*
X0134Y030008D01*
Y030125D01*
X013458Y030183D01*
X013692D01*
X01375Y030125D01*
Y030008D01*
X013692Y02995D01*
X013458D01*
X02075Y0292D02*
X0204D01*
Y029375D01*
X020458Y029433D01*
X020575D01*
X020633Y029375D01*
Y0292D01*
X020458Y029783D02*
X0204Y029725D01*
Y029608D01*
X020458Y02955D01*
X020692D01*
X02075Y029608D01*
Y029725D01*
X020692Y029783D01*
X0204Y0299D02*
Y030133D01*
X020458D01*
X020692Y0299D01*
X02075D01*
D60*
X024695Y017059D02*
X024826D01*
X024761Y017125D02*
Y016993D01*
X018002Y020261D02*
Y020392D01*
X017936Y020326D02*
X018067D01*
X04415Y039059D02*
X044281D01*
X044216Y039125D02*
Y038993D01*
X043402Y033961D02*
Y034092D01*
X043336Y034026D02*
X043467D01*
X04415Y042109D02*
X044281D01*
X044216Y042175D02*
Y042043D01*
X039652Y034015D02*
Y034147D01*
X039586Y034081D02*
X039717D01*
D61*
X01665Y018211D02*
D03*
M02*
