M48
;Layer_Color=9474304
;FILE_FORMAT=2:4
INCH,LZ
;TYPE=PLATED
T1F00S00C0.0280
T2F00S00C0.0295
T3F00S00C0.0310
T4F00S00C0.0315
T5F00S00C0.0320
T6F00S00C0.0340
T7F00S00C0.0350
T8F00S00C0.0354
T9F00S00C0.0394
T10F00S00C0.0400
T11F00S00C0.0429
T12F00S00C0.0450
T14F00S00C0.0750
T15F00S00C0.1181
T16F00S00C0.1283
%
T01
X03695Y014561
X0386Y024611
X03765Y025661
X0318Y027711
X013Y018761
X0174Y036811
X01695Y038161
X01625Y040661
X0199Y039961
X02365Y039761
X0272Y042161
X0287Y0429
X03075Y04265
X03105Y039961
X0293Y037061
X0282Y037161
X0265Y04535
X02655Y0463
X032Y040061
X0317Y039111
X0374Y034411
X0388Y033661
X0395Y033261
X0455Y036711
X0408Y044611
X0374Y043861
T02
X01845Y020315
Y020906
X02475Y016611
X025341
X0401Y03407
Y034661
X04385Y034606
Y034015
X044205Y038611
X044795
Y041661
X044205
T03
X02695Y011861
Y012861
X0269Y014611
Y015611
X02885Y013261
Y011261
X03135
Y013261
X03405
Y011261
X03655
Y013261
X0392Y013311
Y011311
X0417
Y013311
X0448Y013111
Y011111
X0473
Y013111
X0474Y017011
Y020511
X04735Y023311
X04835
Y026311
X04735
X0477Y027861
X04755Y029511
X04405
X0442Y027861
X04535Y026311
X04635
Y023311
X04535
X04255Y020361
X04115Y021711
X04015
X03915
X03815
X03715
X03615
X0377Y020361
Y016861
X03815Y015711
X03715
X03615
X03915
X04015
X04115
X04255Y016861
X0329Y016961
Y020461
X0263Y021761
Y023761
X0238
Y021761
X02125Y022761
X01825
X01915Y016661
X02265
X01545Y033911
X01445
X0144Y040061
X0134
X01745Y041211
X01845
X01945
X02045
X02145
X02245
X02345
X02445
X02545
X02645
X02745
X02845
X02945
X03045
Y035211
X02945
X02845
X02745
X02645
X02545
X02445
X02345
X02245
X02145
X02045
X01945
X01845
X01745
X03145
X03245
X03345
X03445
X03545
X03645
X0395Y035911
Y036911
Y037911
Y038911
Y039911
Y040911
Y041911
Y042911
X0425
Y041911
Y040911
Y039911
Y038911
Y037911
Y036911
Y035911
X03645Y041211
X03545
X03445
X03345
X03245
X03145
X0342Y043411
Y046911
T04
X03215Y025311
Y026311
X030837Y026361
Y025361
X029587
Y026361
X028137Y026261
Y025261
X02675Y025311
Y026311
X025437
Y025311
X024187
Y026311
X02275
Y025311
T05
X02075Y020311
X02175
X0256Y037261
Y038261
T06
X01375Y036061
Y038061
T07
X0175Y018211
X01565Y020461
Y022961
X01465
X01365
Y020461
X01465
X014Y018211
X04625Y031411
Y033411
X036Y043111
X04825Y032411
X036Y047111
T08
X03135Y019861
X0343Y019911
X0353
X0363
X039
X04
X041
X04395
X04495
X04595
X04355Y02515
X04255
X0303Y028411
X0293
X0283
X0273
X0263
X0253
X0243
X0233
X0206Y028511
X0196
X0186
X0176
X0166
X01685Y026461
Y025461
Y024461
X01945
Y025461
Y026461
X02935Y019861
X03035
X0143Y024461
Y025461
Y026461
X0146Y028511
X0156
X0136
X0313Y047261
X0303
X0293
X0283
X0273
X0263
X0253
X0243
X021Y047311
X02
X019
X018
X017
X016
X015
X014
T09
X03925Y046261
X04025
X04125
X04225
X04325
Y047261
X04225
X04125
X04025
X03925
T10
X0209Y014011
X0219
X0229
X022487Y04404
X023487
X024487
X025487
X026487
X027487
X028487
X029487
X030487
X021487
X020487
X019487
X018487
X017487
X016487
X031487
T11
X047132Y038925
Y040015
Y041106
Y042197
Y043287
X04825Y042742
Y041651
Y040561
Y03947
T12
X03375Y027911
X04175
T14
X0219Y012011
T15
X01445Y031511
X01445Y043725
X043909Y043706
X043909Y031501
T16
X047691Y036187
Y046025
M30
