G04 Layer_Color=128*
%FSTAX24Y24*%
%MOIN*%
G70*
G01*
G75*
%ADD101C,0.0020*%
D101*
X043373Y02515D02*
X043727D01*
X04355Y024973D02*
Y025327D01*
X042373Y02515D02*
X042727D01*
X04255Y024973D02*
Y025327D01*
X02544Y037261D02*
X02576D01*
X0256Y037101D02*
Y037421D01*
X02544Y038261D02*
X02576D01*
X0256Y038101D02*
Y038421D01*
X013245Y040061D02*
X013555D01*
X0134Y039906D02*
Y040216D01*
X014245Y040061D02*
X014555D01*
X0144Y039906D02*
Y040216D01*
X014295Y033911D02*
X014605D01*
X01445Y033756D02*
Y034066D01*
X015295Y033911D02*
X015605D01*
X01545Y033756D02*
Y034066D01*
X022593Y025311D02*
X022907D01*
X02275Y025153D02*
Y025468D01*
X022593Y026311D02*
X022907D01*
X02275Y026153D02*
Y026468D01*
X02403Y025311D02*
X024345D01*
X024187Y025153D02*
Y025468D01*
X02403Y026311D02*
X024345D01*
X024187Y026153D02*
Y026468D01*
X02528Y025311D02*
X025595D01*
X025437Y025153D02*
Y025468D01*
X02528Y026311D02*
X025595D01*
X025437Y026153D02*
Y026468D01*
X026593Y025311D02*
X026907D01*
X02675Y025153D02*
Y025468D01*
X026593Y026311D02*
X026907D01*
X02675Y026153D02*
Y026468D01*
X02798Y025261D02*
X028295D01*
X028137Y025103D02*
Y025418D01*
X02798Y026261D02*
X028295D01*
X028137Y026103D02*
Y026418D01*
X02943Y025361D02*
X029745D01*
X029587Y025203D02*
Y025518D01*
X02943Y026361D02*
X029745D01*
X029587Y026203D02*
Y026518D01*
X03068Y025361D02*
X030995D01*
X030837Y025203D02*
Y025518D01*
X03068Y026361D02*
X030995D01*
X030837Y026203D02*
Y026518D01*
X031993Y025311D02*
X032307D01*
X03215Y025153D02*
Y025468D01*
X031993Y026311D02*
X032307D01*
X03215Y026153D02*
Y026468D01*
X043318Y031501D02*
X044499D01*
X043909Y03091D02*
Y032091D01*
X031287Y04404D02*
X031687D01*
X031487Y04384D02*
Y04424D01*
X030287Y04404D02*
X030687D01*
X030487Y04384D02*
Y04424D01*
X029287Y04404D02*
X029687D01*
X029487Y04384D02*
Y04424D01*
X028287Y04404D02*
X028687D01*
X028487Y04384D02*
Y04424D01*
X027287Y04404D02*
X027687D01*
X027487Y04384D02*
Y04424D01*
X026287Y04404D02*
X026687D01*
X026487Y04384D02*
Y04424D01*
X025287Y04404D02*
X025687D01*
X025487Y04384D02*
Y04424D01*
X024287Y04404D02*
X024687D01*
X024487Y04384D02*
Y04424D01*
X023287Y04404D02*
X023687D01*
X023487Y04384D02*
Y04424D01*
X022287Y04404D02*
X022687D01*
X022487Y04384D02*
Y04424D01*
X021287Y04404D02*
X021687D01*
X021487Y04384D02*
Y04424D01*
X020287Y04404D02*
X020687D01*
X020487Y04384D02*
Y04424D01*
X019287Y04404D02*
X019687D01*
X019487Y04384D02*
Y04424D01*
X018287Y04404D02*
X018687D01*
X018487Y04384D02*
Y04424D01*
X017287Y04404D02*
X017687D01*
X017487Y04384D02*
Y04424D01*
X016287Y04404D02*
X016687D01*
X016487Y04384D02*
Y04424D01*
X013859Y043725D02*
X015041D01*
X01445Y043135D02*
Y044316D01*
X013859Y031511D02*
X015041D01*
X01445Y03092D02*
Y032101D01*
X043318Y043706D02*
X044499D01*
X043909Y043115D02*
Y044296D01*
X034045Y046911D02*
X034355D01*
X0342Y046756D02*
Y047066D01*
X034045Y043411D02*
X034355D01*
X0342Y043256D02*
Y043566D01*
X019273Y024461D02*
X019627D01*
X01945Y024284D02*
Y024638D01*
X019273Y025461D02*
X019627D01*
X01945Y025284D02*
Y025638D01*
X019273Y026461D02*
X019627D01*
X01945Y026284D02*
Y026638D01*
X026745Y014611D02*
X027055D01*
X0269Y014456D02*
Y014766D01*
X026745Y015611D02*
X027055D01*
X0269Y015456D02*
Y015766D01*
X026795Y012861D02*
X027105D01*
X02695Y012706D02*
Y013016D01*
X026795Y011861D02*
X027105D01*
X02695Y011706D02*
Y012016D01*
X025193Y016611D02*
X025488D01*
X025341Y016463D02*
Y016758D01*
X024602Y016611D02*
X024898D01*
X02475Y016463D02*
Y016758D01*
X045195Y023311D02*
X045505D01*
X04535Y023156D02*
Y023466D01*
X046195Y023311D02*
X046505D01*
X04635Y023156D02*
Y023466D01*
X047195Y023311D02*
X047505D01*
X04735Y023156D02*
Y023466D01*
X048195Y023311D02*
X048505D01*
X04835Y023156D02*
Y023466D01*
X045195Y026311D02*
X045505D01*
X04535Y026156D02*
Y026466D01*
X046195Y026311D02*
X046505D01*
X04635Y026156D02*
Y026466D01*
X047195Y026311D02*
X047505D01*
X04735Y026156D02*
Y026466D01*
X048195Y026311D02*
X048505D01*
X04835Y026156D02*
Y026466D01*
X013475Y022961D02*
X013825D01*
X01365Y022786D02*
Y023136D01*
X014475Y022961D02*
X014825D01*
X01465Y022786D02*
Y023136D01*
X015475Y022961D02*
X015825D01*
X01565Y022786D02*
Y023136D01*
X015475Y020461D02*
X015825D01*
X01565Y020286D02*
Y020636D01*
X014475Y020461D02*
X014825D01*
X01465Y020286D02*
Y020636D01*
X013475Y020461D02*
X013825D01*
X01365Y020286D02*
Y020636D01*
X0207Y014011D02*
X0211D01*
X0209Y013811D02*
Y014211D01*
X0217Y014011D02*
X0221D01*
X0219Y013811D02*
Y014211D01*
X0227Y014011D02*
X0231D01*
X0229Y013811D02*
Y014211D01*
X021525Y012011D02*
X022275D01*
X0219Y011636D02*
Y012386D01*
X013825Y018211D02*
X014175D01*
X014Y018036D02*
Y018386D01*
X017325Y018211D02*
X017675D01*
X0175Y018036D02*
Y018386D01*
X014855Y015961D02*
X015445D01*
X01515Y015665D02*
Y016256D01*
X014855Y013461D02*
X015445D01*
X01515Y013165D02*
Y013756D01*
X016855Y014961D02*
X017445D01*
X01715Y014665D02*
Y015256D01*
X033525Y027911D02*
X033975D01*
X03375Y027686D02*
Y028136D01*
X041525Y027911D02*
X041975D01*
X04175Y027686D02*
Y028136D01*
X046075Y033411D02*
X046425D01*
X04625Y033236D02*
Y033586D01*
X048075Y032411D02*
X048425D01*
X04825Y032236D02*
Y032586D01*
X046075Y031411D02*
X046425D01*
X04625Y031236D02*
Y031586D01*
X02159Y020311D02*
X02191D01*
X02175Y020151D02*
Y020471D01*
X02059Y020311D02*
X02091D01*
X02075Y020151D02*
Y020471D01*
X018095Y022761D02*
X018405D01*
X01825Y022606D02*
Y022916D01*
X021095Y022761D02*
X021405D01*
X02125Y022606D02*
Y022916D01*
X018302Y020906D02*
X018598D01*
X01845Y020758D02*
Y021054D01*
X018302Y020315D02*
X018598D01*
X01845Y020168D02*
Y020463D01*
X044045Y027861D02*
X044355D01*
X0442Y027706D02*
Y028016D01*
X047545Y027861D02*
X047855D01*
X0477Y027706D02*
Y028016D01*
X043895Y029511D02*
X044205D01*
X04405Y029356D02*
Y029666D01*
X047395Y029511D02*
X047705D01*
X04755Y029356D02*
Y029666D01*
X018995Y016661D02*
X019305D01*
X01915Y016506D02*
Y016816D01*
X022495Y016661D02*
X022805D01*
X02265Y016506D02*
Y016816D01*
X023645Y023761D02*
X023955D01*
X0238Y023606D02*
Y023916D01*
X026145Y021761D02*
X026455D01*
X0263Y021606D02*
Y021916D01*
X026145Y023761D02*
X026455D01*
X0263Y023606D02*
Y023916D01*
X023645Y021761D02*
X023955D01*
X0238Y021606D02*
Y021916D01*
X035825Y047111D02*
X036175D01*
X036Y046936D02*
Y047286D01*
X035825Y043111D02*
X036175D01*
X036Y042936D02*
Y043286D01*
X039053Y047261D02*
X039447D01*
X03925Y047064D02*
Y047458D01*
X040053Y047261D02*
X040447D01*
X04025Y047064D02*
Y047458D01*
X041053Y047261D02*
X041447D01*
X04125Y047064D02*
Y047458D01*
X042053Y047261D02*
X042447D01*
X04225Y047064D02*
Y047458D01*
X043053Y047261D02*
X043447D01*
X04325Y047064D02*
Y047458D01*
X043053Y046261D02*
X043447D01*
X04325Y046064D02*
Y046458D01*
X042053Y046261D02*
X042447D01*
X04225Y046064D02*
Y046458D01*
X041053Y046261D02*
X041447D01*
X04125Y046064D02*
Y046458D01*
X040053Y046261D02*
X040447D01*
X04025Y046064D02*
Y046458D01*
X039053Y046261D02*
X039447D01*
X03925Y046064D02*
Y046458D01*
X047245Y020511D02*
X047555D01*
X0474Y020356D02*
Y020666D01*
X047245Y017011D02*
X047555D01*
X0474Y016856D02*
Y017166D01*
X042395Y020361D02*
X042705D01*
X04255Y020206D02*
Y020516D01*
X042395Y016861D02*
X042705D01*
X04255Y016706D02*
Y017016D01*
X037545Y016861D02*
X037855D01*
X0377Y016706D02*
Y017016D01*
X037545Y020361D02*
X037855D01*
X0377Y020206D02*
Y020516D01*
X032745Y016961D02*
X033055D01*
X0329Y016806D02*
Y017116D01*
X032745Y020461D02*
X033055D01*
X0329Y020306D02*
Y020616D01*
X024123Y047261D02*
X024477D01*
X0243Y047084D02*
Y047438D01*
X025123Y047261D02*
X025477D01*
X0253Y047084D02*
Y047438D01*
X026123Y047261D02*
X026477D01*
X0263Y047084D02*
Y047438D01*
X027123Y047261D02*
X027477D01*
X0273Y047084D02*
Y047438D01*
X028123Y047261D02*
X028477D01*
X0283Y047084D02*
Y047438D01*
X029123Y047261D02*
X029477D01*
X0293Y047084D02*
Y047438D01*
X030123Y047261D02*
X030477D01*
X0303Y047084D02*
Y047438D01*
X031123Y047261D02*
X031477D01*
X0313Y047084D02*
Y047438D01*
X043773Y019911D02*
X044127D01*
X04395Y019734D02*
Y020088D01*
X044773Y019911D02*
X045127D01*
X04495Y019734D02*
Y020088D01*
X045773Y019911D02*
X046127D01*
X04595Y019734D02*
Y020088D01*
X038823Y019911D02*
X039177D01*
X039Y019734D02*
Y020088D01*
X039823Y019911D02*
X040177D01*
X04Y019734D02*
Y020088D01*
X040823Y019911D02*
X041177D01*
X041Y019734D02*
Y020088D01*
X034123Y019911D02*
X034477D01*
X0343Y019734D02*
Y020088D01*
X035123Y019911D02*
X035477D01*
X0353Y019734D02*
Y020088D01*
X036123Y019911D02*
X036477D01*
X0363Y019734D02*
Y020088D01*
X029173Y019861D02*
X029527D01*
X02935Y019684D02*
Y020038D01*
X030173Y019861D02*
X030527D01*
X03035Y019684D02*
Y020038D01*
X031173Y019861D02*
X031527D01*
X03135Y019684D02*
Y020038D01*
X030123Y028411D02*
X030477D01*
X0303Y028234D02*
Y028588D01*
X029123Y028411D02*
X029477D01*
X0293Y028234D02*
Y028588D01*
X028123Y028411D02*
X028477D01*
X0283Y028234D02*
Y028588D01*
X027123Y028411D02*
X027477D01*
X0273Y028234D02*
Y028588D01*
X026123Y028411D02*
X026477D01*
X0263Y028234D02*
Y028588D01*
X025123Y028411D02*
X025477D01*
X0253Y028234D02*
Y028588D01*
X024123Y028411D02*
X024477D01*
X0243Y028234D02*
Y028588D01*
X023123Y028411D02*
X023477D01*
X0233Y028234D02*
Y028588D01*
X036295Y041211D02*
X036605D01*
X03645Y041056D02*
Y041366D01*
X035295Y041211D02*
X035605D01*
X03545Y041056D02*
Y041366D01*
X034295Y041211D02*
X034605D01*
X03445Y041056D02*
Y041366D01*
X033295Y041211D02*
X033605D01*
X03345Y041056D02*
Y041366D01*
X032295Y041211D02*
X032605D01*
X03245Y041056D02*
Y041366D01*
X031295Y041211D02*
X031605D01*
X03145Y041056D02*
Y041366D01*
X030295Y041211D02*
X030605D01*
X03045Y041056D02*
Y041366D01*
X029295Y041211D02*
X029605D01*
X02945Y041056D02*
Y041366D01*
X028295Y041211D02*
X028605D01*
X02845Y041056D02*
Y041366D01*
X027295Y041211D02*
X027605D01*
X02745Y041056D02*
Y041366D01*
X026295Y041211D02*
X026605D01*
X02645Y041056D02*
Y041366D01*
X025295Y041211D02*
X025605D01*
X02545Y041056D02*
Y041366D01*
X024295Y041211D02*
X024605D01*
X02445Y041056D02*
Y041366D01*
X023295Y041211D02*
X023605D01*
X02345Y041056D02*
Y041366D01*
X022295Y041211D02*
X022605D01*
X02245Y041056D02*
Y041366D01*
X021295Y041211D02*
X021605D01*
X02145Y041056D02*
Y041366D01*
X020295Y041211D02*
X020605D01*
X02045Y041056D02*
Y041366D01*
X019295Y041211D02*
X019605D01*
X01945Y041056D02*
Y041366D01*
X018295Y041211D02*
X018605D01*
X01845Y041056D02*
Y041366D01*
X017295Y041211D02*
X017605D01*
X01745Y041056D02*
Y041366D01*
X036295Y035211D02*
X036605D01*
X03645Y035056D02*
Y035366D01*
X035295Y035211D02*
X035605D01*
X03545Y035056D02*
Y035366D01*
X034295Y035211D02*
X034605D01*
X03445Y035056D02*
Y035366D01*
X033295Y035211D02*
X033605D01*
X03345Y035056D02*
Y035366D01*
X032295Y035211D02*
X032605D01*
X03245Y035056D02*
Y035366D01*
X031295Y035211D02*
X031605D01*
X03145Y035056D02*
Y035366D01*
X030295Y035211D02*
X030605D01*
X03045Y035056D02*
Y035366D01*
X029295Y035211D02*
X029605D01*
X02945Y035056D02*
Y035366D01*
X028295Y035211D02*
X028605D01*
X02845Y035056D02*
Y035366D01*
X027295Y035211D02*
X027605D01*
X02745Y035056D02*
Y035366D01*
X026295Y035211D02*
X026605D01*
X02645Y035056D02*
Y035366D01*
X025295Y035211D02*
X025605D01*
X02545Y035056D02*
Y035366D01*
X024295Y035211D02*
X024605D01*
X02445Y035056D02*
Y035366D01*
X023295Y035211D02*
X023605D01*
X02345Y035056D02*
Y035366D01*
X022295Y035211D02*
X022605D01*
X02245Y035056D02*
Y035366D01*
X021295Y035211D02*
X021605D01*
X02145Y035056D02*
Y035366D01*
X020295Y035211D02*
X020605D01*
X02045Y035056D02*
Y035366D01*
X019295Y035211D02*
X019605D01*
X01945Y035056D02*
Y035366D01*
X018295Y035211D02*
X018605D01*
X01845Y035056D02*
Y035366D01*
X017295Y035211D02*
X017605D01*
X01745Y035056D02*
Y035366D01*
X047049Y036187D02*
X048333D01*
X047691Y035545D02*
Y036828D01*
X047049Y046025D02*
X048333D01*
X047691Y045384D02*
Y046667D01*
X046917Y043287D02*
X047346D01*
X047132Y043073D02*
Y043502D01*
X048035Y042742D02*
X048465D01*
X04825Y042527D02*
Y042956D01*
X046917Y042197D02*
X047346D01*
X047132Y041982D02*
Y042411D01*
X048035Y041651D02*
X048465D01*
X04825Y041437D02*
Y041866D01*
X046917Y041106D02*
X047346D01*
X047132Y040891D02*
Y041321D01*
X048035Y040561D02*
X048465D01*
X04825Y040346D02*
Y040775D01*
X046917Y040015D02*
X047346D01*
X047132Y039801D02*
Y04023D01*
X048035Y03947D02*
X048465D01*
X04825Y039256D02*
Y039685D01*
X046917Y038925D02*
X047346D01*
X047132Y03871D02*
Y039139D01*
X020423Y028511D02*
X020777D01*
X0206Y028334D02*
Y028688D01*
X019423Y028511D02*
X019777D01*
X0196Y028334D02*
Y028688D01*
X018423Y028511D02*
X018777D01*
X0186Y028334D02*
Y028688D01*
X017423Y028511D02*
X017777D01*
X0176Y028334D02*
Y028688D01*
X016423Y028511D02*
X016777D01*
X0166Y028334D02*
Y028688D01*
X015423Y028511D02*
X015777D01*
X0156Y028334D02*
Y028688D01*
X014423Y028511D02*
X014777D01*
X0146Y028334D02*
Y028688D01*
X013423Y028511D02*
X013777D01*
X0136Y028334D02*
Y028688D01*
X042345Y035911D02*
X042655D01*
X0425Y035756D02*
Y036066D01*
X042345Y036911D02*
X042655D01*
X0425Y036756D02*
Y037066D01*
X042345Y037911D02*
X042655D01*
X0425Y037756D02*
Y038066D01*
X042345Y038911D02*
X042655D01*
X0425Y038756D02*
Y039066D01*
X042345Y039911D02*
X042655D01*
X0425Y039756D02*
Y040066D01*
X042345Y040911D02*
X042655D01*
X0425Y040756D02*
Y041066D01*
X042345Y041911D02*
X042655D01*
X0425Y041756D02*
Y042066D01*
X042345Y042911D02*
X042655D01*
X0425Y042756D02*
Y043066D01*
X039345Y035911D02*
X039655D01*
X0395Y035756D02*
Y036066D01*
X039345Y036911D02*
X039655D01*
X0395Y036756D02*
Y037066D01*
X039345Y037911D02*
X039655D01*
X0395Y037756D02*
Y038066D01*
X039345Y038911D02*
X039655D01*
X0395Y038756D02*
Y039066D01*
X039345Y039911D02*
X039655D01*
X0395Y039756D02*
Y040066D01*
X039345Y040911D02*
X039655D01*
X0395Y040756D02*
Y041066D01*
X039345Y041911D02*
X039655D01*
X0395Y041756D02*
Y042066D01*
X039345Y042911D02*
X039655D01*
X0395Y042756D02*
Y043066D01*
X013823Y047311D02*
X014177D01*
X014Y047134D02*
Y047488D01*
X014823Y047311D02*
X015177D01*
X015Y047134D02*
Y047488D01*
X015823Y047311D02*
X016177D01*
X016Y047134D02*
Y047488D01*
X016823Y047311D02*
X017177D01*
X017Y047134D02*
Y047488D01*
X017823Y047311D02*
X018177D01*
X018Y047134D02*
Y047488D01*
X018823Y047311D02*
X019177D01*
X019Y047134D02*
Y047488D01*
X019823Y047311D02*
X020177D01*
X02Y047134D02*
Y047488D01*
X020823Y047311D02*
X021177D01*
X021Y047134D02*
Y047488D01*
X044648Y038611D02*
X044943D01*
X044795Y038463D02*
Y038758D01*
X044057Y038611D02*
X044352D01*
X044205Y038463D02*
Y038758D01*
X043702Y034606D02*
X043998D01*
X04385Y034458D02*
Y034754D01*
X043702Y034015D02*
X043998D01*
X04385Y033868D02*
Y034163D01*
X035995Y015711D02*
X036305D01*
X03615Y015556D02*
Y015866D01*
X036995Y015711D02*
X037305D01*
X03715Y015556D02*
Y015866D01*
X037995Y015711D02*
X038305D01*
X03815Y015556D02*
Y015866D01*
X038995Y015711D02*
X039305D01*
X03915Y015556D02*
Y015866D01*
X039995Y015711D02*
X040305D01*
X04015Y015556D02*
Y015866D01*
X040995Y015711D02*
X041305D01*
X04115Y015556D02*
Y015866D01*
X035995Y021711D02*
X036305D01*
X03615Y021556D02*
Y021866D01*
X036995Y021711D02*
X037305D01*
X03715Y021556D02*
Y021866D01*
X037995Y021711D02*
X038305D01*
X03815Y021556D02*
Y021866D01*
X038995Y021711D02*
X039305D01*
X03915Y021556D02*
Y021866D01*
X039995Y021711D02*
X040305D01*
X04015Y021556D02*
Y021866D01*
X040995Y021711D02*
X041305D01*
X04115Y021556D02*
Y021866D01*
X044648Y041661D02*
X044943D01*
X044795Y041513D02*
Y041808D01*
X044057Y041661D02*
X044352D01*
X044205Y041513D02*
Y041808D01*
X039952Y034661D02*
X040248D01*
X0401Y034513D02*
Y034808D01*
X039952Y03407D02*
X040248D01*
X0401Y033923D02*
Y034218D01*
X016673Y024461D02*
X017027D01*
X01685Y024284D02*
Y024638D01*
X016673Y025461D02*
X017027D01*
X01685Y025284D02*
Y025638D01*
X016673Y026461D02*
X017027D01*
X01685Y026284D02*
Y026638D01*
X014123Y026461D02*
X014477D01*
X0143Y026284D02*
Y026638D01*
X014123Y025461D02*
X014477D01*
X0143Y025284D02*
Y025638D01*
X014123Y024461D02*
X014477D01*
X0143Y024284D02*
Y024638D01*
X028695Y013261D02*
X029005D01*
X02885Y013106D02*
Y013416D01*
X031195Y011261D02*
X031505D01*
X03135Y011106D02*
Y011416D01*
X031195Y013261D02*
X031505D01*
X03135Y013106D02*
Y013416D01*
X028695Y011261D02*
X029005D01*
X02885Y011106D02*
Y011416D01*
X01358Y036061D02*
X01392D01*
X01375Y035891D02*
Y036231D01*
X01358Y038061D02*
X01392D01*
X01375Y037891D02*
Y038231D01*
X039045Y013311D02*
X039355D01*
X0392Y013156D02*
Y013466D01*
X041545Y011311D02*
X041855D01*
X0417Y011156D02*
Y011466D01*
X041545Y013311D02*
X041855D01*
X0417Y013156D02*
Y013466D01*
X039045Y011311D02*
X039355D01*
X0392Y011156D02*
Y011466D01*
X033895Y013261D02*
X034205D01*
X03405Y013106D02*
Y013416D01*
X036395Y011261D02*
X036705D01*
X03655Y011106D02*
Y011416D01*
X036395Y013261D02*
X036705D01*
X03655Y013106D02*
Y013416D01*
X033895Y011261D02*
X034205D01*
X03405Y011106D02*
Y011416D01*
X044645Y013111D02*
X044955D01*
X0448Y012956D02*
Y013266D01*
X047145Y011111D02*
X047455D01*
X0473Y010956D02*
Y011266D01*
X047145Y013111D02*
X047455D01*
X0473Y012956D02*
Y013266D01*
X044645Y011111D02*
X044955D01*
X0448Y010956D02*
Y011266D01*
X02641Y0463D02*
X02669D01*
X02655Y04616D02*
Y04644D01*
X02636Y04535D02*
X02664D01*
X0265Y04521D02*
Y04549D01*
X02856Y0429D02*
X02884D01*
X0287Y04276D02*
Y04304D01*
X03061Y04265D02*
X03089D01*
X03075Y04251D02*
Y04279D01*
X02916Y037061D02*
X02944D01*
X0293Y036921D02*
Y037201D01*
X03166Y027711D02*
X03194D01*
X0318Y027571D02*
Y027851D01*
X03091Y039961D02*
X03119D01*
X03105Y039821D02*
Y040101D01*
X03156Y039111D02*
X03184D01*
X0317Y038971D02*
Y039251D01*
X01286Y018761D02*
X01314D01*
X013Y018621D02*
Y018901D01*
X01611Y040661D02*
X01639D01*
X01625Y040521D02*
Y040801D01*
X03846Y024611D02*
X03874D01*
X0386Y024471D02*
Y024751D01*
X03936Y033261D02*
X03964D01*
X0395Y033121D02*
Y033401D01*
X03726Y034411D02*
X03754D01*
X0374Y034271D02*
Y034551D01*
X03866Y033661D02*
X03894D01*
X0388Y033521D02*
Y033801D01*
X03751Y025661D02*
X03779D01*
X03765Y025521D02*
Y025801D01*
X01976Y039961D02*
X02004D01*
X0199Y039821D02*
Y040101D01*
X02806Y037161D02*
X02834D01*
X0282Y037021D02*
Y037301D01*
X01681Y038161D02*
X01709D01*
X01695Y038021D02*
Y038301D01*
X01726Y036811D02*
X01754D01*
X0174Y036671D02*
Y036951D01*
X02351Y039761D02*
X02379D01*
X02365Y039621D02*
Y039901D01*
X03186Y040061D02*
X03214D01*
X032Y039921D02*
Y040201D01*
X03726Y043861D02*
X03754D01*
X0374Y043721D02*
Y044001D01*
X04536Y036711D02*
X04564D01*
X0455Y036571D02*
Y036851D01*
X04066Y044611D02*
X04094D01*
X0408Y044471D02*
Y044751D01*
X02706Y042161D02*
X02734D01*
X0272Y042021D02*
Y042301D01*
X03681Y014561D02*
X03709D01*
X03695Y014421D02*
Y014701D01*
M02*
