G04 Layer_Color=2752767*
%FSTAX24Y24*%
%MOIN*%
G70*
G01*
G75*
%ADD101C,0.0020*%
%ADD102C,0.0027*%
%ADD103C,0.0013*%
D101*
X04347Y02507D02*
Y02523D01*
X04363D01*
Y02507D01*
X04347D01*
X04247D02*
Y02523D01*
X04263D01*
Y02507D01*
X04247D01*
X0134Y039981D02*
X01332Y040141D01*
X01348D01*
X0134Y039981D01*
X0144D02*
X01432Y040141D01*
X01448D01*
X0144Y039981D01*
X01445Y033831D02*
X01437Y033991D01*
X01453D01*
X01445Y033831D01*
X01545D02*
X01537Y033991D01*
X01553D01*
X01545Y033831D01*
X02275Y025231D02*
X02279Y025271D01*
X02283D01*
X02279Y025311D01*
X02283Y025351D01*
X02279D01*
X02275Y025391D01*
X02271Y025351D01*
X02267D01*
X02271Y025311D01*
X02267Y025271D01*
X02271D01*
X02275Y025231D01*
Y026231D02*
X02279Y026271D01*
X02283D01*
X02279Y026311D01*
X02283Y026351D01*
X02279D01*
X02275Y026391D01*
X02271Y026351D01*
X02267D01*
X02271Y026311D01*
X02267Y026271D01*
X02271D01*
X02275Y026231D01*
X024187Y025231D02*
X024227Y025271D01*
X024267D01*
X024227Y025311D01*
X024267Y025351D01*
X024227D01*
X024187Y025391D01*
X024147Y025351D01*
X024107D01*
X024147Y025311D01*
X024107Y025271D01*
X024147D01*
X024187Y025231D01*
Y026231D02*
X024227Y026271D01*
X024267D01*
X024227Y026311D01*
X024267Y026351D01*
X024227D01*
X024187Y026391D01*
X024147Y026351D01*
X024107D01*
X024147Y026311D01*
X024107Y026271D01*
X024147D01*
X024187Y026231D01*
X025437Y025231D02*
X025477Y025271D01*
X025517D01*
X025477Y025311D01*
X025517Y025351D01*
X025477D01*
X025437Y025391D01*
X025397Y025351D01*
X025357D01*
X025397Y025311D01*
X025357Y025271D01*
X025397D01*
X025437Y025231D01*
Y026231D02*
X025477Y026271D01*
X025517D01*
X025477Y026311D01*
X025517Y026351D01*
X025477D01*
X025437Y026391D01*
X025397Y026351D01*
X025357D01*
X025397Y026311D01*
X025357Y026271D01*
X025397D01*
X025437Y026231D01*
X02675Y025231D02*
X02679Y025271D01*
X02683D01*
X02679Y025311D01*
X02683Y025351D01*
X02679D01*
X02675Y025391D01*
X02671Y025351D01*
X02667D01*
X02671Y025311D01*
X02667Y025271D01*
X02671D01*
X02675Y025231D01*
Y026231D02*
X02679Y026271D01*
X02683D01*
X02679Y026311D01*
X02683Y026351D01*
X02679D01*
X02675Y026391D01*
X02671Y026351D01*
X02667D01*
X02671Y026311D01*
X02667Y026271D01*
X02671D01*
X02675Y026231D01*
X028137Y025181D02*
X028177Y025221D01*
X028217D01*
X028177Y025261D01*
X028217Y025301D01*
X028177D01*
X028137Y025341D01*
X028097Y025301D01*
X028057D01*
X028097Y025261D01*
X028057Y025221D01*
X028097D01*
X028137Y025181D01*
Y026181D02*
X028177Y026221D01*
X028217D01*
X028177Y026261D01*
X028217Y026301D01*
X028177D01*
X028137Y026341D01*
X028097Y026301D01*
X028057D01*
X028097Y026261D01*
X028057Y026221D01*
X028097D01*
X028137Y026181D01*
X029587Y025281D02*
X029627Y025321D01*
X029667D01*
X029627Y025361D01*
X029667Y025401D01*
X029627D01*
X029587Y025441D01*
X029547Y025401D01*
X029507D01*
X029547Y025361D01*
X029507Y025321D01*
X029547D01*
X029587Y025281D01*
Y026281D02*
X029627Y026321D01*
X029667D01*
X029627Y026361D01*
X029667Y026401D01*
X029627D01*
X029587Y026441D01*
X029547Y026401D01*
X029507D01*
X029547Y026361D01*
X029507Y026321D01*
X029547D01*
X029587Y026281D01*
X030837Y025281D02*
X030877Y025321D01*
X030917D01*
X030877Y025361D01*
X030917Y025401D01*
X030877D01*
X030837Y025441D01*
X030797Y025401D01*
X030757D01*
X030797Y025361D01*
X030757Y025321D01*
X030797D01*
X030837Y025281D01*
Y026281D02*
X030877Y026321D01*
X030917D01*
X030877Y026361D01*
X030917Y026401D01*
X030877D01*
X030837Y026441D01*
X030797Y026401D01*
X030757D01*
X030797Y026361D01*
X030757Y026321D01*
X030797D01*
X030837Y026281D01*
X03215Y025231D02*
X03219Y025271D01*
X03223D01*
X03219Y025311D01*
X03223Y025351D01*
X03219D01*
X03215Y025391D01*
X03211Y025351D01*
X03207D01*
X03211Y025311D01*
X03207Y025271D01*
X03211D01*
X03215Y025231D01*
Y026231D02*
X03219Y026271D01*
X03223D01*
X03219Y026311D01*
X03223Y026351D01*
X03219D01*
X03215Y026391D01*
X03211Y026351D01*
X03207D01*
X03211Y026311D01*
X03207Y026271D01*
X03211D01*
X03215Y026231D01*
X043829Y031421D02*
X043869Y031501D01*
X043829Y031581D01*
X043909Y031541D01*
X043989Y031581D01*
X043949Y031501D01*
X043989Y031421D01*
X043909Y031461D01*
X043829Y031421D01*
X031447Y044D02*
Y04396D01*
X031527D01*
Y044D01*
X031567D01*
Y04408D01*
X031527D01*
Y04412D01*
X031447D01*
Y04408D01*
X031407D01*
Y044D01*
X031447D01*
X030447D02*
Y04396D01*
X030527D01*
Y044D01*
X030567D01*
Y04408D01*
X030527D01*
Y04412D01*
X030447D01*
Y04408D01*
X030407D01*
Y044D01*
X030447D01*
X029447D02*
Y04396D01*
X029527D01*
Y044D01*
X029567D01*
Y04408D01*
X029527D01*
Y04412D01*
X029447D01*
Y04408D01*
X029407D01*
Y044D01*
X029447D01*
X028447D02*
Y04396D01*
X028527D01*
Y044D01*
X028567D01*
Y04408D01*
X028527D01*
Y04412D01*
X028447D01*
Y04408D01*
X028407D01*
Y044D01*
X028447D01*
X027447D02*
Y04396D01*
X027527D01*
Y044D01*
X027567D01*
Y04408D01*
X027527D01*
Y04412D01*
X027447D01*
Y04408D01*
X027407D01*
Y044D01*
X027447D01*
X026447D02*
Y04396D01*
X026527D01*
Y044D01*
X026567D01*
Y04408D01*
X026527D01*
Y04412D01*
X026447D01*
Y04408D01*
X026407D01*
Y044D01*
X026447D01*
X025447D02*
Y04396D01*
X025527D01*
Y044D01*
X025567D01*
Y04408D01*
X025527D01*
Y04412D01*
X025447D01*
Y04408D01*
X025407D01*
Y044D01*
X025447D01*
X024447D02*
Y04396D01*
X024527D01*
Y044D01*
X024567D01*
Y04408D01*
X024527D01*
Y04412D01*
X024447D01*
Y04408D01*
X024407D01*
Y044D01*
X024447D01*
X023447D02*
Y04396D01*
X023527D01*
Y044D01*
X023567D01*
Y04408D01*
X023527D01*
Y04412D01*
X023447D01*
Y04408D01*
X023407D01*
Y044D01*
X023447D01*
X022447D02*
Y04396D01*
X022527D01*
Y044D01*
X022567D01*
Y04408D01*
X022527D01*
Y04412D01*
X022447D01*
Y04408D01*
X022407D01*
Y044D01*
X022447D01*
X021447D02*
Y04396D01*
X021527D01*
Y044D01*
X021567D01*
Y04408D01*
X021527D01*
Y04412D01*
X021447D01*
Y04408D01*
X021407D01*
Y044D01*
X021447D01*
X020447D02*
Y04396D01*
X020527D01*
Y044D01*
X020567D01*
Y04408D01*
X020527D01*
Y04412D01*
X020447D01*
Y04408D01*
X020407D01*
Y044D01*
X020447D01*
X019447D02*
Y04396D01*
X019527D01*
Y044D01*
X019567D01*
Y04408D01*
X019527D01*
Y04412D01*
X019447D01*
Y04408D01*
X019407D01*
Y044D01*
X019447D01*
X018447D02*
Y04396D01*
X018527D01*
Y044D01*
X018567D01*
Y04408D01*
X018527D01*
Y04412D01*
X018447D01*
Y04408D01*
X018407D01*
Y044D01*
X018447D01*
X017447D02*
Y04396D01*
X017527D01*
Y044D01*
X017567D01*
Y04408D01*
X017527D01*
Y04412D01*
X017447D01*
Y04408D01*
X017407D01*
Y044D01*
X017447D01*
X016447D02*
Y04396D01*
X016527D01*
Y044D01*
X016567D01*
Y04408D01*
X016527D01*
Y04412D01*
X016447D01*
Y04408D01*
X016407D01*
Y044D01*
X016447D01*
X01437Y043645D02*
X01441Y043725D01*
X01437Y043805D01*
X01445Y043765D01*
X01453Y043805D01*
X01449Y043725D01*
X01453Y043645D01*
X01445Y043685D01*
X01437Y043645D01*
X01437Y031431D02*
X01441Y031511D01*
X01437Y031591D01*
X01445Y031551D01*
X01453Y031591D01*
X01449Y031511D01*
X01453Y031431D01*
X01445Y031471D01*
X01437Y031431D01*
X043829Y043626D02*
X043869Y043706D01*
X043829Y043786D01*
X043909Y043746D01*
X043989Y043786D01*
X043949Y043706D01*
X043989Y043626D01*
X043909Y043666D01*
X043829Y043626D01*
X0342Y046831D02*
X03412Y046991D01*
X03428D01*
X0342Y046831D01*
Y043331D02*
X03412Y043491D01*
X03428D01*
X0342Y043331D01*
X01937Y024381D02*
Y024541D01*
X01953D01*
Y024381D01*
X01937D01*
Y025381D02*
Y025541D01*
X01953D01*
Y025381D01*
X01937D01*
Y026381D02*
Y026541D01*
X01953D01*
Y026381D01*
X01937D01*
X0269Y014531D02*
X02682Y014691D01*
X02698D01*
X0269Y014531D01*
Y015531D02*
X02682Y015691D01*
X02698D01*
X0269Y015531D01*
X02695Y012781D02*
X02687Y012941D01*
X02703D01*
X02695Y012781D01*
Y011781D02*
X02687Y011941D01*
X02703D01*
X02695Y011781D01*
X025261Y016531D02*
X025301D01*
X025341Y016571D01*
X025381Y016531D01*
X025421D01*
Y016571D01*
X025381Y016611D01*
X025421Y016651D01*
Y016691D01*
X025381D01*
X025341Y016651D01*
X025301Y016691D01*
X025261D01*
Y016651D01*
X025301Y016611D01*
X025261Y016571D01*
Y016531D01*
X02467D02*
X02471D01*
X02475Y016571D01*
X02479Y016531D01*
X02483D01*
Y016571D01*
X02479Y016611D01*
X02483Y016651D01*
Y016691D01*
X02479D01*
X02475Y016651D01*
X02471Y016691D01*
X02467D01*
Y016651D01*
X02471Y016611D01*
X02467Y016571D01*
Y016531D01*
X04535Y023231D02*
X04527Y023391D01*
X04543D01*
X04535Y023231D01*
X04635D02*
X04627Y023391D01*
X04643D01*
X04635Y023231D01*
X04735D02*
X04727Y023391D01*
X04743D01*
X04735Y023231D01*
X04835D02*
X04827Y023391D01*
X04843D01*
X04835Y023231D01*
X04535Y026231D02*
X04527Y026391D01*
X04543D01*
X04535Y026231D01*
X04635D02*
X04627Y026391D01*
X04643D01*
X04635Y026231D01*
X04735D02*
X04727Y026391D01*
X04743D01*
X04735Y026231D01*
X04835D02*
X04827Y026391D01*
X04843D01*
X04835Y026231D01*
X01357Y022961D02*
X01365Y023041D01*
X01373Y022961D01*
X01365Y022881D01*
X01357Y022961D01*
X01457D02*
X01465Y023041D01*
X01473Y022961D01*
X01465Y022881D01*
X01457Y022961D01*
X01557D02*
X01565Y023041D01*
X01573Y022961D01*
X01565Y022881D01*
X01557Y022961D01*
Y020461D02*
X01565Y020541D01*
X01573Y020461D01*
X01565Y020381D01*
X01557Y020461D01*
X01457D02*
X01465Y020541D01*
X01473Y020461D01*
X01465Y020381D01*
X01457Y020461D01*
X01357D02*
X01365Y020541D01*
X01373Y020461D01*
X01365Y020381D01*
X01357Y020461D01*
X02086Y013971D02*
Y013931D01*
X02094D01*
Y013971D01*
X02098D01*
Y014051D01*
X02094D01*
Y014091D01*
X02086D01*
Y014051D01*
X02082D01*
Y013971D01*
X02086D01*
X02186D02*
Y013931D01*
X02194D01*
Y013971D01*
X02198D01*
Y014051D01*
X02194D01*
Y014091D01*
X02186D01*
Y014051D01*
X02182D01*
Y013971D01*
X02186D01*
X02286D02*
Y013931D01*
X02294D01*
Y013971D01*
X02298D01*
Y014051D01*
X02294D01*
Y014091D01*
X02286D01*
Y014051D01*
X02282D01*
Y013971D01*
X02286D01*
X02182Y011931D02*
Y012091D01*
X02198D01*
Y011931D01*
X02182D01*
X02186Y011971D02*
Y012051D01*
X02194D01*
Y011971D01*
X02186D01*
X01392Y018211D02*
X014Y018291D01*
X01408Y018211D01*
X014Y018131D01*
X01392Y018211D01*
X01742D02*
X0175Y018291D01*
X01758Y018211D01*
X0175Y018131D01*
X01742Y018211D01*
X03375Y027831D02*
X03367Y027991D01*
X03383D01*
X03375Y027831D01*
Y027871D02*
X03371Y027951D01*
X03379D01*
X03375Y027871D01*
X04175Y027831D02*
X04167Y027991D01*
X04183D01*
X04175Y027831D01*
Y027871D02*
X04171Y027951D01*
X04179D01*
X04175Y027871D01*
X04617Y033411D02*
X04625Y033491D01*
X04633Y033411D01*
X04625Y033331D01*
X04617Y033411D01*
X04817Y032411D02*
X04825Y032491D01*
X04833Y032411D01*
X04825Y032331D01*
X04817Y032411D01*
X04617Y031411D02*
X04625Y031491D01*
X04633Y031411D01*
X04625Y031331D01*
X04617Y031411D01*
X01825Y022681D02*
X01817Y022841D01*
X01833D01*
X01825Y022681D01*
X02125D02*
X02117Y022841D01*
X02133D01*
X02125Y022681D01*
X01837Y020826D02*
X01841D01*
X01845Y020866D01*
X01849Y020826D01*
X01853D01*
Y020866D01*
X01849Y020906D01*
X01853Y020946D01*
Y020986D01*
X01849D01*
X01845Y020946D01*
X01841Y020986D01*
X01837D01*
Y020946D01*
X01841Y020906D01*
X01837Y020866D01*
Y020826D01*
Y020235D02*
X01841D01*
X01845Y020275D01*
X01849Y020235D01*
X01853D01*
Y020275D01*
X01849Y020315D01*
X01853Y020355D01*
Y020395D01*
X01849D01*
X01845Y020355D01*
X01841Y020395D01*
X01837D01*
Y020355D01*
X01841Y020315D01*
X01837Y020275D01*
Y020235D01*
X0442Y027781D02*
X04412Y027941D01*
X04428D01*
X0442Y027781D01*
X0477D02*
X04762Y027941D01*
X04778D01*
X0477Y027781D01*
X04405Y029431D02*
X04397Y029591D01*
X04413D01*
X04405Y029431D01*
X04755D02*
X04747Y029591D01*
X04763D01*
X04755Y029431D01*
X01915Y016581D02*
X01907Y016741D01*
X01923D01*
X01915Y016581D01*
X02265D02*
X02257Y016741D01*
X02273D01*
X02265Y016581D01*
X0238Y023681D02*
X02372Y023841D01*
X02388D01*
X0238Y023681D01*
X0263Y021681D02*
X02622Y021841D01*
X02638D01*
X0263Y021681D01*
Y023681D02*
X02622Y023841D01*
X02638D01*
X0263Y023681D01*
X0238Y021681D02*
X02372Y021841D01*
X02388D01*
X0238Y021681D01*
X03592Y047111D02*
X036Y047191D01*
X03608Y047111D01*
X036Y047031D01*
X03592Y047111D01*
Y043111D02*
X036Y043191D01*
X03608Y043111D01*
X036Y043031D01*
X03592Y043111D01*
X03925Y047181D02*
X03929Y047221D01*
X03933D01*
X03929Y047261D01*
X03933Y047301D01*
X03929D01*
X03925Y047341D01*
X03921Y047301D01*
X03917D01*
X03921Y047261D01*
X03917Y047221D01*
X03921D01*
X03925Y047181D01*
Y047221D02*
X03927Y047241D01*
X03929D01*
X03927Y047261D01*
X03929Y047281D01*
X03927D01*
X03925Y047301D01*
X03923Y047281D01*
X03921D01*
X03923Y047261D01*
X03921Y047241D01*
X03923D01*
X03925Y047221D01*
X04025Y047181D02*
X04029Y047221D01*
X04033D01*
X04029Y047261D01*
X04033Y047301D01*
X04029D01*
X04025Y047341D01*
X04021Y047301D01*
X04017D01*
X04021Y047261D01*
X04017Y047221D01*
X04021D01*
X04025Y047181D01*
Y047221D02*
X04027Y047241D01*
X04029D01*
X04027Y047261D01*
X04029Y047281D01*
X04027D01*
X04025Y047301D01*
X04023Y047281D01*
X04021D01*
X04023Y047261D01*
X04021Y047241D01*
X04023D01*
X04025Y047221D01*
X04125Y047181D02*
X04129Y047221D01*
X04133D01*
X04129Y047261D01*
X04133Y047301D01*
X04129D01*
X04125Y047341D01*
X04121Y047301D01*
X04117D01*
X04121Y047261D01*
X04117Y047221D01*
X04121D01*
X04125Y047181D01*
Y047221D02*
X04127Y047241D01*
X04129D01*
X04127Y047261D01*
X04129Y047281D01*
X04127D01*
X04125Y047301D01*
X04123Y047281D01*
X04121D01*
X04123Y047261D01*
X04121Y047241D01*
X04123D01*
X04125Y047221D01*
X04225Y047181D02*
X04229Y047221D01*
X04233D01*
X04229Y047261D01*
X04233Y047301D01*
X04229D01*
X04225Y047341D01*
X04221Y047301D01*
X04217D01*
X04221Y047261D01*
X04217Y047221D01*
X04221D01*
X04225Y047181D01*
Y047221D02*
X04227Y047241D01*
X04229D01*
X04227Y047261D01*
X04229Y047281D01*
X04227D01*
X04225Y047301D01*
X04223Y047281D01*
X04221D01*
X04223Y047261D01*
X04221Y047241D01*
X04223D01*
X04225Y047221D01*
X04325Y047181D02*
X04329Y047221D01*
X04333D01*
X04329Y047261D01*
X04333Y047301D01*
X04329D01*
X04325Y047341D01*
X04321Y047301D01*
X04317D01*
X04321Y047261D01*
X04317Y047221D01*
X04321D01*
X04325Y047181D01*
Y047221D02*
X04327Y047241D01*
X04329D01*
X04327Y047261D01*
X04329Y047281D01*
X04327D01*
X04325Y047301D01*
X04323Y047281D01*
X04321D01*
X04323Y047261D01*
X04321Y047241D01*
X04323D01*
X04325Y047221D01*
Y046181D02*
X04329Y046221D01*
X04333D01*
X04329Y046261D01*
X04333Y046301D01*
X04329D01*
X04325Y046341D01*
X04321Y046301D01*
X04317D01*
X04321Y046261D01*
X04317Y046221D01*
X04321D01*
X04325Y046181D01*
Y046221D02*
X04327Y046241D01*
X04329D01*
X04327Y046261D01*
X04329Y046281D01*
X04327D01*
X04325Y046301D01*
X04323Y046281D01*
X04321D01*
X04323Y046261D01*
X04321Y046241D01*
X04323D01*
X04325Y046221D01*
X04225Y046181D02*
X04229Y046221D01*
X04233D01*
X04229Y046261D01*
X04233Y046301D01*
X04229D01*
X04225Y046341D01*
X04221Y046301D01*
X04217D01*
X04221Y046261D01*
X04217Y046221D01*
X04221D01*
X04225Y046181D01*
Y046221D02*
X04227Y046241D01*
X04229D01*
X04227Y046261D01*
X04229Y046281D01*
X04227D01*
X04225Y046301D01*
X04223Y046281D01*
X04221D01*
X04223Y046261D01*
X04221Y046241D01*
X04223D01*
X04225Y046221D01*
X04125Y046181D02*
X04129Y046221D01*
X04133D01*
X04129Y046261D01*
X04133Y046301D01*
X04129D01*
X04125Y046341D01*
X04121Y046301D01*
X04117D01*
X04121Y046261D01*
X04117Y046221D01*
X04121D01*
X04125Y046181D01*
Y046221D02*
X04127Y046241D01*
X04129D01*
X04127Y046261D01*
X04129Y046281D01*
X04127D01*
X04125Y046301D01*
X04123Y046281D01*
X04121D01*
X04123Y046261D01*
X04121Y046241D01*
X04123D01*
X04125Y046221D01*
X04025Y046181D02*
X04029Y046221D01*
X04033D01*
X04029Y046261D01*
X04033Y046301D01*
X04029D01*
X04025Y046341D01*
X04021Y046301D01*
X04017D01*
X04021Y046261D01*
X04017Y046221D01*
X04021D01*
X04025Y046181D01*
Y046221D02*
X04027Y046241D01*
X04029D01*
X04027Y046261D01*
X04029Y046281D01*
X04027D01*
X04025Y046301D01*
X04023Y046281D01*
X04021D01*
X04023Y046261D01*
X04021Y046241D01*
X04023D01*
X04025Y046221D01*
X03925Y046181D02*
X03929Y046221D01*
X03933D01*
X03929Y046261D01*
X03933Y046301D01*
X03929D01*
X03925Y046341D01*
X03921Y046301D01*
X03917D01*
X03921Y046261D01*
X03917Y046221D01*
X03921D01*
X03925Y046181D01*
Y046221D02*
X03927Y046241D01*
X03929D01*
X03927Y046261D01*
X03929Y046281D01*
X03927D01*
X03925Y046301D01*
X03923Y046281D01*
X03921D01*
X03923Y046261D01*
X03921Y046241D01*
X03923D01*
X03925Y046221D01*
X0474Y020431D02*
X04732Y020591D01*
X04748D01*
X0474Y020431D01*
Y016931D02*
X04732Y017091D01*
X04748D01*
X0474Y016931D01*
X04255Y020281D02*
X04247Y020441D01*
X04263D01*
X04255Y020281D01*
Y016781D02*
X04247Y016941D01*
X04263D01*
X04255Y016781D01*
X0377D02*
X03762Y016941D01*
X03778D01*
X0377Y016781D01*
Y020281D02*
X03762Y020441D01*
X03778D01*
X0377Y020281D01*
X0329Y016881D02*
X03282Y017041D01*
X03298D01*
X0329Y016881D01*
Y020381D02*
X03282Y020541D01*
X03298D01*
X0329Y020381D01*
X02422Y047181D02*
Y047341D01*
X02438D01*
Y047181D01*
X02422D01*
X02522D02*
Y047341D01*
X02538D01*
Y047181D01*
X02522D01*
X02622D02*
Y047341D01*
X02638D01*
Y047181D01*
X02622D01*
X02722D02*
Y047341D01*
X02738D01*
Y047181D01*
X02722D01*
X02822D02*
Y047341D01*
X02838D01*
Y047181D01*
X02822D01*
X02922D02*
Y047341D01*
X02938D01*
Y047181D01*
X02922D01*
X03022D02*
Y047341D01*
X03038D01*
Y047181D01*
X03022D01*
X03122D02*
Y047341D01*
X03138D01*
Y047181D01*
X03122D01*
X04387Y019831D02*
Y019991D01*
X04403D01*
Y019831D01*
X04387D01*
X04487D02*
Y019991D01*
X04503D01*
Y019831D01*
X04487D01*
X04587D02*
Y019991D01*
X04603D01*
Y019831D01*
X04587D01*
X03892D02*
Y019991D01*
X03908D01*
Y019831D01*
X03892D01*
X03992D02*
Y019991D01*
X04008D01*
Y019831D01*
X03992D01*
X04092D02*
Y019991D01*
X04108D01*
Y019831D01*
X04092D01*
X03422D02*
Y019991D01*
X03438D01*
Y019831D01*
X03422D01*
X03522D02*
Y019991D01*
X03538D01*
Y019831D01*
X03522D01*
X03622D02*
Y019991D01*
X03638D01*
Y019831D01*
X03622D01*
X02927Y019781D02*
Y019941D01*
X02943D01*
Y019781D01*
X02927D01*
X03027D02*
Y019941D01*
X03043D01*
Y019781D01*
X03027D01*
X03127D02*
Y019941D01*
X03143D01*
Y019781D01*
X03127D01*
X03022Y028331D02*
Y028491D01*
X03038D01*
Y028331D01*
X03022D01*
X02922D02*
Y028491D01*
X02938D01*
Y028331D01*
X02922D01*
X02822D02*
Y028491D01*
X02838D01*
Y028331D01*
X02822D01*
X02722D02*
Y028491D01*
X02738D01*
Y028331D01*
X02722D01*
X02622D02*
Y028491D01*
X02638D01*
Y028331D01*
X02622D01*
X02522D02*
Y028491D01*
X02538D01*
Y028331D01*
X02522D01*
X02422D02*
Y028491D01*
X02438D01*
Y028331D01*
X02422D01*
X02322D02*
Y028491D01*
X02338D01*
Y028331D01*
X02322D01*
X03645Y041131D02*
X03637Y041291D01*
X03653D01*
X03645Y041131D01*
X03545D02*
X03537Y041291D01*
X03553D01*
X03545Y041131D01*
X03445D02*
X03437Y041291D01*
X03453D01*
X03445Y041131D01*
X03345D02*
X03337Y041291D01*
X03353D01*
X03345Y041131D01*
X03245D02*
X03237Y041291D01*
X03253D01*
X03245Y041131D01*
X03145D02*
X03137Y041291D01*
X03153D01*
X03145Y041131D01*
X03045D02*
X03037Y041291D01*
X03053D01*
X03045Y041131D01*
X02945D02*
X02937Y041291D01*
X02953D01*
X02945Y041131D01*
X02845D02*
X02837Y041291D01*
X02853D01*
X02845Y041131D01*
X02745D02*
X02737Y041291D01*
X02753D01*
X02745Y041131D01*
X02645D02*
X02637Y041291D01*
X02653D01*
X02645Y041131D01*
X02545D02*
X02537Y041291D01*
X02553D01*
X02545Y041131D01*
X02445D02*
X02437Y041291D01*
X02453D01*
X02445Y041131D01*
X02345D02*
X02337Y041291D01*
X02353D01*
X02345Y041131D01*
X02245D02*
X02237Y041291D01*
X02253D01*
X02245Y041131D01*
X02145D02*
X02137Y041291D01*
X02153D01*
X02145Y041131D01*
X02045D02*
X02037Y041291D01*
X02053D01*
X02045Y041131D01*
X01945D02*
X01937Y041291D01*
X01953D01*
X01945Y041131D01*
X01845D02*
X01837Y041291D01*
X01853D01*
X01845Y041131D01*
X01745D02*
X01737Y041291D01*
X01753D01*
X01745Y041131D01*
X03645Y035131D02*
X03637Y035291D01*
X03653D01*
X03645Y035131D01*
X03545D02*
X03537Y035291D01*
X03553D01*
X03545Y035131D01*
X03445D02*
X03437Y035291D01*
X03453D01*
X03445Y035131D01*
X03345D02*
X03337Y035291D01*
X03353D01*
X03345Y035131D01*
X03245D02*
X03237Y035291D01*
X03253D01*
X03245Y035131D01*
X03145D02*
X03137Y035291D01*
X03153D01*
X03145Y035131D01*
X03045D02*
X03037Y035291D01*
X03053D01*
X03045Y035131D01*
X02945D02*
X02937Y035291D01*
X02953D01*
X02945Y035131D01*
X02845D02*
X02837Y035291D01*
X02853D01*
X02845Y035131D01*
X02745D02*
X02737Y035291D01*
X02753D01*
X02745Y035131D01*
X02645D02*
X02637Y035291D01*
X02653D01*
X02645Y035131D01*
X02545D02*
X02537Y035291D01*
X02553D01*
X02545Y035131D01*
X02445D02*
X02437Y035291D01*
X02453D01*
X02445Y035131D01*
X02345D02*
X02337Y035291D01*
X02353D01*
X02345Y035131D01*
X02245D02*
X02237Y035291D01*
X02253D01*
X02245Y035131D01*
X02145D02*
X02137Y035291D01*
X02153D01*
X02145Y035131D01*
X02045D02*
X02037Y035291D01*
X02053D01*
X02045Y035131D01*
X01945D02*
X01937Y035291D01*
X01953D01*
X01945Y035131D01*
X01845D02*
X01837Y035291D01*
X01853D01*
X01845Y035131D01*
X01745D02*
X01737Y035291D01*
X01753D01*
X01745Y035131D01*
X047611Y036107D02*
X047651Y036187D01*
X047611Y036267D01*
X047691Y036227D01*
X047771Y036267D01*
X047731Y036187D01*
X047771Y036107D01*
X047691Y036147D01*
X047611Y036107D01*
X047651Y036147D02*
X047671Y036187D01*
X047651Y036227D01*
X047691Y036207D01*
X047731Y036227D01*
X047711Y036187D01*
X047731Y036147D01*
X047691Y036167D01*
X047651Y036147D01*
X047611Y045945D02*
X047651Y046025D01*
X047611Y046105D01*
X047691Y046065D01*
X047771Y046105D01*
X047731Y046025D01*
X047771Y045945D01*
X047691Y045985D01*
X047611Y045945D01*
X047651Y045985D02*
X047671Y046025D01*
X047651Y046065D01*
X047691Y046045D01*
X047731Y046065D01*
X047711Y046025D01*
X047731Y045985D01*
X047691Y046005D01*
X047651Y045985D01*
X047092Y043247D02*
Y043207D01*
X047172D01*
Y043247D01*
X047212D01*
Y043327D01*
X047172D01*
Y043367D01*
X047092D01*
Y043327D01*
X047052D01*
Y043247D01*
X047092D01*
X047112Y043267D02*
Y043247D01*
X047152D01*
Y043267D01*
X047172D01*
Y043307D01*
X047152D01*
Y043327D01*
X047112D01*
Y043307D01*
X047092D01*
Y043267D01*
X047112D01*
X04821Y042702D02*
Y042662D01*
X04829D01*
Y042702D01*
X04833D01*
Y042782D01*
X04829D01*
Y042822D01*
X04821D01*
Y042782D01*
X04817D01*
Y042702D01*
X04821D01*
X04823Y042722D02*
Y042702D01*
X04827D01*
Y042722D01*
X04829D01*
Y042762D01*
X04827D01*
Y042782D01*
X04823D01*
Y042762D01*
X04821D01*
Y042722D01*
X04823D01*
X047092Y042157D02*
Y042117D01*
X047172D01*
Y042157D01*
X047212D01*
Y042237D01*
X047172D01*
Y042277D01*
X047092D01*
Y042237D01*
X047052D01*
Y042157D01*
X047092D01*
X047112Y042177D02*
Y042157D01*
X047152D01*
Y042177D01*
X047172D01*
Y042217D01*
X047152D01*
Y042237D01*
X047112D01*
Y042217D01*
X047092D01*
Y042177D01*
X047112D01*
X04821Y041611D02*
Y041571D01*
X04829D01*
Y041611D01*
X04833D01*
Y041691D01*
X04829D01*
Y041731D01*
X04821D01*
Y041691D01*
X04817D01*
Y041611D01*
X04821D01*
X04823Y041631D02*
Y041611D01*
X04827D01*
Y041631D01*
X04829D01*
Y041671D01*
X04827D01*
Y041691D01*
X04823D01*
Y041671D01*
X04821D01*
Y041631D01*
X04823D01*
X047092Y041066D02*
Y041026D01*
X047172D01*
Y041066D01*
X047212D01*
Y041146D01*
X047172D01*
Y041186D01*
X047092D01*
Y041146D01*
X047052D01*
Y041066D01*
X047092D01*
X047112Y041086D02*
Y041066D01*
X047152D01*
Y041086D01*
X047172D01*
Y041126D01*
X047152D01*
Y041146D01*
X047112D01*
Y041126D01*
X047092D01*
Y041086D01*
X047112D01*
X04821Y040521D02*
Y040481D01*
X04829D01*
Y040521D01*
X04833D01*
Y040601D01*
X04829D01*
Y040641D01*
X04821D01*
Y040601D01*
X04817D01*
Y040521D01*
X04821D01*
X04823Y040541D02*
Y040521D01*
X04827D01*
Y040541D01*
X04829D01*
Y040581D01*
X04827D01*
Y040601D01*
X04823D01*
Y040581D01*
X04821D01*
Y040541D01*
X04823D01*
X047092Y039975D02*
Y039935D01*
X047172D01*
Y039975D01*
X047212D01*
Y040055D01*
X047172D01*
Y040095D01*
X047092D01*
Y040055D01*
X047052D01*
Y039975D01*
X047092D01*
X047112Y039995D02*
Y039975D01*
X047152D01*
Y039995D01*
X047172D01*
Y040035D01*
X047152D01*
Y040055D01*
X047112D01*
Y040035D01*
X047092D01*
Y039995D01*
X047112D01*
X04821Y03943D02*
Y03939D01*
X04829D01*
Y03943D01*
X04833D01*
Y03951D01*
X04829D01*
Y03955D01*
X04821D01*
Y03951D01*
X04817D01*
Y03943D01*
X04821D01*
X04823Y03945D02*
Y03943D01*
X04827D01*
Y03945D01*
X04829D01*
Y03949D01*
X04827D01*
Y03951D01*
X04823D01*
Y03949D01*
X04821D01*
Y03945D01*
X04823D01*
X047092Y038885D02*
Y038845D01*
X047172D01*
Y038885D01*
X047212D01*
Y038965D01*
X047172D01*
Y039005D01*
X047092D01*
Y038965D01*
X047052D01*
Y038885D01*
X047092D01*
X047112Y038905D02*
Y038885D01*
X047152D01*
Y038905D01*
X047172D01*
Y038945D01*
X047152D01*
Y038965D01*
X047112D01*
Y038945D01*
X047092D01*
Y038905D01*
X047112D01*
X02052Y028431D02*
Y028591D01*
X02068D01*
Y028431D01*
X02052D01*
X01952D02*
Y028591D01*
X01968D01*
Y028431D01*
X01952D01*
X01852D02*
Y028591D01*
X01868D01*
Y028431D01*
X01852D01*
X01752D02*
Y028591D01*
X01768D01*
Y028431D01*
X01752D01*
X01652D02*
Y028591D01*
X01668D01*
Y028431D01*
X01652D01*
X01552D02*
Y028591D01*
X01568D01*
Y028431D01*
X01552D01*
X01452D02*
Y028591D01*
X01468D01*
Y028431D01*
X01452D01*
X01352D02*
Y028591D01*
X01368D01*
Y028431D01*
X01352D01*
X0425Y035831D02*
X04242Y035991D01*
X04258D01*
X0425Y035831D01*
Y036831D02*
X04242Y036991D01*
X04258D01*
X0425Y036831D01*
Y037831D02*
X04242Y037991D01*
X04258D01*
X0425Y037831D01*
Y038831D02*
X04242Y038991D01*
X04258D01*
X0425Y038831D01*
Y039831D02*
X04242Y039991D01*
X04258D01*
X0425Y039831D01*
Y040831D02*
X04242Y040991D01*
X04258D01*
X0425Y040831D01*
Y041831D02*
X04242Y041991D01*
X04258D01*
X0425Y041831D01*
Y042831D02*
X04242Y042991D01*
X04258D01*
X0425Y042831D01*
X0395Y035831D02*
X03942Y035991D01*
X03958D01*
X0395Y035831D01*
Y036831D02*
X03942Y036991D01*
X03958D01*
X0395Y036831D01*
Y037831D02*
X03942Y037991D01*
X03958D01*
X0395Y037831D01*
Y038831D02*
X03942Y038991D01*
X03958D01*
X0395Y038831D01*
Y039831D02*
X03942Y039991D01*
X03958D01*
X0395Y039831D01*
Y040831D02*
X03942Y040991D01*
X03958D01*
X0395Y040831D01*
Y041831D02*
X03942Y041991D01*
X03958D01*
X0395Y041831D01*
Y042831D02*
X03942Y042991D01*
X03958D01*
X0395Y042831D01*
X01392Y047231D02*
Y047391D01*
X01408D01*
Y047231D01*
X01392D01*
X01492D02*
Y047391D01*
X01508D01*
Y047231D01*
X01492D01*
X01592D02*
Y047391D01*
X01608D01*
Y047231D01*
X01592D01*
X01692D02*
Y047391D01*
X01708D01*
Y047231D01*
X01692D01*
X01792D02*
Y047391D01*
X01808D01*
Y047231D01*
X01792D01*
X01892D02*
Y047391D01*
X01908D01*
Y047231D01*
X01892D01*
X01992D02*
Y047391D01*
X02008D01*
Y047231D01*
X01992D01*
X02092D02*
Y047391D01*
X02108D01*
Y047231D01*
X02092D01*
X044715Y038531D02*
X044755D01*
X044795Y038571D01*
X044835Y038531D01*
X044875D01*
Y038571D01*
X044835Y038611D01*
X044875Y038651D01*
Y038691D01*
X044835D01*
X044795Y038651D01*
X044755Y038691D01*
X044715D01*
Y038651D01*
X044755Y038611D01*
X044715Y038571D01*
Y038531D01*
X044125D02*
X044165D01*
X044205Y038571D01*
X044245Y038531D01*
X044285D01*
Y038571D01*
X044245Y038611D01*
X044285Y038651D01*
Y038691D01*
X044245D01*
X044205Y038651D01*
X044165Y038691D01*
X044125D01*
Y038651D01*
X044165Y038611D01*
X044125Y038571D01*
Y038531D01*
X04377Y034526D02*
X04381D01*
X04385Y034566D01*
X04389Y034526D01*
X04393D01*
Y034566D01*
X04389Y034606D01*
X04393Y034646D01*
Y034686D01*
X04389D01*
X04385Y034646D01*
X04381Y034686D01*
X04377D01*
Y034646D01*
X04381Y034606D01*
X04377Y034566D01*
Y034526D01*
Y033935D02*
X04381D01*
X04385Y033975D01*
X04389Y033935D01*
X04393D01*
Y033975D01*
X04389Y034015D01*
X04393Y034055D01*
Y034095D01*
X04389D01*
X04385Y034055D01*
X04381Y034095D01*
X04377D01*
Y034055D01*
X04381Y034015D01*
X04377Y033975D01*
Y033935D01*
X03615Y015631D02*
X03607Y015791D01*
X03623D01*
X03615Y015631D01*
X03715D02*
X03707Y015791D01*
X03723D01*
X03715Y015631D01*
X03815D02*
X03807Y015791D01*
X03823D01*
X03815Y015631D01*
X03915D02*
X03907Y015791D01*
X03923D01*
X03915Y015631D01*
X04015D02*
X04007Y015791D01*
X04023D01*
X04015Y015631D01*
X04115D02*
X04107Y015791D01*
X04123D01*
X04115Y015631D01*
X03615Y021631D02*
X03607Y021791D01*
X03623D01*
X03615Y021631D01*
X03715D02*
X03707Y021791D01*
X03723D01*
X03715Y021631D01*
X03815D02*
X03807Y021791D01*
X03823D01*
X03815Y021631D01*
X03915D02*
X03907Y021791D01*
X03923D01*
X03915Y021631D01*
X04015D02*
X04007Y021791D01*
X04023D01*
X04015Y021631D01*
X04115D02*
X04107Y021791D01*
X04123D01*
X04115Y021631D01*
X044715Y041581D02*
X044755D01*
X044795Y041621D01*
X044835Y041581D01*
X044875D01*
Y041621D01*
X044835Y041661D01*
X044875Y041701D01*
Y041741D01*
X044835D01*
X044795Y041701D01*
X044755Y041741D01*
X044715D01*
Y041701D01*
X044755Y041661D01*
X044715Y041621D01*
Y041581D01*
X044125D02*
X044165D01*
X044205Y041621D01*
X044245Y041581D01*
X044285D01*
Y041621D01*
X044245Y041661D01*
X044285Y041701D01*
Y041741D01*
X044245D01*
X044205Y041701D01*
X044165Y041741D01*
X044125D01*
Y041701D01*
X044165Y041661D01*
X044125Y041621D01*
Y041581D01*
X04002Y034581D02*
X04006D01*
X0401Y034621D01*
X04014Y034581D01*
X04018D01*
Y034621D01*
X04014Y034661D01*
X04018Y034701D01*
Y034741D01*
X04014D01*
X0401Y034701D01*
X04006Y034741D01*
X04002D01*
Y034701D01*
X04006Y034661D01*
X04002Y034621D01*
Y034581D01*
Y03399D02*
X04006D01*
X0401Y03403D01*
X04014Y03399D01*
X04018D01*
Y03403D01*
X04014Y03407D01*
X04018Y03411D01*
Y03415D01*
X04014D01*
X0401Y03411D01*
X04006Y03415D01*
X04002D01*
Y03411D01*
X04006Y03407D01*
X04002Y03403D01*
Y03399D01*
X01677Y024381D02*
Y024541D01*
X01693D01*
Y024381D01*
X01677D01*
Y025381D02*
Y025541D01*
X01693D01*
Y025381D01*
X01677D01*
Y026381D02*
Y026541D01*
X01693D01*
Y026381D01*
X01677D01*
X01422D02*
Y026541D01*
X01438D01*
Y026381D01*
X01422D01*
Y025381D02*
Y025541D01*
X01438D01*
Y025381D01*
X01422D01*
Y024381D02*
Y024541D01*
X01438D01*
Y024381D01*
X01422D01*
X02885Y013181D02*
X02877Y013341D01*
X02893D01*
X02885Y013181D01*
X03135Y011181D02*
X03127Y011341D01*
X03143D01*
X03135Y011181D01*
Y013181D02*
X03127Y013341D01*
X03143D01*
X03135Y013181D01*
X02885Y011181D02*
X02877Y011341D01*
X02893D01*
X02885Y011181D01*
X01367Y035981D02*
X01371D01*
X01375Y036021D01*
X01379Y035981D01*
X01383D01*
Y036021D01*
X01379Y036061D01*
X01383Y036101D01*
Y036141D01*
X01379D01*
X01375Y036101D01*
X01371Y036141D01*
X01367D01*
Y036101D01*
X01371Y036061D01*
X01367Y036021D01*
Y035981D01*
X01371Y036021D02*
X01373D01*
X01375Y036041D01*
X01377Y036021D01*
X01379D01*
Y036041D01*
X01377Y036061D01*
X01379Y036081D01*
Y036101D01*
X01377D01*
X01375Y036081D01*
X01373Y036101D01*
X01371D01*
Y036081D01*
X01373Y036061D01*
X01371Y036041D01*
Y036021D01*
X01367Y037981D02*
X01371D01*
X01375Y038021D01*
X01379Y037981D01*
X01383D01*
Y038021D01*
X01379Y038061D01*
X01383Y038101D01*
Y038141D01*
X01379D01*
X01375Y038101D01*
X01371Y038141D01*
X01367D01*
Y038101D01*
X01371Y038061D01*
X01367Y038021D01*
Y037981D01*
X01371Y038021D02*
X01373D01*
X01375Y038041D01*
X01377Y038021D01*
X01379D01*
Y038041D01*
X01377Y038061D01*
X01379Y038081D01*
Y038101D01*
X01377D01*
X01375Y038081D01*
X01373Y038101D01*
X01371D01*
Y038081D01*
X01373Y038061D01*
X01371Y038041D01*
Y038021D01*
X0392Y013231D02*
X03912Y013391D01*
X03928D01*
X0392Y013231D01*
X0417Y011231D02*
X04162Y011391D01*
X04178D01*
X0417Y011231D01*
Y013231D02*
X04162Y013391D01*
X04178D01*
X0417Y013231D01*
X0392Y011231D02*
X03912Y011391D01*
X03928D01*
X0392Y011231D01*
X03405Y013181D02*
X03397Y013341D01*
X03413D01*
X03405Y013181D01*
X03655Y011181D02*
X03647Y011341D01*
X03663D01*
X03655Y011181D01*
Y013181D02*
X03647Y013341D01*
X03663D01*
X03655Y013181D01*
X03405Y011181D02*
X03397Y011341D01*
X03413D01*
X03405Y011181D01*
X0448Y013031D02*
X04472Y013191D01*
X04488D01*
X0448Y013031D01*
X0473Y011031D02*
X04722Y011191D01*
X04738D01*
X0473Y011031D01*
Y013031D02*
X04722Y013191D01*
X04738D01*
X0473Y013031D01*
X0448Y011031D02*
X04472Y011191D01*
X04488D01*
X0448Y011031D01*
X02655Y0463D02*
Y046433D01*
X026617Y0465D01*
X026683Y046433D01*
Y0463D01*
Y0464D01*
X02655D01*
X0265Y04535D02*
Y045483D01*
X026567Y04555D01*
X026633Y045483D01*
Y04535D01*
Y04545D01*
X0265D01*
X0287Y0429D02*
Y043033D01*
X028767Y0431D01*
X028833Y043033D01*
Y0429D01*
Y043D01*
X0287D01*
X03075Y04265D02*
Y042783D01*
X030817Y04285D01*
X030883Y042783D01*
Y04265D01*
Y04275D01*
X03075D01*
X0293Y037061D02*
Y037194D01*
X029367Y037261D01*
X029433Y037194D01*
Y037061D01*
Y037161D01*
X0293D01*
X0318Y027711D02*
Y027844D01*
X031867Y027911D01*
X031933Y027844D01*
Y027711D01*
Y027811D01*
X0318D01*
X03105Y039961D02*
Y040094D01*
X031117Y040161D01*
X031183Y040094D01*
Y039961D01*
Y040061D01*
X03105D01*
X0317Y039111D02*
Y039244D01*
X031767Y039311D01*
X031833Y039244D01*
Y039111D01*
Y039211D01*
X0317D01*
X013Y018761D02*
Y018894D01*
X013067Y018961D01*
X013133Y018894D01*
Y018761D01*
Y018861D01*
X013D01*
X01625Y040661D02*
Y040794D01*
X016317Y040861D01*
X016383Y040794D01*
Y040661D01*
Y040761D01*
X01625D01*
X0386Y024611D02*
Y024744D01*
X038667Y024811D01*
X038733Y024744D01*
Y024611D01*
Y024711D01*
X0386D01*
X0395Y033261D02*
Y033394D01*
X039567Y033461D01*
X039633Y033394D01*
Y033261D01*
Y033361D01*
X0395D01*
X0374Y034411D02*
Y034544D01*
X037467Y034611D01*
X037533Y034544D01*
Y034411D01*
Y034511D01*
X0374D01*
X0388Y033661D02*
Y033794D01*
X038867Y033861D01*
X038933Y033794D01*
Y033661D01*
Y033761D01*
X0388D01*
X03765Y025661D02*
Y025794D01*
X037717Y025861D01*
X037783Y025794D01*
Y025661D01*
Y025761D01*
X03765D01*
X0199Y039961D02*
Y040094D01*
X019967Y040161D01*
X020033Y040094D01*
Y039961D01*
Y040061D01*
X0199D01*
X0282Y037161D02*
Y037294D01*
X028267Y037361D01*
X028333Y037294D01*
Y037161D01*
Y037261D01*
X0282D01*
X01695Y038161D02*
Y038294D01*
X017017Y038361D01*
X017083Y038294D01*
Y038161D01*
Y038261D01*
X01695D01*
X0174Y036811D02*
Y036944D01*
X017467Y037011D01*
X017533Y036944D01*
Y036811D01*
Y036911D01*
X0174D01*
X02365Y039761D02*
Y039894D01*
X023717Y039961D01*
X023783Y039894D01*
Y039761D01*
Y039861D01*
X02365D01*
X032Y040061D02*
Y040194D01*
X032067Y040261D01*
X032133Y040194D01*
Y040061D01*
Y040161D01*
X032D01*
X0374Y043861D02*
Y043994D01*
X037467Y044061D01*
X037533Y043994D01*
Y043861D01*
Y043961D01*
X0374D01*
X0455Y036711D02*
Y036844D01*
X045567Y036911D01*
X045633Y036844D01*
Y036711D01*
Y036811D01*
X0455D01*
X0408Y044611D02*
Y044744D01*
X040867Y044811D01*
X040933Y044744D01*
Y044611D01*
Y044711D01*
X0408D01*
X0272Y042161D02*
Y042294D01*
X027267Y042361D01*
X027333Y042294D01*
Y042161D01*
Y042261D01*
X0272D01*
X03695Y014561D02*
Y014694D01*
X037017Y014761D01*
X037083Y014694D01*
Y014561D01*
Y014661D01*
X03695D01*
D102*
X02568Y037261D02*
G03*
X02568Y037261I-00008J0D01*
G01*
Y038261D02*
G03*
X02568Y038261I-00008J0D01*
G01*
X01523Y015961D02*
G03*
X01523Y015961I-00008J0D01*
G01*
Y013461D02*
G03*
X01523Y013461I-00008J0D01*
G01*
X01723Y014961D02*
G03*
X01723Y014961I-00008J0D01*
G01*
X02183Y020311D02*
G03*
X02183Y020311I-00008J0D01*
G01*
X02083D02*
G03*
X02083Y020311I-00008J0D01*
G01*
D103*
X01519Y015961D02*
G03*
X01519Y015961I-00004J0D01*
G01*
Y013461D02*
G03*
X01519Y013461I-00004J0D01*
G01*
X01719Y014961D02*
G03*
X01719Y014961I-00004J0D01*
G01*
M02*
