G04 Layer_Physical_Order=1*
G04 Layer_Color=255*
%FSTAX24Y24*%
%MOIN*%
G70*
G01*
G75*
%ADD10R,0.0532X0.0374*%
%ADD11R,0.0532X0.1299*%
%ADD12C,0.0250*%
%ADD13C,0.0120*%
%ADD14C,0.0100*%
%ADD15R,0.0591X0.0591*%
%ADD16C,0.0591*%
%ADD17R,0.1000X0.0700*%
%ADD18O,0.1000X0.0700*%
%ADD19C,0.0700*%
%ADD20C,0.0750*%
%ADD21C,0.1969*%
%ADD22O,0.0600X0.1200*%
G04:AMPARAMS|DCode=23|XSize=120mil|YSize=60mil|CornerRadius=0mil|HoleSize=0mil|Usage=FLASHONLY|Rotation=90.000|XOffset=0mil|YOffset=0mil|HoleType=Round|Shape=Octagon|*
%AMOCTAGOND23*
4,1,8,0.0150,0.0600,-0.0150,0.0600,-0.0300,0.0450,-0.0300,-0.0450,-0.0150,-0.0600,0.0150,-0.0600,0.0300,-0.0450,0.0300,0.0450,0.0150,0.0600,0.0*
%
%ADD23OCTAGOND23*%

%ADD24R,0.0591X0.0591*%
%ADD25C,0.0492*%
%ADD26R,0.0492X0.0492*%
%ADD27R,0.0600X0.0900*%
%ADD28O,0.0600X0.0900*%
%ADD29O,0.0700X0.0800*%
%ADD30R,0.0700X0.0800*%
G04:AMPARAMS|DCode=31|XSize=70mil|YSize=90mil|CornerRadius=0mil|HoleSize=0mil|Usage=FLASHONLY|Rotation=180.000|XOffset=0mil|YOffset=0mil|HoleType=Round|Shape=Octagon|*
%AMOCTAGOND31*
4,1,8,0.0175,-0.0450,-0.0175,-0.0450,-0.0350,-0.0275,-0.0350,0.0275,-0.0175,0.0450,0.0175,0.0450,0.0350,0.0275,0.0350,-0.0275,0.0175,-0.0450,0.0*
%
%ADD31OCTAGOND31*%

%ADD32C,0.1000*%
%ADD33C,0.0800*%
%ADD34R,0.0800X0.0800*%
%ADD35R,0.1600X0.1000*%
%ADD36R,0.1000X0.1600*%
%ADD37R,0.1000X0.1000*%
%ADD38O,0.0650X0.1000*%
%ADD39R,0.0650X0.1000*%
%ADD40O,0.0800X0.0750*%
%ADD41R,0.0492X0.0492*%
%ADD42C,0.0850*%
%ADD43O,0.0591X0.0787*%
%ADD44R,0.0591X0.0787*%
%ADD45O,0.0400X0.0800*%
%ADD46C,0.1874*%
%ADD47R,0.0665X0.0665*%
%ADD48C,0.0665*%
%ADD49R,0.0900X0.0600*%
%ADD50O,0.0900X0.0600*%
%ADD51C,0.0500*%
G36*
X031594Y028238D02*
X031555Y028042D01*
X031494Y028017D01*
X03149Y028008D01*
X030745D01*
Y028804D01*
X030923Y028909D01*
X031594Y028238D01*
D02*
G37*
G36*
X013815Y032692D02*
X013768Y032456D01*
X013582Y032379D01*
X013222Y031511D01*
X013582Y030643D01*
X01445Y030283D01*
X015318Y030643D01*
X015678Y031511D01*
X01536Y032278D01*
X015481Y032478D01*
X017762D01*
X019069Y03117D01*
X01914Y031D01*
X01935Y030913D01*
X028919D01*
X030798Y029034D01*
X030693Y028856D01*
X029855D01*
Y028758D01*
X029655Y028718D01*
X029641Y028751D01*
X0293Y028893D01*
X028959Y028751D01*
X028908Y028628D01*
X028692D01*
X028641Y028751D01*
X0283Y028893D01*
X027959Y028751D01*
X027908Y028628D01*
X027692D01*
X027641Y028751D01*
X0273Y028893D01*
X026959Y028751D01*
X026908Y028628D01*
X026692D01*
X026641Y028751D01*
X0263Y028893D01*
X025959Y028751D01*
X025908Y028628D01*
X025692D01*
X025641Y028751D01*
X0253Y028893D01*
X024959Y028751D01*
X024908Y028628D01*
X024692D01*
X024641Y028751D01*
X0243Y028893D01*
X023959Y028751D01*
X023908Y028628D01*
X023692D01*
X023641Y028751D01*
X0233Y028893D01*
X022959Y028751D01*
X022818Y028411D01*
X022902Y028208D01*
X022768Y028008D01*
X02275D01*
X02254Y027921D01*
X02174Y027121D01*
X021652Y026911D01*
Y024712D01*
X021452Y024629D01*
X02141Y024671D01*
X0212Y024758D01*
X019895D01*
Y024906D01*
X019797D01*
X019757Y025106D01*
X019791Y02512D01*
X019932Y025461D01*
X019791Y025801D01*
X019668Y025852D01*
Y026069D01*
X019791Y02612D01*
X019932Y026461D01*
X019791Y026801D01*
X01945Y026943D01*
X019109Y026801D01*
X018968Y026461D01*
X019109Y02612D01*
X019232Y026069D01*
Y025852D01*
X019109Y025801D01*
X018968Y025461D01*
X019109Y02512D01*
X019143Y025106D01*
X019103Y024906D01*
X019005D01*
Y024015D01*
X019895D01*
Y024163D01*
X021077D01*
X022552Y022687D01*
Y021791D01*
X022607Y021658D01*
X022501Y021458D01*
X0213D01*
X02109Y021371D01*
X020679Y020961D01*
X020275D01*
Y019661D01*
X020602D01*
Y014563D01*
X0204Y014361D01*
Y013661D01*
X020366Y013578D01*
X020054D01*
X018357Y015275D01*
Y01596D01*
X018291Y01612D01*
X018291Y01612D01*
X01695Y017461D01*
X017033Y017661D01*
X017116Y017661D01*
X01805D01*
Y018761D01*
X01695D01*
Y017839D01*
X01695Y017744D01*
X01675Y017661D01*
X01504Y019371D01*
X014879Y019438D01*
X013577D01*
Y019714D01*
X013712Y019911D01*
X01415D01*
Y019911D01*
X01435Y019994D01*
X01465Y01987D01*
X015033Y020028D01*
X01505Y02007D01*
X01525D01*
X015267Y020028D01*
X01565Y01987D01*
X016033Y020028D01*
X016191Y020411D01*
Y020511D01*
X016033Y020893D01*
X01565Y021052D01*
X015267Y020893D01*
X01525Y020852D01*
X01505D01*
X015033Y020893D01*
X01465Y021052D01*
X01435Y020928D01*
X01415Y021011D01*
Y021011D01*
X01315D01*
Y020496D01*
X012965Y02042D01*
X012637Y020748D01*
Y033609D01*
X012822Y033685D01*
X013815Y032692D01*
D02*
G37*
G36*
X033574Y013483D02*
X033482Y013261D01*
X033554Y013086D01*
X033002Y012534D01*
X03149D01*
X03145Y012734D01*
X031752Y012859D01*
X031918Y013261D01*
X031846Y013435D01*
X032094Y013683D01*
X03344D01*
X033574Y013483D01*
D02*
G37*
G36*
X034573Y012718D02*
Y012355D01*
X034406Y012188D01*
X03356D01*
X033484Y012373D01*
X033875Y012765D01*
X03405Y012692D01*
X034373Y012826D01*
X034573Y012718D01*
D02*
G37*
G36*
X025036Y025909D02*
X025036Y025713D01*
X024921Y025435D01*
X024704D01*
X024589Y025713D01*
X024589Y025909D01*
X024704Y026186D01*
X024921D01*
X025036Y025909D01*
D02*
G37*
G36*
X030436Y025959D02*
X030436Y025763D01*
X030321Y025485D01*
X030104D01*
X029989Y025763D01*
X029989Y025959D01*
X030104Y026236D01*
X030321D01*
X030436Y025959D01*
D02*
G37*
G36*
X033328Y02625D02*
X033538Y026163D01*
X037295D01*
X037344Y025967D01*
X037217Y025661D01*
X037344Y025355D01*
X03765Y025228D01*
X037707Y025251D01*
X0378Y025213D01*
X038486D01*
X038526Y025013D01*
X038294Y024917D01*
X038167Y024611D01*
X038294Y024305D01*
X038382Y024268D01*
X03839Y02425D01*
X03939Y02325D01*
X0396Y023163D01*
X04024D01*
X040956Y022447D01*
X040917Y022251D01*
X040806Y022205D01*
X040758Y022091D01*
X040542D01*
X040494Y022205D01*
X04015Y022348D01*
X039806Y022205D01*
X039758Y022091D01*
X039542D01*
X039494Y022205D01*
X03915Y022348D01*
X038806Y022205D01*
X038758Y022091D01*
X038542D01*
X038494Y022205D01*
X03815Y022348D01*
X037806Y022205D01*
X037758Y022091D01*
X037542D01*
X037494Y022205D01*
X037416Y022238D01*
X03736Y022371D01*
X03421Y025521D01*
X034Y025608D01*
X032595D01*
X032552Y025713D01*
X032552Y025909D01*
X032718Y026311D01*
X032552Y026713D01*
X03215Y026879D01*
X031748Y026713D01*
X031591Y026332D01*
X031397Y026382D01*
X031239Y026763D01*
X030837Y026929D01*
X030436Y026763D01*
X030321Y026485D01*
X030104D01*
X029989Y026763D01*
X029587Y026929D01*
X029186Y026763D01*
X029019Y026361D01*
X029186Y025959D01*
X029186Y025763D01*
X029019Y025361D01*
X029186Y024959D01*
X02929Y024916D01*
Y021093D01*
X029082Y020886D01*
X028898Y020962D01*
Y021492D01*
X02881Y021703D01*
X028435Y022078D01*
Y024816D01*
X028539Y024859D01*
X028706Y025261D01*
X028539Y025663D01*
X028539Y025859D01*
X028706Y026261D01*
X028539Y026663D01*
X028137Y026829D01*
X027736Y026663D01*
X027569Y026261D01*
X027736Y025859D01*
X027736Y025663D01*
X027569Y025261D01*
X027736Y024859D01*
X02784Y024816D01*
Y022369D01*
X027655Y022292D01*
X027248Y0227D01*
Y02403D01*
X02716Y02424D01*
X027048Y024353D01*
Y024866D01*
X027152Y024909D01*
X027318Y025311D01*
X027152Y025713D01*
X027152Y025909D01*
X027318Y026311D01*
X027152Y026713D01*
X02675Y026879D01*
X026348Y026713D01*
X026191Y026332D01*
X025997D01*
X025839Y026713D01*
X025437Y026879D01*
X025036Y026713D01*
X024921Y026435D01*
X024704D01*
X024589Y026713D01*
X024187Y026879D01*
X023786Y026713D01*
X023619Y026311D01*
X023786Y025909D01*
X023786Y025713D01*
X023619Y025311D01*
X023786Y024909D01*
X024187Y024742D01*
X024589Y024909D01*
X024704Y025186D01*
X024921D01*
X025036Y024909D01*
X025437Y024742D01*
X025839Y024909D01*
X025997Y025289D01*
X026191D01*
X026348Y024909D01*
X026452Y024866D01*
Y024431D01*
X0263Y024329D01*
X025898Y024163D01*
X025855Y024058D01*
X024245D01*
X024202Y024163D01*
X0238Y024329D01*
X023398Y024163D01*
X023355Y024058D01*
X022923D01*
X022385Y024597D01*
X022394Y024673D01*
X022611Y0248D01*
X02275Y024742D01*
X023152Y024909D01*
X023318Y025311D01*
X023152Y025713D01*
X023152Y025909D01*
X023318Y026311D01*
X023152Y026713D01*
X02275Y026879D01*
X022532Y026788D01*
X022418Y026958D01*
X022873Y027413D01*
X03149D01*
X031494Y027405D01*
X0318Y027278D01*
X032106Y027405D01*
X032162Y027416D01*
X033328Y02625D01*
D02*
G37*
G36*
X041949Y039703D02*
X042006Y039566D01*
X04212Y039519D01*
Y039302D01*
X042006Y039255D01*
X041863Y038911D01*
X042006Y038566D01*
X04212Y038519D01*
Y038302D01*
X042006Y038255D01*
X041863Y037911D01*
X041926Y037758D01*
X04154Y037371D01*
X041452Y037161D01*
Y035361D01*
X04154Y03515D01*
X042294Y034395D01*
X042505Y034308D01*
X043454D01*
Y033619D01*
X043361Y033458D01*
X043221D01*
X043011Y033371D01*
X042499Y032858D01*
X039971D01*
X039849Y033058D01*
X039933Y033261D01*
X039845Y033474D01*
X03996Y033674D01*
X040496D01*
Y034466D01*
X040496D01*
X040466Y03451D01*
X040529Y034661D01*
X040432Y034893D01*
X040835Y035296D01*
X040923Y035507D01*
Y038912D01*
X041753Y039742D01*
X041949Y039703D01*
D02*
G37*
G36*
X036375Y013973D02*
X036328Y013737D01*
X036148Y013663D01*
X035982Y013261D01*
X036148Y012859D01*
X03655Y012692D01*
X036952Y012859D01*
X037118Y013261D01*
X037003Y013538D01*
X037137Y013738D01*
X037167D01*
X037378Y013825D01*
X037416Y013863D01*
X038687D01*
X038778Y013663D01*
X038632Y013311D01*
X038704Y013136D01*
X037122Y011555D01*
X036926Y011594D01*
X036914Y011624D01*
X0366Y011754D01*
Y011261D01*
X03655D01*
Y011211D01*
X036057D01*
X036115Y011069D01*
X036004Y010903D01*
X034596D01*
X034485Y011069D01*
X034543Y011211D01*
X033557D01*
X033615Y011069D01*
X033504Y010903D01*
X031896D01*
X031785Y011069D01*
X031843Y011211D01*
X030857D01*
X030915Y011069D01*
X030804Y010903D01*
X029396D01*
X029285Y011069D01*
X029343Y011211D01*
X02885D01*
Y011311D01*
X029343D01*
X029251Y011533D01*
X029366Y011733D01*
X030834D01*
X030949Y011533D01*
X030857Y011311D01*
X031843D01*
X031751Y011533D01*
X031866Y011733D01*
X033534D01*
X033649Y011533D01*
X033557Y011311D01*
X034543D01*
X034451Y011533D01*
X034465Y011588D01*
X034546Y011753D01*
X034661Y0118D01*
X034961Y0121D01*
X035027Y012261D01*
Y013411D01*
X034961Y013571D01*
X034519Y014013D01*
X034602Y014213D01*
X036134D01*
X036375Y013973D01*
D02*
G37*
G36*
X039006Y035566D02*
X039295Y035446D01*
X03937Y035239D01*
X03929Y035158D01*
X039202Y034948D01*
Y034132D01*
X039002Y03401D01*
X0388Y034094D01*
X038494Y033967D01*
X03849Y033958D01*
X038273D01*
X037829Y034402D01*
X037833Y034411D01*
X037706Y034717D01*
X0374Y034844D01*
X037094Y034717D01*
X036967Y034411D01*
X037094Y034105D01*
X0374Y033978D01*
X037408Y033981D01*
X03794Y03345D01*
X03815Y033363D01*
X03849D01*
X038494Y033355D01*
X0388Y033228D01*
X038839Y033244D01*
X039032Y03315D01*
X039065Y033044D01*
X038934Y032858D01*
X021523D01*
X019856Y034525D01*
X019819Y03464D01*
X019881Y034737D01*
X020105Y034718D01*
X020106Y034716D01*
X02045Y034574D01*
X020794Y034716D01*
X020842Y034831D01*
X021058D01*
X021106Y034716D01*
X02145Y034574D01*
X021794Y034716D01*
X021842Y034831D01*
X022058D01*
X022106Y034716D01*
X02245Y034574D01*
X022794Y034716D01*
X022842Y034831D01*
X023058D01*
X023106Y034716D01*
X02345Y034574D01*
X023794Y034716D01*
X023842Y034831D01*
X024058D01*
X024106Y034716D01*
X02445Y034574D01*
X024794Y034716D01*
X024842Y034831D01*
X025058D01*
X025106Y034716D01*
X02545Y034574D01*
X025794Y034716D01*
X025842Y034831D01*
X026058D01*
X026106Y034716D01*
X02645Y034574D01*
X026794Y034716D01*
X026869Y034896D01*
X027085D01*
X027144Y034755D01*
X0274Y034648D01*
Y035211D01*
X0275D01*
Y034648D01*
X027756Y034755D01*
X027815Y034896D01*
X028031D01*
X028106Y034716D01*
X02845Y034574D01*
X028794Y034716D01*
X028842Y034831D01*
X029058D01*
X029106Y034716D01*
X02945Y034574D01*
X029794Y034716D01*
X029842Y034831D01*
X030058D01*
X030106Y034716D01*
X03045Y034574D01*
X030794Y034716D01*
X030842Y034831D01*
X031058D01*
X031106Y034716D01*
X03145Y034574D01*
X031794Y034716D01*
X031842Y034831D01*
X032058D01*
X032106Y034716D01*
X03245Y034574D01*
X032794Y034716D01*
X032842Y034831D01*
X033058D01*
X033106Y034716D01*
X03345Y034574D01*
X033794Y034716D01*
X033842Y034831D01*
X034058D01*
X034106Y034716D01*
X03445Y034574D01*
X034794Y034716D01*
X034842Y034831D01*
X035058D01*
X035106Y034716D01*
X03545Y034574D01*
X035794Y034716D01*
X035842Y034831D01*
X036058D01*
X036106Y034716D01*
X03645Y034574D01*
X036794Y034716D01*
X036937Y035061D01*
Y035361D01*
X036891Y035472D01*
X037002Y035638D01*
X038976D01*
X039006Y035566D01*
D02*
G37*
G36*
X019101Y034726D02*
X019106Y034716D01*
X019113Y034713D01*
X019152Y03467D01*
Y034511D01*
X01924Y0343D01*
X020897Y032643D01*
X02082Y032458D01*
X020473D01*
X018748Y034184D01*
Y034697D01*
X018794Y034716D01*
X018826Y034791D01*
X019027Y03481D01*
X019101Y034726D01*
D02*
G37*
G36*
X030948Y012859D02*
X03125Y012734D01*
X03121Y012534D01*
X029136D01*
X029104Y012581D01*
X029179Y012829D01*
X029252Y012859D01*
X029324Y013033D01*
X030876D01*
X030948Y012859D01*
D02*
G37*
G36*
X018824Y0327D02*
X019816Y031708D01*
X019733Y031508D01*
X019374D01*
X018319Y032563D01*
X018396Y032748D01*
X018804D01*
X018824Y0327D01*
D02*
G37*
G36*
X049134Y034815D02*
Y010516D01*
X047629D01*
X04759Y010716D01*
X047664Y010747D01*
X047793Y011061D01*
X046807D01*
X046936Y010747D01*
X04701Y010716D01*
X046971Y010516D01*
X045129D01*
X04509Y010716D01*
X045164Y010747D01*
X045293Y011061D01*
X044307D01*
X044436Y010747D01*
X04451Y010716D01*
X044471Y010516D01*
X037216D01*
X037139Y010701D01*
X037296Y010858D01*
X037362Y011018D01*
Y011152D01*
X039025Y012815D01*
X0392Y012742D01*
X039602Y012909D01*
X039768Y013311D01*
X039622Y013663D01*
X039713Y013863D01*
X041187D01*
X041278Y013663D01*
X041132Y013311D01*
X041298Y012909D01*
X0417Y012742D01*
X042102Y012909D01*
X042268Y013311D01*
X042102Y013713D01*
X041822Y013829D01*
X041774Y014064D01*
X043019Y015309D01*
X043107Y01552D01*
Y016112D01*
X04401Y017016D01*
X044098Y017227D01*
Y018637D01*
X044838Y019378D01*
X04495Y019332D01*
X045218Y019443D01*
X045329Y019711D01*
Y020111D01*
X045218Y020379D01*
X04495Y02049D01*
X044682Y020379D01*
X044571Y020111D01*
Y020109D01*
X044529Y020081D01*
X044476Y020089D01*
X044304Y020171D01*
X044218Y020379D01*
X04395Y02049D01*
X043864Y020454D01*
X043698Y020565D01*
Y021141D01*
X043882Y021218D01*
X044215Y020885D01*
X044425Y020798D01*
X044521Y020838D01*
X046814D01*
X046926Y020672D01*
X046859Y020511D01*
X047017Y020128D01*
X0474Y01997D01*
X047702Y020095D01*
X047902Y019986D01*
Y017934D01*
X047485Y017517D01*
X0474Y017552D01*
X047017Y017393D01*
X046859Y017011D01*
X047017Y016628D01*
X0474Y01647D01*
X047783Y016628D01*
X047941Y017011D01*
X047906Y017096D01*
X04841Y0176D01*
X048498Y017811D01*
Y020711D01*
X04841Y020921D01*
X047985Y021346D01*
X047775Y021433D01*
X044509D01*
X038596Y027346D01*
X038385Y027433D01*
X034418D01*
X034285Y027633D01*
X034379Y027861D01*
X03375D01*
Y027911D01*
X0337D01*
Y028539D01*
X033291Y02837D01*
X033207Y028169D01*
X032991Y02817D01*
X032935Y028304D01*
X029562Y031678D01*
X029638Y031863D01*
X042615D01*
X042748Y031663D01*
X042681Y031501D01*
X043041Y030633D01*
X043909Y030273D01*
X044777Y030633D01*
X045136Y031501D01*
X045107Y031573D01*
X045244Y031763D01*
X045702D01*
X045813Y031597D01*
X045757Y031461D01*
X04625D01*
Y031411D01*
X0463D01*
Y030917D01*
X046614Y031047D01*
X046655Y031146D01*
X046898Y031211D01*
X046952Y031169D01*
Y030543D01*
X046715Y030305D01*
X046627Y030095D01*
Y028636D01*
X046715Y028425D01*
X047194Y027946D01*
X047159Y027861D01*
X047317Y027478D01*
X0477Y02732D01*
X048083Y027478D01*
X048241Y027861D01*
X048083Y028243D01*
X0477Y028402D01*
X047615Y028367D01*
X047241Y02874D01*
X047252Y028912D01*
X047423Y029022D01*
X04755Y02897D01*
X047933Y029128D01*
X048091Y029511D01*
X048028Y029663D01*
X048048Y029711D01*
Y031561D01*
X047973Y031741D01*
X048032Y031835D01*
X048106Y031902D01*
X04825Y031842D01*
X048652Y032009D01*
X048818Y032411D01*
X048652Y032813D01*
X048477Y032885D01*
Y034442D01*
X048934Y034898D01*
X049134Y034815D01*
D02*
G37*
G36*
X031591Y026289D02*
X031748Y025909D01*
X031748Y025713D01*
X031591Y025332D01*
X031397Y025382D01*
X031239Y025763D01*
X031239Y025959D01*
X031397Y026339D01*
X031591Y026289D01*
D02*
G37*
G36*
X016685Y017083D02*
X016609Y016898D01*
X013854D01*
X013377Y017375D01*
Y017754D01*
X013577Y017794D01*
X013579Y01779D01*
X014Y017615D01*
X014421Y01779D01*
X014595Y018211D01*
X014421Y018632D01*
X014055Y018783D01*
X014094Y018983D01*
X014785D01*
X016685Y017083D01*
D02*
G37*
G36*
X025898Y023359D02*
X0263Y023192D01*
X026486Y02327D01*
X026652Y023158D01*
Y022576D01*
X02674Y022366D01*
X027902Y021203D01*
Y020837D01*
X027865Y020799D01*
X027777Y020589D01*
Y019133D01*
X027865Y018922D01*
X027902Y018884D01*
Y016861D01*
X027972Y016692D01*
X027802Y016579D01*
X02761Y016771D01*
X0274Y016858D01*
X02665D01*
X02644Y016771D01*
X025277Y015608D01*
X02165D01*
X02144Y015521D01*
X021382Y015464D01*
X021198Y015541D01*
Y019661D01*
X021225D01*
Y019672D01*
X021425Y019756D01*
X02175Y019622D01*
X022114Y019772D01*
X022264Y020136D01*
Y020486D01*
X022191Y020663D01*
X022324Y020863D01*
X022792D01*
X023155Y0205D01*
X023365Y020413D01*
X025559D01*
X025765Y020207D01*
Y019875D01*
X026596D01*
Y020049D01*
X026796Y020156D01*
X026802Y020151D01*
Y019784D01*
X026758Y01974D01*
X026596Y019648D01*
X025765D01*
Y019608D01*
X024135D01*
Y02011D01*
X023304D01*
Y018511D01*
X023422D01*
Y017641D01*
X023509Y017431D01*
X024354Y016586D01*
Y016215D01*
X025146D01*
Y016215D01*
X02524Y016278D01*
X025291Y016257D01*
Y016611D01*
Y016965D01*
X02524Y016944D01*
X025146Y017007D01*
Y017007D01*
X024775D01*
X024017Y017764D01*
Y018511D01*
X024135D01*
Y019013D01*
X025765D01*
Y018974D01*
X026596D01*
Y019013D01*
X02675D01*
X02696Y0191D01*
X02731Y01945D01*
X027398Y019661D01*
Y020461D01*
X02731Y020671D01*
X026755Y021227D01*
X026675Y021376D01*
X026713Y021516D01*
X026793Y021711D01*
X025807D01*
X025863Y021575D01*
X025752Y021408D01*
X024348D01*
X024237Y021575D01*
X024293Y021711D01*
X0238D01*
Y021761D01*
X02375D01*
Y022254D01*
X023436Y022124D01*
X023436Y022122D01*
X023194Y022062D01*
X023148Y0221D01*
Y022811D01*
X02306Y023021D01*
X022819Y023263D01*
X022901Y023463D01*
X023355D01*
X023398Y023359D01*
X0238Y023192D01*
X024202Y023359D01*
X024245Y023463D01*
X025855D01*
X025898Y023359D01*
D02*
G37*
G36*
X035806Y015216D02*
X03615Y015074D01*
X036494Y015216D01*
X036542Y015331D01*
X036758D01*
X036806Y015216D01*
X036897Y015178D01*
X036885Y014967D01*
X036644Y014867D01*
X036626Y014824D01*
X036382Y014757D01*
X036258Y014808D01*
X029573D01*
X029243Y015138D01*
X029357Y015308D01*
X029525Y015238D01*
X03349D01*
X033701Y015325D01*
X033789Y015413D01*
X035724D01*
X035806Y015216D01*
D02*
G37*
G36*
X034333Y021213D02*
X034293Y021196D01*
X033855Y020758D01*
X033318D01*
X033283Y020843D01*
X0329Y021002D01*
X032517Y020843D01*
X032359Y020461D01*
X032517Y020078D01*
X0329Y01992D01*
X033283Y020078D01*
X033318Y020163D01*
X033886D01*
X033921Y020111D01*
Y019711D01*
X034032Y019443D01*
X0343Y019332D01*
X034568Y019443D01*
X034679Y019711D01*
Y020111D01*
X034568Y020379D01*
X034562Y020568D01*
X034667Y020688D01*
X037114D01*
X037226Y020522D01*
X037159Y020361D01*
X037317Y019978D01*
X0377Y01982D01*
X038083Y019978D01*
X038118Y020063D01*
X038578D01*
X038621Y020034D01*
Y019711D01*
X038732Y019443D01*
X039Y019332D01*
X039268Y019443D01*
X039379Y019711D01*
Y020111D01*
X039441Y020117D01*
X039621Y01993D01*
Y019711D01*
X039702Y019515D01*
Y019184D01*
X039377Y018858D01*
X036073D01*
X035598Y019334D01*
Y019515D01*
X035679Y019711D01*
Y020111D01*
X035568Y020379D01*
X0353Y02049D01*
X035032Y020379D01*
X034921Y020111D01*
Y019711D01*
X035002Y019515D01*
Y019211D01*
X03509Y019D01*
X03574Y01835D01*
X03595Y018263D01*
X0395D01*
X039536Y018278D01*
X039702Y018167D01*
Y017911D01*
X03979Y0177D01*
X041017Y016473D01*
X040978Y016277D01*
X040806Y016205D01*
X040758Y016091D01*
X040542D01*
X040494Y016205D01*
X04015Y016348D01*
X039806Y016205D01*
X039758Y016091D01*
X039542D01*
X039494Y016205D01*
X03915Y016348D01*
X038997Y016284D01*
X038623Y016659D01*
Y01712D01*
X038535Y01733D01*
X038169Y017696D01*
X037959Y017783D01*
X037441D01*
X037231Y017696D01*
X036668Y017133D01*
X033659D01*
X033448Y017046D01*
X033402Y017055D01*
X033283Y017343D01*
X0329Y017502D01*
X032815Y017467D01*
X031648Y018634D01*
Y019465D01*
X031729Y019661D01*
Y020061D01*
X031618Y020329D01*
X03135Y02044D01*
X031082Y020329D01*
X030971Y020061D01*
Y019661D01*
X031052Y019465D01*
Y018511D01*
X03114Y0183D01*
X032394Y017046D01*
X032359Y016961D01*
X032426Y0168D01*
X032314Y016633D01*
X030548D01*
X029298Y017884D01*
Y019247D01*
X02935Y019282D01*
X029618Y019393D01*
X029729Y019661D01*
Y019662D01*
X029771Y01969D01*
X029824Y019682D01*
X029996Y0196D01*
X030082Y019393D01*
X03035Y019282D01*
X030618Y019393D01*
X030729Y019661D01*
Y020061D01*
X030618Y020329D01*
X03055Y020357D01*
X030503Y020593D01*
X031323Y021413D01*
X034294D01*
X034333Y021213D01*
D02*
G37*
G36*
X042016Y020344D02*
X042167Y019978D01*
X04255Y01982D01*
X042902Y019965D01*
X043102Y019886D01*
Y017834D01*
X042635Y017367D01*
X04255Y017402D01*
X042167Y017243D01*
X042009Y016861D01*
X042061Y016734D01*
X041951Y016563D01*
X04178Y016552D01*
X040298Y018034D01*
Y019061D01*
Y019515D01*
X040379Y019711D01*
Y020111D01*
X040441Y020117D01*
X040621Y01993D01*
Y019711D01*
X040732Y019443D01*
X041Y019332D01*
X041268Y019443D01*
X041379Y019711D01*
Y020111D01*
X041374Y020122D01*
X041485Y020288D01*
X041554D01*
X041764Y020375D01*
X041824Y020435D01*
X042016Y020344D01*
D02*
G37*
G36*
X013123Y01962D02*
Y019359D01*
X013Y019194D01*
X012827Y019122D01*
X012627Y019256D01*
Y019854D01*
X012812Y01993D01*
X013123Y01962D01*
D02*
G37*
G36*
X043102Y021432D02*
Y020835D01*
X042902Y020756D01*
X04255Y020902D01*
X04253Y020894D01*
X042377Y021047D01*
X042423Y021157D01*
Y02185D01*
X042607Y021927D01*
X043102Y021432D01*
D02*
G37*
G36*
X02924Y0143D02*
X02945Y014213D01*
X031698D01*
X031781Y014013D01*
X031525Y013757D01*
X03135Y013829D01*
X030948Y013663D01*
X030876Y013488D01*
X029324D01*
X029252Y013663D01*
X02885Y013829D01*
X028448Y013663D01*
X028347Y013418D01*
X028111Y013371D01*
X027631Y013851D01*
X02747Y013918D01*
X027057D01*
X027017Y014118D01*
X027283Y014228D01*
X027441Y014611D01*
X027283Y014993D01*
X027176Y015038D01*
Y015238D01*
X027244Y015266D01*
X027366Y015561D01*
X0269D01*
Y015661D01*
X027366D01*
X027244Y015955D01*
X026984Y016063D01*
X027024Y016263D01*
X027277D01*
X02924Y0143D01*
D02*
G37*
G36*
X031591Y025289D02*
X031748Y024909D01*
X03215Y024742D01*
X032552Y024909D01*
X032595Y025013D01*
X033877D01*
X03645Y02244D01*
X036336Y022271D01*
X03615Y022348D01*
X035806Y022205D01*
X035724Y022008D01*
X0312D01*
X03099Y021921D01*
X030085Y021017D01*
X029885Y0211D01*
Y024916D01*
X029989Y024959D01*
X030104Y025236D01*
X030321D01*
X030436Y024959D01*
X030837Y024792D01*
X031239Y024959D01*
X031397Y025339D01*
X031591Y025289D01*
D02*
G37*
G36*
X026348Y025909D02*
X026348Y025713D01*
X026191Y025332D01*
X025997D01*
X025839Y025713D01*
X025839Y025909D01*
X025997Y026289D01*
X026191D01*
X026348Y025909D01*
D02*
G37*
G36*
X026419Y015626D02*
X026413Y015611D01*
X026556Y015266D01*
X026624Y015238D01*
Y015038D01*
X026517Y014993D01*
X026359Y014611D01*
X026517Y014228D01*
X026783Y014118D01*
X026743Y013918D01*
X023502D01*
X0234Y013986D01*
Y014361D01*
X02315Y014611D01*
X02265D01*
X022499Y014459D01*
X022388Y014367D01*
X022237Y014449D01*
X022125Y014561D01*
X02195D01*
Y014011D01*
X02185D01*
Y014561D01*
X021675D01*
X021601Y014487D01*
X021485Y01451D01*
X021391Y014583D01*
X021387Y014626D01*
X021773Y015013D01*
X0254D01*
X02561Y0151D01*
X02625Y01574D01*
X026419Y015626D01*
D02*
G37*
G36*
X042511Y015643D02*
X041327Y014458D01*
X04038D01*
X040303Y014643D01*
X04036Y0147D01*
X040448Y014911D01*
Y015197D01*
X040494Y015216D01*
X040542Y015331D01*
X040758D01*
X040806Y015216D01*
X04115Y015074D01*
X041494Y015216D01*
X041637Y015561D01*
Y015753D01*
X041661Y015871D01*
X041822Y015938D01*
X042511D01*
Y015643D01*
D02*
G37*
G36*
X039806Y015216D02*
X039808Y015215D01*
X03983Y015012D01*
X039677Y014858D01*
X037393D01*
X037322Y014929D01*
X037369Y015164D01*
X037494Y015216D01*
X037542Y015331D01*
X037758D01*
X037806Y015216D01*
X03815Y015074D01*
X038494Y015216D01*
X038542Y015331D01*
X038758D01*
X038806Y015216D01*
X03915Y015074D01*
X039494Y015216D01*
X039542Y015331D01*
X039758D01*
X039806Y015216D01*
D02*
G37*
G36*
X040025Y023943D02*
X039949Y023758D01*
X039723D01*
X03899Y024492D01*
X038992Y024512D01*
X039033Y024611D01*
X039008Y024672D01*
X039009Y024686D01*
X039173Y024796D01*
X040025Y023943D01*
D02*
G37*
G36*
X044252Y035537D02*
Y035071D01*
X044052Y034951D01*
X04385Y035035D01*
X043547Y034909D01*
X043545Y034904D01*
X042628D01*
X042256Y035276D01*
X042332Y035461D01*
X0431D01*
Y035613D01*
X044177D01*
X044252Y035537D01*
D02*
G37*
G36*
X027143Y043396D02*
X027487Y043253D01*
X027514Y043264D01*
X027673Y043106D01*
Y0428D01*
X027739Y042639D01*
X028099Y042279D01*
X028127Y042268D01*
Y042052D01*
X028078Y042031D01*
X027799Y041753D01*
X027666Y041786D01*
X027602Y041817D01*
X027526Y042033D01*
X027558Y042111D01*
X0272D01*
Y042161D01*
X02715D01*
Y042519D01*
X026932Y042429D01*
X026866Y04227D01*
X026636Y042217D01*
X026552Y042301D01*
X026391Y042368D01*
X023378D01*
X022618Y043127D01*
X022657Y043324D01*
X022832Y043396D01*
X022879Y04351D01*
X023096D01*
X023143Y043396D01*
X023487Y043253D01*
X023832Y043396D01*
X023879Y04351D01*
X024096D01*
X024143Y043396D01*
X024487Y043253D01*
X024832Y043396D01*
X024879Y04351D01*
X025096D01*
X025143Y043396D01*
X025487Y043253D01*
X025832Y043396D01*
X025879Y04351D01*
X026096D01*
X026143Y043396D01*
X026487Y043253D01*
X026832Y043396D01*
X026879Y04351D01*
X027096D01*
X027143Y043396D01*
D02*
G37*
G36*
X035759Y047633D02*
X03556Y047551D01*
X035378Y047111D01*
X03556Y046671D01*
X035773Y046582D01*
Y046361D01*
X035839Y0462D01*
X037506Y044533D01*
X0375Y044469D01*
X0374Y044294D01*
X037094Y044167D01*
X036967Y043861D01*
X037Y043782D01*
X036689Y043472D01*
X036453Y043518D01*
X03644Y043551D01*
X036Y043733D01*
X035787Y043645D01*
X034427Y045005D01*
Y046464D01*
X034583Y046528D01*
X034741Y046911D01*
X034583Y047293D01*
X0342Y047452D01*
X033817Y047293D01*
X033659Y046911D01*
X033817Y046528D01*
X033973Y046464D01*
Y044911D01*
X034039Y04475D01*
X035466Y043323D01*
X035378Y043111D01*
X035466Y042898D01*
X034666Y042098D01*
X030985D01*
X030945Y042298D01*
X031056Y042344D01*
X031183Y04265D01*
X031056Y042956D01*
X03075Y043083D01*
X030444Y042956D01*
X030411Y042877D01*
X029381D01*
X029298Y043077D01*
X029478Y043257D01*
X029487Y043253D01*
X029832Y043396D01*
X029879Y04351D01*
X030096D01*
X030143Y043396D01*
X030487Y043253D01*
X030832Y043396D01*
X030906Y043575D01*
X031123D01*
X031181Y043434D01*
X031437Y043328D01*
Y04404D01*
X031487D01*
Y04409D01*
X03192D01*
Y04434D01*
X03184Y044533D01*
X031968Y044733D01*
X032556D01*
X033723Y043566D01*
X033659Y043411D01*
X033817Y043028D01*
X0342Y04287D01*
X034583Y043028D01*
X034741Y043411D01*
X034583Y043793D01*
X0342Y043952D01*
X034045Y043888D01*
X032811Y045121D01*
X03265Y045188D01*
X031387D01*
X031226Y045121D01*
X030802Y044697D01*
X030487Y044827D01*
X030143Y044685D01*
X030096Y04457D01*
X029879D01*
X029832Y044685D01*
X029487Y044827D01*
X029143Y044685D01*
X029096Y04457D01*
X028879D01*
X028832Y044685D01*
X028487Y044827D01*
X028358Y044774D01*
X027161Y045971D01*
X027077Y046006D01*
X026951Y046222D01*
X026983Y0463D01*
X02695Y046379D01*
X027386Y046814D01*
X027641Y04692D01*
X027692Y047043D01*
X027908D01*
X027959Y04692D01*
X0283Y046779D01*
X028641Y04692D01*
X028692Y047043D01*
X028908D01*
X028959Y04692D01*
X0293Y046779D01*
X029641Y04692D01*
X029692Y047043D01*
X029908D01*
X029959Y04692D01*
X0303Y046779D01*
X030641Y04692D01*
X030692Y047043D01*
X030908D01*
X030959Y04692D01*
X0313Y046779D01*
X031641Y04692D01*
X031782Y047261D01*
X031641Y047601D01*
X031564Y047633D01*
X031604Y047833D01*
X03572D01*
X035759Y047633D01*
D02*
G37*
G36*
X049134Y044081D02*
X048934Y043999D01*
X048361Y044571D01*
X0482Y044638D01*
X047951D01*
X047889Y044714D01*
X047952Y044957D01*
X048523Y045193D01*
X048868Y046025D01*
X048523Y046857D01*
X047691Y047202D01*
X046859Y046857D01*
X046829Y046786D01*
X046593Y046739D01*
X045149Y048184D01*
X045231Y048384D01*
X049134D01*
Y044081D01*
D02*
G37*
G36*
X030444Y042344D02*
X030555Y042298D01*
X030515Y042098D01*
X029289D01*
X029229Y042275D01*
X029365Y042423D01*
X030411D01*
X030444Y042344D01*
D02*
G37*
G36*
X0374Y043428D02*
X037466Y043455D01*
X037633Y043344D01*
Y041365D01*
X0371Y040832D01*
X0369Y040909D01*
Y041811D01*
X036D01*
Y041731D01*
X0358Y041692D01*
X035794Y041705D01*
X03545Y041848D01*
X035265Y041771D01*
X035151Y041941D01*
X035787Y042576D01*
X036Y042488D01*
X03644Y042671D01*
X036528Y042883D01*
X03665D01*
X036811Y04295D01*
X037321Y04346D01*
X0374Y043428D01*
D02*
G37*
G36*
X017143Y043396D02*
X017487Y043253D01*
X017802Y043383D01*
X018067Y043118D01*
X017999Y042918D01*
X016885D01*
X016644Y043158D01*
X016697Y04335D01*
X016873Y043526D01*
X017085Y043535D01*
X017143Y043396D01*
D02*
G37*
G36*
X038813Y047467D02*
X038768Y047359D01*
Y047162D01*
X038909Y046821D01*
X038922Y0466D01*
X038822Y046359D01*
Y046311D01*
X03925D01*
Y046261D01*
X0393D01*
Y045755D01*
X039553Y04586D01*
X039642Y046075D01*
X039858D01*
X039947Y04586D01*
X0402Y045755D01*
Y046261D01*
X0403D01*
Y045755D01*
X040553Y04586D01*
X040642Y046075D01*
X040858D01*
X040947Y04586D01*
X0412Y045755D01*
Y046261D01*
X0413D01*
Y045755D01*
X041553Y04586D01*
X041642Y046075D01*
X041858D01*
X041947Y04586D01*
X0422Y045755D01*
Y046261D01*
X0423D01*
Y045755D01*
X042553Y04586D01*
X042615Y04601D01*
X042831D01*
X042909Y045821D01*
X043137Y045727D01*
X043097Y045527D01*
X039689D01*
X039528Y045461D01*
X038272Y044204D01*
X038087Y044281D01*
Y044501D01*
X038021Y044661D01*
X036284Y046398D01*
X036315Y046619D01*
X03644Y046671D01*
X036622Y047111D01*
X036534Y047323D01*
X036844Y047633D01*
X038702D01*
X038813Y047467D01*
D02*
G37*
G36*
X046317Y046373D02*
Y04555D01*
X046383Y045389D01*
X047523Y04425D01*
X047523Y04425D01*
X047683Y044183D01*
X047683Y044183D01*
X048106D01*
X048611Y043679D01*
Y043295D01*
X048444Y043184D01*
X04825Y043264D01*
X047881Y043111D01*
X047815Y042952D01*
X047615Y042992D01*
Y04377D01*
X046649D01*
Y042804D01*
X046815D01*
X046855Y042604D01*
X046762Y042566D01*
X046609Y042197D01*
X046639Y042125D01*
X04609Y041575D01*
X046002Y041365D01*
Y037634D01*
X045562Y037193D01*
X045486Y037193D01*
X045403Y037392D01*
X04566Y03765D01*
X045748Y037861D01*
Y039861D01*
X04566Y040071D01*
X044749Y040982D01*
X044748Y041242D01*
X044795Y041286D01*
X04506Y041396D01*
X045149Y041611D01*
X044795D01*
Y041661D01*
X044745D01*
Y042015D01*
X044695Y041994D01*
X044601Y042057D01*
Y042057D01*
X043809D01*
Y041265D01*
X043907D01*
Y041106D01*
X043994Y040895D01*
X045152Y039737D01*
Y039108D01*
X044952Y038974D01*
X044795Y039039D01*
X044645Y038977D01*
X044601Y039007D01*
Y039007D01*
X043809D01*
Y038215D01*
X044601D01*
Y038215D01*
X044645Y038244D01*
X044795Y038182D01*
X044918Y038233D01*
X04509Y038123D01*
X045103Y037935D01*
X044377Y037208D01*
X043014D01*
X042994Y037255D01*
X04288Y037302D01*
Y037519D01*
X042994Y037566D01*
X043137Y037911D01*
X042994Y038255D01*
X04288Y038302D01*
Y038519D01*
X042994Y038566D01*
X043137Y038911D01*
X042994Y039255D01*
X04288Y039302D01*
Y039519D01*
X042994Y039566D01*
X043137Y039911D01*
X042994Y040255D01*
X04288Y040302D01*
Y040519D01*
X042994Y040566D01*
X043137Y040911D01*
X042994Y041255D01*
X04288Y041302D01*
Y041519D01*
X042994Y041566D01*
X043137Y041911D01*
X042994Y042255D01*
X04288Y042302D01*
Y042519D01*
X042994Y042566D01*
X043097Y042814D01*
X043909Y042478D01*
X044777Y042837D01*
X045136Y043706D01*
X044777Y044574D01*
X043909Y044933D01*
X043041Y044574D01*
X042681Y043706D01*
X042741Y04356D01*
X042592Y043398D01*
X04235D01*
X042006Y043255D01*
X041863Y042911D01*
X042006Y042566D01*
X04212Y042519D01*
Y042302D01*
X042006Y042255D01*
X041863Y041911D01*
X042006Y041566D01*
X04212Y041519D01*
Y041302D01*
X042006Y041255D01*
X041863Y040911D01*
X041926Y040758D01*
X040512Y039344D01*
X040435Y039359D01*
X040099Y039696D01*
X040056Y039714D01*
X040137Y039911D01*
X039994Y040255D01*
X03988Y040302D01*
Y040519D01*
X039994Y040566D01*
X040137Y040911D01*
X039994Y041255D01*
X03988Y041302D01*
Y041519D01*
X039994Y041566D01*
X040137Y041911D01*
X039994Y042255D01*
X03988Y042302D01*
Y042519D01*
X039994Y042566D01*
X040137Y042911D01*
X039994Y043255D01*
X03965Y043398D01*
X03935D01*
X039006Y043255D01*
X038863Y042911D01*
X039006Y042566D01*
X03912Y042519D01*
Y042302D01*
X039006Y042255D01*
X038863Y041911D01*
X039006Y041566D01*
X03912Y041519D01*
Y041302D01*
X039006Y041255D01*
X038863Y040911D01*
X038926Y040758D01*
X037052Y038883D01*
X032219D01*
X032108Y03905D01*
X032133Y039111D01*
X032006Y039417D01*
X031943Y039443D01*
X03201Y039632D01*
X032306Y039755D01*
X032339Y039833D01*
X037032D01*
X037193Y0399D01*
X038291Y040998D01*
X038357Y041159D01*
Y043647D01*
X039783Y045073D01*
X040478D01*
X040532Y044879D01*
X040442Y044661D01*
X041158D01*
X041068Y044879D01*
X041122Y045073D01*
X043489D01*
X04365Y045139D01*
X044061Y04555D01*
X044127Y045711D01*
Y046611D01*
X044061Y046771D01*
X043695Y047137D01*
Y047804D01*
X043853Y047907D01*
X044782D01*
X046317Y046373D01*
D02*
G37*
G36*
X025959Y04692D02*
X026219Y046812D01*
X026243Y046617D01*
X026239Y046594D01*
X026117Y0463D01*
X026118Y046297D01*
X025949Y046183D01*
X025527Y046605D01*
Y046873D01*
X025641Y04692D01*
X025692Y047043D01*
X025908D01*
X025959Y04692D01*
D02*
G37*
G36*
X022301Y048184D02*
X021594Y047476D01*
X021397Y047515D01*
X021341Y047651D01*
X021Y047793D01*
X020659Y047651D01*
X020608Y047528D01*
X020392D01*
X020341Y047651D01*
X02Y047793D01*
X019659Y047651D01*
X019608Y047528D01*
X019392D01*
X019341Y047651D01*
X019Y047793D01*
X018659Y047651D01*
X018608Y047528D01*
X018392D01*
X018341Y047651D01*
X018Y047793D01*
X017659Y047651D01*
X017608Y047528D01*
X017392D01*
X017341Y047651D01*
X017Y047793D01*
X016659Y047651D01*
X016608Y047528D01*
X016392D01*
X016341Y047651D01*
X016Y047793D01*
X015659Y047651D01*
X015608Y047528D01*
X015392D01*
X015341Y047651D01*
X015Y047793D01*
X014659Y047651D01*
X014645Y047618D01*
X014445Y047658D01*
Y047756D01*
X013555D01*
Y046865D01*
X014445D01*
Y046964D01*
X014645Y047004D01*
X014659Y04697D01*
X015Y046829D01*
X015341Y04697D01*
X015392Y047093D01*
X015608D01*
X015659Y04697D01*
X016Y046829D01*
X016341Y04697D01*
X016392Y047093D01*
X016608D01*
X016659Y04697D01*
X017Y046829D01*
X017341Y04697D01*
X017392Y047093D01*
X017608D01*
X017659Y04697D01*
X018Y046829D01*
X018341Y04697D01*
X018392Y047093D01*
X018608D01*
X018659Y04697D01*
X019Y046829D01*
X019341Y04697D01*
X019351Y046994D01*
X019575Y047014D01*
X019652Y046911D01*
X019634Y046764D01*
X018218Y045348D01*
X016139D01*
X015978Y045281D01*
X015547Y04485D01*
X015481Y044692D01*
X015468Y044684D01*
X01528Y044609D01*
X01445Y044953D01*
X013582Y044593D01*
X013222Y043725D01*
X013582Y042857D01*
X01445Y042498D01*
X015318Y042857D01*
X015412Y043083D01*
X015648Y04313D01*
X016518Y042259D01*
X016518Y042259D01*
X016679Y042193D01*
X016679Y042193D01*
X021146D01*
X021326Y042013D01*
X021279Y041777D01*
X021106Y041705D01*
X021058Y041591D01*
X020842D01*
X020794Y041705D01*
X02045Y041848D01*
X020106Y041705D01*
X020058Y041591D01*
X019842D01*
X019794Y041705D01*
X01945Y041848D01*
X019106Y041705D01*
X019058Y041591D01*
X018842D01*
X018794Y041705D01*
X01845Y041848D01*
X018106Y041705D01*
X018058Y041591D01*
X017842D01*
X017794Y041705D01*
X01745Y041848D01*
X017106Y041705D01*
X016963Y041361D01*
Y041203D01*
X016763Y04112D01*
X016151Y041731D01*
X015991Y041798D01*
X013736D01*
X013575Y041731D01*
X011979Y040135D01*
X011913Y039974D01*
Y020542D01*
X011979Y020381D01*
X012173Y020188D01*
Y014311D01*
X012239Y01415D01*
X015489Y0109D01*
X01565Y010833D01*
X028129D01*
X028261Y010701D01*
X028184Y010516D01*
X011666D01*
Y03905D01*
Y048384D01*
X022219D01*
X022301Y048184D01*
D02*
G37*
G36*
X022736Y047851D02*
X022808Y04764D01*
X021327Y046159D01*
X02126Y045998D01*
Y044733D01*
X021143Y044685D01*
X021096Y04457D01*
X020879D01*
X020832Y044685D01*
X020487Y044827D01*
X020143Y044685D01*
X020096Y04457D01*
X019879D01*
X019832Y044685D01*
X019725Y044729D01*
X019686Y044925D01*
X022625Y047864D01*
X022736Y047851D01*
D02*
G37*
G36*
X023855Y046815D02*
X024745D01*
Y046848D01*
X024945Y046913D01*
X025073Y046816D01*
Y046511D01*
X025139Y04635D01*
X025879Y04561D01*
X025947Y045582D01*
X026071Y045359D01*
X026067Y04535D01*
X026194Y045044D01*
X02626Y045016D01*
Y044733D01*
X026143Y044685D01*
X026096Y04457D01*
X025879D01*
X025832Y044685D01*
X025487Y044827D01*
X025143Y044685D01*
X025096Y04457D01*
X024879D01*
X024832Y044685D01*
X024487Y044827D01*
X024143Y044685D01*
X024096Y04457D01*
X023879D01*
X023832Y044685D01*
X023487Y044827D01*
X023143Y044685D01*
X023096Y04457D01*
X022879D01*
X022832Y044685D01*
X022487Y044827D01*
X022143Y044685D01*
X022096Y04457D01*
X021879D01*
X021832Y044685D01*
X021715Y044733D01*
Y045904D01*
X023444Y047633D01*
X023855D01*
Y046815D01*
D02*
G37*
G36*
X027477Y045012D02*
X027411Y044796D01*
X027143Y044685D01*
X027096Y04457D01*
X026879D01*
X026832Y044685D01*
X026715Y044733D01*
Y045006D01*
X026806Y045044D01*
X026911Y045296D01*
X027118Y045372D01*
X027477Y045012D01*
D02*
G37*
G36*
X01641Y038383D02*
X016395Y038358D01*
X014398D01*
X014383Y038383D01*
X014497Y038583D01*
X016295D01*
X01641Y038383D01*
D02*
G37*
G36*
X047771Y042636D02*
X047881Y042372D01*
X048044Y042305D01*
Y042088D01*
X047881Y042021D01*
X047728Y041651D01*
X047881Y041282D01*
X048044Y041214D01*
Y040998D01*
X047881Y04093D01*
X047728Y040561D01*
X047881Y040191D01*
X048044Y040124D01*
Y039907D01*
X047881Y03984D01*
X047728Y03947D01*
X047881Y039101D01*
X04825Y038948D01*
X048444Y039028D01*
X048611Y038917D01*
Y037192D01*
X048411Y037065D01*
X047691Y037363D01*
X046859Y037019D01*
X046514Y036187D01*
X046859Y035355D01*
X047691Y03501D01*
X048244Y035239D01*
X048495Y035131D01*
X048503Y03511D01*
X048089Y034696D01*
X048023Y034536D01*
Y032885D01*
X047848Y032813D01*
X047682Y032411D01*
X047737Y032278D01*
X047567Y032164D01*
X04706Y032671D01*
X04685Y032758D01*
X04657D01*
X04653Y032958D01*
X046652Y033009D01*
X046818Y033411D01*
X046652Y033813D01*
X04625Y033979D01*
X045848Y033813D01*
X045682Y033411D01*
X045848Y033009D01*
X04597Y032958D01*
X04593Y032758D01*
X045419D01*
X044806Y033371D01*
X044741Y033398D01*
X044694Y033634D01*
X04476Y0337D01*
X044848Y033911D01*
Y035661D01*
X04476Y035871D01*
X04451Y036121D01*
X0443Y036208D01*
X0431D01*
Y036361D01*
X0431D01*
X04312Y036552D01*
X043168Y036613D01*
X0445D01*
X04471Y0367D01*
X044942Y036932D01*
X045112Y036819D01*
X045067Y036711D01*
X045194Y036405D01*
X0455Y036278D01*
X045806Y036405D01*
X045933Y036711D01*
X045929Y036719D01*
X04651Y0373D01*
X046598Y037511D01*
Y038561D01*
X046798Y038601D01*
X046801Y038594D01*
X047082Y038477D01*
Y038925D01*
X047132D01*
Y038975D01*
X047579D01*
X047463Y039256D01*
X047273Y039335D01*
Y039551D01*
X047501Y039646D01*
X047654Y040015D01*
X047501Y040385D01*
X047338Y040452D01*
Y040669D01*
X047501Y040737D01*
X047654Y041106D01*
X047501Y041475D01*
X047338Y041543D01*
Y041759D01*
X047501Y041827D01*
X047654Y042197D01*
X047501Y042566D01*
X047581Y042733D01*
X047771Y042636D01*
D02*
G37*
G36*
X01585Y04074D02*
X015817Y040661D01*
X015944Y040355D01*
X01625Y040228D01*
X016556Y040355D01*
X016747Y040392D01*
X017139Y04D01*
X0173Y039933D01*
X0181D01*
X018261Y04D01*
X018611Y04035D01*
X018677Y040511D01*
Y040668D01*
X018794Y040716D01*
X018842Y040831D01*
X019058D01*
X019106Y040716D01*
X01945Y040574D01*
X019794Y040716D01*
X019842Y040831D01*
X020058D01*
X020106Y040716D01*
X020223Y040668D01*
Y040476D01*
X020023Y040343D01*
X0199Y040394D01*
X019594Y040267D01*
X019467Y039961D01*
X01947Y039953D01*
X018826Y039308D01*
X013561D01*
X013561Y039308D01*
X0134Y039241D01*
X012822Y038663D01*
X012637Y03874D01*
Y039738D01*
X012764Y039849D01*
X012965Y039805D01*
X013017Y039678D01*
X0134Y03952D01*
X013783Y039678D01*
X013827Y039785D01*
X014027D01*
X014056Y039716D01*
X01435Y039594D01*
Y040061D01*
Y040527D01*
X014056Y040405D01*
X014027Y040336D01*
X013827D01*
X013783Y040443D01*
X013717Y040471D01*
X013678Y040667D01*
X013894Y040883D01*
X015706D01*
X01585Y04074D01*
D02*
G37*
G36*
X012923Y018222D02*
Y017281D01*
X012989Y01712D01*
X013599Y01651D01*
X01376Y016443D01*
X0142D01*
Y015311D01*
X0161D01*
Y016443D01*
X016943D01*
X017341Y016045D01*
X017264Y015861D01*
X0172D01*
Y014961D01*
Y014061D01*
X01775D01*
Y014596D01*
X017935Y014673D01*
X019707Y0129D01*
X019868Y012833D01*
X021796D01*
X021835Y012633D01*
X021441Y01247D01*
X021271Y012061D01*
X0219D01*
X022529D01*
X022359Y01247D01*
X021965Y012633D01*
X022004Y012833D01*
X026358D01*
X026411Y012855D01*
X026567Y012478D01*
X026674Y012434D01*
Y012234D01*
X026606Y012205D01*
X026484Y011911D01*
X02695D01*
X027416D01*
X027294Y012205D01*
X027226Y012234D01*
Y012434D01*
X027333Y012478D01*
X027402Y012644D01*
X027598Y012683D01*
X028454Y011827D01*
X028476Y011689D01*
X028471Y011588D01*
X028336Y011261D01*
X028262Y011272D01*
X028223Y011288D01*
X027266D01*
X027226Y011488D01*
X027294Y011516D01*
X027416Y011811D01*
X02695D01*
X026484D01*
X026606Y011516D01*
X026674Y011488D01*
X026634Y011288D01*
X022246D01*
X022206Y011488D01*
X022359Y011551D01*
X022529Y011961D01*
X0219D01*
X021271D01*
X021441Y011551D01*
X021594Y011488D01*
X021554Y011288D01*
X015744D01*
X014371Y012661D01*
X014454Y012861D01*
X0151D01*
Y013411D01*
X01425D01*
Y013065D01*
X01405Y012982D01*
X012627Y014405D01*
Y018154D01*
X012823Y018276D01*
X012923Y018222D01*
D02*
G37*
G36*
X030684Y040123D02*
X030617Y039961D01*
X030744Y039655D01*
X03105Y039528D01*
X03127Y039619D01*
X031407Y039482D01*
X031394Y039417D01*
X031267Y039111D01*
X031165Y038958D01*
X030778D01*
X029598Y040139D01*
X029675Y040323D01*
X030551D01*
X030684Y040123D01*
D02*
G37*
G36*
X022106Y040716D02*
X02245Y040574D01*
X022603Y040637D01*
X02319Y04005D01*
X023315Y039998D01*
X023217Y039761D01*
X023344Y039455D01*
X02365Y039328D01*
X023956Y039455D01*
X02396Y039463D01*
X028866D01*
X030354Y037975D01*
X030564Y037888D01*
X037775D01*
X037985Y037975D01*
X038753Y038742D01*
X038949Y038703D01*
X039006Y038566D01*
X03912Y038519D01*
Y038302D01*
X039006Y038255D01*
X038863Y037911D01*
X039006Y037566D01*
X039185Y037492D01*
Y037275D01*
X039044Y037217D01*
X038938Y036961D01*
X0395D01*
Y036861D01*
X038938D01*
X039044Y036605D01*
X039185Y036546D01*
Y03633D01*
X039006Y036255D01*
X038997Y036233D01*
X028533D01*
X028498Y036286D01*
Y036851D01*
X028506Y036855D01*
X028593Y037064D01*
X028682Y037087D01*
X028867Y037061D01*
X028994Y036755D01*
X0293Y036628D01*
X029606Y036755D01*
X029733Y037061D01*
X029606Y037367D01*
X0293Y037494D01*
X029292Y03749D01*
X02896Y037821D01*
X02875Y037908D01*
X028599D01*
X028417Y037983D01*
X027983D01*
X027772Y037896D01*
X027484Y037608D01*
X02625D01*
Y037761D01*
X0262D01*
X026113Y037961D01*
X026216Y038211D01*
X0256D01*
X024984D01*
X025087Y037961D01*
X025Y037761D01*
X02495D01*
Y036761D01*
X02625D01*
Y037013D01*
X027608D01*
X027796Y037091D01*
X027894Y036855D01*
X027902Y036851D01*
Y036409D01*
X027727Y036233D01*
X026575D01*
X026365Y036146D01*
X02624Y036021D01*
X026152Y035811D01*
Y035724D01*
X026106Y035705D01*
X026058Y035591D01*
X025842D01*
X025794Y035705D01*
X02545Y035848D01*
X025106Y035705D01*
X025058Y035591D01*
X024842D01*
X024794Y035705D01*
X02445Y035848D01*
X024106Y035705D01*
X024058Y035591D01*
X023842D01*
X023794Y035705D01*
X02345Y035848D01*
X023106Y035705D01*
X023058Y035591D01*
X022842D01*
X022794Y035705D01*
X02245Y035848D01*
X022106Y035705D01*
X022058Y035591D01*
X021842D01*
X021794Y035705D01*
X02145Y035848D01*
X021106Y035705D01*
X021058Y035591D01*
X020842D01*
X020794Y035705D01*
X02045Y035848D01*
X020106Y035705D01*
X020058Y035591D01*
X019842D01*
X019794Y035705D01*
X01945Y035848D01*
X019106Y035705D01*
X019058Y035591D01*
X018842D01*
X018794Y035705D01*
X01845Y035848D01*
X018106Y035705D01*
X018058Y035591D01*
X017842D01*
X017794Y035705D01*
X01745Y035848D01*
X017106Y035705D01*
X016963Y035361D01*
Y035061D01*
X017106Y034716D01*
X01745Y034574D01*
X017794Y034716D01*
X017826Y034791D01*
X018027Y03481D01*
X018101Y034726D01*
X018106Y034716D01*
X018113Y034713D01*
X018152Y03467D01*
Y034061D01*
X01824Y03385D01*
X018703Y033387D01*
X018626Y033202D01*
X014569D01*
X014529Y033402D01*
X014833Y033528D01*
X014877Y033635D01*
X015077D01*
X015106Y033566D01*
X0154Y033444D01*
Y033911D01*
Y034377D01*
X015106Y034255D01*
X015077Y034186D01*
X014877D01*
X014833Y034293D01*
X01445Y034452D01*
X014067Y034293D01*
X013909Y033911D01*
X013912Y033903D01*
X013742Y03379D01*
X013177Y034355D01*
Y035568D01*
X013377Y035647D01*
X01375Y035492D01*
X014152Y035659D01*
X014195Y035763D01*
X01665D01*
X01686Y03585D01*
X017392Y036381D01*
X0174Y036378D01*
X017706Y036505D01*
X017833Y036811D01*
X017706Y037117D01*
X0174Y037244D01*
X017094Y037117D01*
X016967Y036811D01*
X016971Y036802D01*
X016527Y036358D01*
X014195D01*
X014152Y036463D01*
X01375Y036629D01*
X013377Y036475D01*
X013177Y036553D01*
Y037568D01*
X013377Y037647D01*
X01375Y037492D01*
X014152Y037659D01*
X014195Y037763D01*
X01685D01*
X016857Y037766D01*
X01695Y037728D01*
X017256Y037855D01*
X017383Y038161D01*
X017291Y038383D01*
X017401Y038583D01*
X0195D01*
X019661Y03865D01*
X020611Y0396D01*
X020677Y039761D01*
Y040668D01*
X020794Y040716D01*
X020842Y040831D01*
X021058D01*
X021106Y040716D01*
X02145Y040574D01*
X021794Y040716D01*
X021842Y040831D01*
X022058D01*
X022106Y040716D01*
D02*
G37*
%LPC*%
G36*
X0192Y017127D02*
Y016711D01*
X019616D01*
X019494Y017005D01*
X0192Y017127D01*
D02*
G37*
G36*
X0191D02*
X018806Y017005D01*
X018684Y016711D01*
X0191D01*
Y017127D01*
D02*
G37*
G36*
X019616Y016611D02*
X0192D01*
Y016194D01*
X019494Y016316D01*
X019616Y016611D01*
D02*
G37*
G36*
X0191D02*
X018684D01*
X018806Y016316D01*
X0191Y016194D01*
Y016611D01*
D02*
G37*
G36*
X0169Y026868D02*
Y026511D01*
X017257D01*
X017153Y026763D01*
X0169Y026868D01*
D02*
G37*
G36*
X0168D02*
X016547Y026763D01*
X016443Y026511D01*
X0168D01*
Y026868D01*
D02*
G37*
G36*
X0196Y028993D02*
X019259Y028851D01*
X019208Y028728D01*
X018992D01*
X018941Y028851D01*
X0186Y028993D01*
X018259Y028851D01*
X018208Y028728D01*
X017992D01*
X017941Y028851D01*
X0176Y028993D01*
X017259Y028851D01*
X017208Y028728D01*
X016992D01*
X016941Y028851D01*
X0166Y028993D01*
X016259Y028851D01*
X016208Y028728D01*
X015992D01*
X015941Y028851D01*
X0156Y028993D01*
X015259Y028851D01*
X015208Y028728D01*
X014992D01*
X014941Y028851D01*
X0146Y028993D01*
X014259Y028851D01*
X014208Y028728D01*
X013992D01*
X013941Y028851D01*
X0136Y028993D01*
X013259Y028851D01*
X013118Y028511D01*
X013259Y02817D01*
X0136Y028029D01*
X013941Y02817D01*
X013992Y028293D01*
X014208D01*
X014259Y02817D01*
X0146Y028029D01*
X014941Y02817D01*
X014992Y028293D01*
X015208D01*
X015259Y02817D01*
X0156Y028029D01*
X015941Y02817D01*
X015992Y028293D01*
X016208D01*
X016259Y02817D01*
X0166Y028029D01*
X016941Y02817D01*
X016992Y028293D01*
X017208D01*
X017259Y02817D01*
X0176Y028029D01*
X017941Y02817D01*
X017992Y028293D01*
X018208D01*
X018259Y02817D01*
X0186Y028029D01*
X018941Y02817D01*
X018992Y028293D01*
X019208D01*
X019259Y02817D01*
X0196Y028029D01*
X019941Y02817D01*
X019955Y028204D01*
X020155Y028164D01*
Y028065D01*
X021045D01*
Y028956D01*
X020155D01*
Y028858D01*
X019955Y028818D01*
X019941Y028851D01*
X0196Y028993D01*
D02*
G37*
G36*
X021275Y023329D02*
X021225D01*
X020823Y023163D01*
X020657Y022761D01*
X020823Y022359D01*
X021225Y022192D01*
X021275D01*
X021677Y022359D01*
X021843Y022761D01*
X021677Y023163D01*
X021275Y023329D01*
D02*
G37*
G36*
X018768Y022711D02*
X0183D01*
Y022257D01*
X018639Y022397D01*
X018768Y022711D01*
D02*
G37*
G36*
X0182D02*
X017732D01*
X017861Y022397D01*
X0182Y022257D01*
Y022711D01*
D02*
G37*
G36*
X018804Y020856D02*
X01845D01*
X018096D01*
X018117Y020806D01*
X018054Y020711D01*
X018054D01*
Y019919D01*
X018846D01*
Y020711D01*
X018846D01*
X018783Y020806D01*
X018804Y020856D01*
D02*
G37*
G36*
X0184Y02126D02*
X018185Y021171D01*
X018096Y020956D01*
X0184D01*
Y02126D01*
D02*
G37*
G36*
X0185D02*
Y020956D01*
X018804D01*
X018715Y021171D01*
X0185Y02126D01*
D02*
G37*
G36*
X0168Y024411D02*
X016455D01*
Y024065D01*
X0168D01*
Y024411D01*
D02*
G37*
G36*
X014745Y026906D02*
X013855D01*
Y026015D01*
X013953D01*
X013993Y025815D01*
X013959Y025801D01*
X013818Y025461D01*
X013959Y02512D01*
X014082Y025069D01*
Y024852D01*
X013959Y024801D01*
X013818Y024461D01*
X013959Y02412D01*
X0143Y023979D01*
X014641Y02412D01*
X014782Y024461D01*
X014641Y024801D01*
X014518Y024852D01*
Y025069D01*
X014641Y02512D01*
X014782Y025461D01*
X014641Y025801D01*
X014607Y025815D01*
X014647Y026015D01*
X014745D01*
Y026906D01*
D02*
G37*
G36*
X017257Y025411D02*
X01685D01*
X016443D01*
X016547Y025158D01*
X016723Y025085D01*
X016794Y025056D01*
X016754Y024856D01*
X016455D01*
Y024511D01*
X01685D01*
X017245D01*
Y024856D01*
X016946D01*
X016906Y025056D01*
X016977Y025085D01*
X017153Y025158D01*
X017257Y025411D01*
D02*
G37*
G36*
X017245Y024411D02*
X0169D01*
Y024065D01*
X017245D01*
Y024411D01*
D02*
G37*
G36*
X017257Y026411D02*
X01685D01*
X016443D01*
X016547Y026158D01*
X016741Y026078D01*
X016763Y026069D01*
Y025852D01*
X016741Y025843D01*
X016547Y025763D01*
X016443Y025511D01*
X01685D01*
X017257D01*
X017153Y025763D01*
X016959Y025843D01*
X016937Y025852D01*
Y026069D01*
X016959Y026078D01*
X017153Y026158D01*
X017257Y026411D01*
D02*
G37*
G36*
X0183Y023264D02*
Y022811D01*
X018768D01*
X018639Y023124D01*
X0183Y023264D01*
D02*
G37*
G36*
X0182D02*
X017861Y023124D01*
X017732Y022811D01*
X0182D01*
Y023264D01*
D02*
G37*
G36*
X01565Y023552D02*
X015267Y023393D01*
X01525Y023352D01*
X01505D01*
X015033Y023393D01*
X01465Y023552D01*
X014267Y023393D01*
X01425Y023352D01*
X01405D01*
X014033Y023393D01*
X01365Y023552D01*
X013267Y023393D01*
X013109Y023011D01*
Y022911D01*
X013267Y022528D01*
X01365Y022369D01*
X014033Y022528D01*
X01405Y02257D01*
X01425D01*
X014267Y022528D01*
X01465Y022369D01*
X015033Y022528D01*
X01505Y02257D01*
X01525D01*
X015267Y022528D01*
X01565Y022369D01*
X016033Y022528D01*
X016191Y022911D01*
Y023011D01*
X016033Y023393D01*
X01565Y023552D01*
D02*
G37*
G36*
X0365Y011754D02*
X036186Y011624D01*
X036057Y011311D01*
X0365D01*
Y011754D01*
D02*
G37*
G36*
X033849Y03436D02*
X02955D01*
Y033061D01*
X033849D01*
Y03436D01*
D02*
G37*
G36*
X029149Y034311D02*
X02585D01*
Y033211D01*
X029149D01*
Y034311D01*
D02*
G37*
G36*
X03915Y011261D02*
X038707D01*
X038836Y010947D01*
X03915Y010817D01*
Y011261D01*
D02*
G37*
G36*
Y011804D02*
X038836Y011674D01*
X038707Y011361D01*
X03915D01*
Y011804D01*
D02*
G37*
G36*
X03925D02*
Y011361D01*
X039693D01*
X039564Y011674D01*
X03925Y011804D01*
D02*
G37*
G36*
X04165D02*
X041336Y011674D01*
X041207Y011361D01*
X04165D01*
Y011804D01*
D02*
G37*
G36*
X04175D02*
Y011361D01*
X042193D01*
X042064Y011674D01*
X04175Y011804D01*
D02*
G37*
G36*
X04475Y011604D02*
X044436Y011474D01*
X044307Y011161D01*
X04475D01*
Y011604D01*
D02*
G37*
G36*
X04725D02*
X046936Y011474D01*
X046807Y011161D01*
X04725D01*
Y011604D01*
D02*
G37*
G36*
X04485D02*
Y011161D01*
X045293D01*
X045164Y011474D01*
X04485Y011604D01*
D02*
G37*
G36*
X0473Y013679D02*
X046898Y013513D01*
X046855Y013408D01*
X045245D01*
X045202Y013513D01*
X0448Y013679D01*
X044398Y013513D01*
X044232Y013111D01*
X044398Y012709D01*
X0448Y012542D01*
X045202Y012709D01*
X045245Y012813D01*
X046855D01*
X046898Y012709D01*
X0473Y012542D01*
X047702Y012709D01*
X047868Y013111D01*
X047702Y013513D01*
X0473Y013679D01*
D02*
G37*
G36*
X04735Y011604D02*
Y011161D01*
X047793D01*
X047664Y011474D01*
X04735Y011604D01*
D02*
G37*
G36*
X039693Y011261D02*
X03925D01*
Y010817D01*
X039564Y010947D01*
X039693Y011261D01*
D02*
G37*
G36*
X04165D02*
X041207D01*
X041336Y010947D01*
X04165Y010817D01*
Y011261D01*
D02*
G37*
G36*
X042193D02*
X04175D01*
Y010817D01*
X042064Y010947D01*
X042193Y011261D01*
D02*
G37*
G36*
X0462Y031361D02*
X045757D01*
X045886Y031047D01*
X0462Y030917D01*
Y031361D01*
D02*
G37*
G36*
X04405Y030052D02*
X043667Y029893D01*
X043509Y029511D01*
X043667Y029128D01*
X043752Y029093D01*
Y028087D01*
X043672Y027893D01*
X043474Y027808D01*
X04316Y028121D01*
X04295Y028208D01*
X0424D01*
Y028561D01*
X0411D01*
Y027261D01*
X0424D01*
Y027613D01*
X042827D01*
X044152Y026287D01*
Y02605D01*
X04424Y02584D01*
X044461Y025618D01*
X044353Y025452D01*
X044349Y025448D01*
X043995D01*
Y025595D01*
X043105D01*
Y025497D01*
X042905Y025457D01*
X042891Y025491D01*
X04255Y025632D01*
X042209Y025491D01*
X042068Y02515D01*
X042209Y024809D01*
X042252Y024791D01*
Y02465D01*
X04234Y02444D01*
X043679Y0231D01*
X043889Y023013D01*
X0449D01*
Y022711D01*
X0458D01*
Y02279D01*
X046Y02283D01*
X046006Y022816D01*
X04635Y022674D01*
X046694Y022816D01*
X046742Y022931D01*
X046958D01*
X047006Y022816D01*
X04735Y022674D01*
X047694Y022816D01*
X047769Y022996D01*
X047985D01*
X048044Y022855D01*
X0483Y022748D01*
Y023311D01*
Y023873D01*
X048044Y023767D01*
X047985Y023625D01*
X047769D01*
X047694Y023805D01*
X047641Y023827D01*
X04756Y024021D01*
X046271Y02531D01*
X046061Y025398D01*
X045591D01*
X045466Y025542D01*
X04551Y02574D01*
X045694Y025816D01*
X045742Y025931D01*
X045958D01*
X046006Y025816D01*
X04635Y025674D01*
X046694Y025816D01*
X046742Y025931D01*
X046958D01*
X047006Y025816D01*
X04735Y025674D01*
X047694Y025816D01*
X047742Y025931D01*
X047958D01*
X048006Y025816D01*
X04835Y025674D01*
X048694Y025816D01*
X048837Y026161D01*
Y026461D01*
X048694Y026805D01*
X04835Y026948D01*
X048006Y026805D01*
X047958Y026691D01*
X047742D01*
X047694Y026805D01*
X04735Y026948D01*
X047006Y026805D01*
X046958Y026691D01*
X046742D01*
X046694Y026805D01*
X04635Y026948D01*
X046006Y026805D01*
X045958Y026691D01*
X045742D01*
X045694Y026805D01*
X045591Y026848D01*
X04556Y026921D01*
X044706Y027776D01*
X044741Y027861D01*
X044583Y028243D01*
X044348Y028341D01*
Y029093D01*
X044433Y029128D01*
X044591Y029511D01*
X044433Y029893D01*
X04405Y030052D01*
D02*
G37*
G36*
X0338Y028539D02*
Y027961D01*
X034379D01*
X034209Y02837D01*
X0338Y028539D01*
D02*
G37*
G36*
X04595Y02049D02*
X045682Y020379D01*
X045571Y020111D01*
Y019711D01*
X045682Y019443D01*
X04595Y019332D01*
X046218Y019443D01*
X046329Y019711D01*
Y020111D01*
X046218Y020379D01*
X04595Y02049D01*
D02*
G37*
G36*
X048783Y023261D02*
X0484D01*
Y022748D01*
X048656Y022855D01*
X048783Y023161D01*
Y023261D01*
D02*
G37*
G36*
X0484Y023873D02*
Y023361D01*
X048783D01*
Y023461D01*
X048656Y023767D01*
X0484Y023873D01*
D02*
G37*
%LPD*%
G36*
X044968Y024111D02*
X044953Y024011D01*
X044907Y023911D01*
X0449D01*
Y023608D01*
X044013D01*
X043116Y024505D01*
X043199Y024705D01*
X043995D01*
Y024852D01*
X044227D01*
X044968Y024111D01*
D02*
G37*
%LPC*%
G36*
X025391Y016965D02*
Y016661D01*
X025694D01*
X025605Y016876D01*
X025391Y016965D01*
D02*
G37*
G36*
X025694Y016561D02*
X025391D01*
Y016257D01*
X025605Y016346D01*
X025694Y016561D01*
D02*
G37*
G36*
X026546Y018696D02*
X02623D01*
Y018459D01*
X026546D01*
Y018696D01*
D02*
G37*
G36*
X02613Y018359D02*
X025815D01*
Y018122D01*
X02613D01*
Y018359D01*
D02*
G37*
G36*
Y018696D02*
X025815D01*
Y018459D01*
X02613D01*
Y018696D01*
D02*
G37*
G36*
X026546Y018359D02*
X02623D01*
Y018122D01*
X026546D01*
Y018359D01*
D02*
G37*
G36*
X02265Y017202D02*
X022267Y017043D01*
X022109Y016661D01*
X022267Y016278D01*
X02265Y01612D01*
X023033Y016278D01*
X023191Y016661D01*
X023033Y017043D01*
X02265Y017202D01*
D02*
G37*
G36*
X02635Y022254D02*
Y021811D01*
X026793D01*
X026664Y022124D01*
X02635Y022254D01*
D02*
G37*
G36*
X02625D02*
X025936Y022124D01*
X025807Y021811D01*
X02625D01*
Y022254D01*
D02*
G37*
G36*
X02385D02*
Y021811D01*
X024293D01*
X024164Y022124D01*
X02385Y022254D01*
D02*
G37*
G36*
X0363Y02049D02*
X036032Y020379D01*
X035921Y020111D01*
Y019711D01*
X036032Y019443D01*
X0363Y019332D01*
X036568Y019443D01*
X036679Y019711D01*
Y020111D01*
X036568Y020379D01*
X0363Y02049D01*
D02*
G37*
G36*
X02725Y042519D02*
Y042211D01*
X027558D01*
X027468Y042429D01*
X02725Y042519D01*
D02*
G37*
G36*
X03192Y04399D02*
X031537D01*
Y043328D01*
X031794Y043434D01*
X03192Y04374D01*
Y04399D01*
D02*
G37*
G36*
X0392Y046211D02*
X038822D01*
Y046162D01*
X038947Y04586D01*
X0392Y045755D01*
Y046211D01*
D02*
G37*
G36*
X04075Y044561D02*
X040442D01*
X040532Y044343D01*
X04075Y044253D01*
Y044561D01*
D02*
G37*
G36*
X041158D02*
X04085D01*
Y044253D01*
X041068Y044343D01*
X041158Y044561D01*
D02*
G37*
G36*
X044845Y042015D02*
Y041711D01*
X045149D01*
X04506Y041926D01*
X044845Y042015D01*
D02*
G37*
G36*
X047579Y038875D02*
X047182D01*
Y038477D01*
X047463Y038594D01*
X047579Y038875D01*
D02*
G37*
G36*
X014866Y040011D02*
X01445D01*
Y039594D01*
X014744Y039716D01*
X014866Y040011D01*
D02*
G37*
G36*
X01445Y040527D02*
Y040111D01*
X014866D01*
X014744Y040405D01*
X01445Y040527D01*
D02*
G37*
G36*
X01605Y014061D02*
X0152D01*
Y013511D01*
X01605D01*
Y014061D01*
D02*
G37*
G36*
X0151D02*
X01425D01*
Y013511D01*
X0151D01*
Y014061D01*
D02*
G37*
G36*
X01605Y013411D02*
X0152D01*
Y012861D01*
X01605D01*
Y013411D01*
D02*
G37*
G36*
X0171Y014911D02*
X01655D01*
Y014061D01*
X0171D01*
Y014911D01*
D02*
G37*
G36*
Y015861D02*
X01655D01*
Y015011D01*
X0171D01*
Y015861D01*
D02*
G37*
G36*
X0155Y034377D02*
Y033961D01*
X015916D01*
X015794Y034255D01*
X0155Y034377D01*
D02*
G37*
G36*
X015916Y033861D02*
X0155D01*
Y033444D01*
X015794Y033566D01*
X015916Y033861D01*
D02*
G37*
G36*
X02555Y038748D02*
X02545D01*
X025106Y038605D01*
X024984Y038311D01*
X02555D01*
Y038748D01*
D02*
G37*
G36*
X02575D02*
X02565D01*
Y038311D01*
X026216D01*
X026094Y038605D01*
X02575Y038748D01*
D02*
G37*
%LPD*%
D10*
X02618Y018409D02*
D03*
Y019311D02*
D03*
Y020212D02*
D03*
D11*
X02372Y019311D02*
D03*
D12*
X043889Y023311D02*
X04535D01*
X04255Y02465D02*
X043889Y023311D01*
X04255Y02465D02*
Y02515D01*
X04635Y023311D02*
Y0238D01*
X04585Y0243D02*
X04635Y0238D01*
X0452Y0243D02*
X04585D01*
X04435Y02515D02*
X0452Y0243D01*
X04355Y02515D02*
X04435D01*
X046061Y0251D02*
X04735Y023811D01*
X0454Y0251D02*
X046061D01*
X04445Y02605D02*
X0454Y0251D01*
X04445Y02605D02*
Y026411D01*
X0395Y039486D02*
X039888D01*
X03945Y033311D02*
X0395Y033361D01*
X029487Y043687D02*
Y04404D01*
X0287Y0429D02*
X029487Y043687D01*
X01825Y022761D02*
Y023061D01*
X01685Y024461D02*
X01825Y023061D01*
X01945Y024461D02*
X0212D01*
X02285Y022811D01*
Y021791D02*
Y022811D01*
Y021791D02*
X023531Y021111D01*
X02645D01*
X0271Y020461D01*
X023365Y020711D02*
X025682D01*
X02618Y020212D01*
X022915Y021161D02*
X023365Y020711D01*
X0213Y021161D02*
X022915D01*
X0238Y021761D02*
X0263D01*
X0271Y019661D02*
Y020461D01*
X02675Y019311D02*
X0271Y019661D01*
X02618Y019311D02*
X02675D01*
X04385Y034015D02*
X044205Y033661D01*
X0443D01*
X04455Y033911D01*
Y035661D01*
X0443Y035911D02*
X04455Y035661D01*
X0425Y035911D02*
X0443D01*
X02875Y037611D02*
X0293Y037061D01*
X028492Y037611D02*
X02875D01*
X028417Y037686D02*
X028492Y037611D01*
X027983Y037686D02*
X028417D01*
X027608Y037311D02*
X027983Y037686D01*
X02565Y037311D02*
X027608D01*
X0256Y037261D02*
X02565Y037311D01*
X0209Y014561D02*
Y020161D01*
Y014011D02*
Y014561D01*
X042809Y01552D02*
Y016236D01*
X04145Y014161D02*
X042809Y01552D01*
X037292Y014161D02*
X04145D01*
X0398Y014561D02*
X04015Y014911D01*
X02165Y015311D02*
X0254D01*
X0209Y014561D02*
X02165Y015311D01*
X0238Y023761D02*
X0263D01*
X0228D02*
X0238D01*
X02195Y024611D02*
X0228Y023761D01*
X02195Y024611D02*
Y026911D01*
X02275Y027711D01*
X0318D01*
X020184Y031761D02*
X029058D01*
X01935Y031211D02*
X029042D01*
X032325Y027928D01*
X029058Y031761D02*
X032725Y028094D01*
Y02784D02*
Y028094D01*
Y02784D02*
X033429Y027136D01*
X032325Y027674D02*
X033538Y026461D01*
X032325Y027674D02*
Y027928D01*
X031483Y038586D02*
X037175D01*
X030564Y038186D02*
X037775D01*
X030399Y037786D02*
X038625D01*
X031408Y038661D02*
X031483Y038586D01*
X028989Y039761D02*
X030564Y038186D01*
X029924Y038261D02*
X030399Y037786D01*
X0448Y013111D02*
X0473D01*
X04Y019061D02*
Y019911D01*
Y017911D02*
Y019061D01*
Y017911D02*
X041675Y016236D01*
X042809D01*
X0438Y017227D01*
Y018761D01*
X04495Y019911D01*
X0434Y017711D02*
Y021555D01*
X042125Y021157D02*
Y022265D01*
X041554Y020586D02*
X042125Y021157D01*
X038803Y020586D02*
X041554D01*
X041725Y021323D02*
Y022099D01*
X041388Y020986D02*
X041725Y021323D01*
X034503Y020986D02*
X041388D01*
X0474Y017011D02*
X0482Y017811D01*
X0395Y018561D02*
X04Y019061D01*
X03595Y018561D02*
X0395D01*
X0353Y019211D02*
X03595Y018561D01*
X0353Y019211D02*
Y019911D01*
X0386Y024461D02*
Y024611D01*
Y024461D02*
X0396Y023461D01*
X040363D01*
X041725Y022099D01*
X03945Y033311D02*
X0395Y033261D01*
Y033361D02*
Y034948D01*
X040225Y035673D01*
Y039149D01*
X039888Y039486D02*
X040225Y039149D01*
X0395Y039486D02*
Y039911D01*
X040625Y035507D02*
Y039036D01*
X0401Y034982D02*
X040625Y035507D01*
X0401Y034661D02*
Y034982D01*
X040625Y039036D02*
X0425Y040911D01*
X033538Y026461D02*
X038495D01*
X0434Y021555D01*
X033429Y027136D02*
X038385D01*
X044425Y021096D01*
X0378Y025511D02*
X038879D01*
X042125Y022265D01*
X033978Y020461D02*
X034503Y020986D01*
X0329Y020461D02*
X033978D01*
X038578Y020361D02*
X038803Y020586D01*
X0377Y020361D02*
X038578D01*
X0374Y034411D02*
X03815Y033661D01*
X0388D01*
X03765Y025661D02*
X0378Y025511D01*
X02035Y032161D02*
X042788D01*
X01845Y034061D02*
X02035Y032161D01*
X0214Y032561D02*
X042622D01*
X01945Y034511D02*
X0214Y032561D01*
X04255Y016861D02*
X0434Y017711D01*
X02935Y019861D02*
X0312Y021711D01*
X03615D01*
X030425Y016336D02*
X033159D01*
X033659Y016836D01*
X036791D01*
X033725Y016336D02*
X035637D01*
X033325Y015936D02*
X033725Y016336D01*
X029875Y015936D02*
X033325D01*
X033665Y015711D02*
X03615D01*
X03349Y015536D02*
X033665Y015711D01*
X029525Y015536D02*
X03349D01*
X029587Y02097D02*
Y025361D01*
X028875Y020257D02*
X029587Y02097D01*
X028875Y019464D02*
Y020257D01*
Y019464D02*
X029Y019339D01*
Y017761D02*
Y019339D01*
X0286Y017211D02*
Y019173D01*
X028475Y019298D02*
X0286Y019173D01*
X028475Y019298D02*
Y020423D01*
X0286Y020548D01*
Y021492D01*
X0282Y016861D02*
Y019008D01*
X028075Y019133D02*
X0282Y019008D01*
X028075Y019133D02*
Y020589D01*
X0282Y020714D01*
Y021326D01*
X027398Y018409D02*
X0278Y018811D01*
Y018842D01*
X027675Y018967D02*
X0278Y018842D01*
X027675Y018967D02*
Y020754D01*
X0278Y020879D01*
Y021161D01*
X0272Y021761D02*
X0278Y021161D01*
X0282Y016861D02*
X029525Y015536D01*
X0286Y017211D02*
X029875Y015936D01*
X029Y017761D02*
X030425Y016336D01*
X019034Y032911D02*
X020184Y031761D01*
X016875Y034664D02*
Y035599D01*
X016122Y033911D02*
X016875Y034664D01*
Y035599D02*
X017212Y035936D01*
X035975Y030136D02*
X044975D01*
X03375Y027911D02*
X035975Y030136D01*
X038625Y037786D02*
X0395Y036911D01*
X0256Y038261D02*
X029924D01*
X01845Y034061D02*
Y035211D01*
X042788Y032161D02*
X043387Y03276D01*
X04443D01*
X04513Y032061D01*
X046684D01*
X04725Y031495D01*
X04685Y032461D02*
X04775Y031561D01*
X045295Y032461D02*
X04685D01*
X044596Y03316D02*
X045295Y032461D01*
X042622Y032561D02*
X043221Y03316D01*
X044596D01*
X04725Y03042D02*
Y031495D01*
X046925Y030095D02*
X04725Y03042D01*
X046925Y028636D02*
Y030095D01*
Y028636D02*
X0477Y027861D01*
X01945Y034511D02*
Y035211D01*
X04775Y029711D02*
Y031561D01*
X04755Y029511D02*
X04775Y029711D01*
X026575Y035936D02*
X02785D01*
X0282Y036286D01*
X02785Y035936D02*
X039475D01*
X0282Y036286D02*
Y037161D01*
X039475Y035936D02*
X0395Y035911D01*
X02645Y035811D02*
X026575Y035936D01*
X02645Y035211D02*
Y035811D01*
X01375Y038061D02*
X01685D01*
X01695Y038161D01*
X02465Y038261D02*
X0256D01*
X022325Y035936D02*
X02465Y038261D01*
X017212Y035936D02*
X022325D01*
X01545Y033911D02*
X016122D01*
X01375Y036061D02*
X01665D01*
X0174Y036811D01*
X02903Y040286D02*
X030655Y038661D01*
X023433Y040286D02*
X02903D01*
X023408Y040261D02*
X023433Y040286D01*
X0234Y040261D02*
X023408D01*
X02245Y041211D02*
X0234Y040261D01*
X02365Y039761D02*
X028989D01*
X037775Y038186D02*
X0395Y039911D01*
X037175Y038586D02*
X0395Y040911D01*
X030655Y038661D02*
X031408D01*
X044975Y030136D02*
X04625Y031411D01*
X042505Y034606D02*
X04385D01*
X04175Y035361D02*
X042505Y034606D01*
X04175Y035361D02*
Y037161D01*
X0425Y037911D01*
X044795Y041661D02*
X04515Y042015D01*
X0463Y041365D02*
X047132Y042197D01*
X0463Y037511D02*
Y041365D01*
X0455Y036711D02*
X0463Y037511D01*
X044205Y041106D02*
Y041661D01*
Y041106D02*
X04545Y039861D01*
Y037861D02*
Y039861D01*
X0445Y036911D02*
X04545Y037861D01*
X0425Y036911D02*
X0445D01*
X04405Y028011D02*
X0442Y027861D01*
X04405Y028011D02*
Y029511D01*
X0442Y027861D02*
X04535Y026711D01*
Y026311D02*
Y026711D01*
X04735Y023311D02*
Y023811D01*
X04295Y027911D02*
X04445Y026411D01*
X04175Y027911D02*
X04295D01*
X03135Y018511D02*
X0329Y016961D01*
X03135Y018511D02*
Y019861D01*
X03715Y021711D02*
Y022161D01*
X034Y025311D02*
X03715Y022161D01*
X03215Y025311D02*
X034D01*
X038325Y016536D02*
X03915Y015711D01*
X038325Y016536D02*
Y01712D01*
X037959Y017486D02*
X038325Y01712D01*
X037441Y017486D02*
X037959D01*
X036791Y016836D02*
X037441Y017486D01*
X036388Y016436D02*
X037113Y015711D01*
X04015Y014911D02*
Y015711D01*
X037113D02*
X03715D01*
X035637Y016336D02*
X035737Y016436D01*
X036388D01*
X028137Y021955D02*
X0286Y021492D01*
X028137Y021955D02*
Y025261D01*
X02695Y022576D02*
X0282Y021326D01*
X02695Y022576D02*
Y02403D01*
X02675Y02423D02*
X02695Y02403D01*
X02675Y02423D02*
Y025311D01*
X04515Y042015D02*
Y042545D01*
X045168Y042563D01*
Y044227D01*
X04443Y044965D02*
X045168Y044227D01*
X043387Y044965D02*
X04443D01*
X043033Y044611D02*
X043387Y044965D01*
X0408Y044611D02*
X043033D01*
X01825Y021106D02*
X01845Y020906D01*
X01825Y021106D02*
Y022761D01*
X02075Y020611D02*
X0213Y021161D01*
X01845Y020906D02*
X018905D01*
X01915Y020661D01*
Y016661D02*
Y020661D01*
X02075Y020311D02*
X0209Y020161D01*
X02075Y020311D02*
Y020611D01*
X02618Y018409D02*
X027398D01*
X0263Y021761D02*
X0272D01*
X02372Y017641D02*
X02475Y016611D01*
X02372Y017641D02*
Y019311D01*
X02618D01*
X025341Y016611D02*
X02618Y01745D01*
Y018409D01*
X02665Y016561D02*
X0274D01*
X02945Y014511D01*
X0254Y015311D02*
X02665Y016561D01*
X044425Y021096D02*
X044465Y021136D01*
X0482Y017811D02*
Y020711D01*
X044465Y021136D02*
X047775D01*
X0482Y020711D01*
X03695Y014561D02*
X0398D01*
X036258Y014511D02*
X036733Y014036D01*
X02945Y014511D02*
X036258D01*
X036733Y014036D02*
X037167D01*
X037292Y014161D01*
D13*
X03115Y040061D02*
X0317Y039511D01*
X01892Y039081D02*
X01985Y040011D01*
X0273Y04705D02*
Y047261D01*
X02655Y0463D02*
X0273Y04705D01*
X026309Y04581D02*
X027001D01*
X02627Y045771D02*
X026309Y04581D01*
X027001D02*
X028487Y044323D01*
Y04404D02*
Y044323D01*
X026487Y045337D02*
X0265Y04535D01*
X026487Y04404D02*
Y045337D01*
X02604Y045771D02*
X02627D01*
X028239Y041871D02*
X03476D01*
X0272Y042161D02*
X0311D01*
X02826Y04244D02*
X029044D01*
X029254Y04265D01*
X03075D01*
X02794Y041572D02*
X028239Y041871D01*
X0279Y0428D02*
X02826Y04244D01*
X0311Y042161D02*
X031487Y042548D01*
X0279Y0428D02*
Y0432D01*
X027487Y043613D02*
X0279Y0432D01*
X027487Y043613D02*
Y04404D01*
X028642Y011961D02*
X0345D01*
X0348Y012261D01*
Y013411D01*
X03105Y039961D02*
X03115Y040061D01*
X029239Y040551D02*
X03714D01*
X0317Y039111D02*
Y039511D01*
X01315Y017281D02*
X01376Y016671D01*
X01315Y017281D02*
Y018611D01*
X013Y018761D02*
X01315Y018611D01*
X01214Y039974D02*
X013736Y041571D01*
X01214Y020542D02*
Y039974D01*
Y020542D02*
X0124Y020282D01*
Y014311D02*
Y020282D01*
Y014311D02*
X01565Y011061D01*
X02885Y013261D02*
X03135D01*
X027182Y013421D02*
X028642Y011961D01*
X026718Y013421D02*
X027182D01*
X026358Y013061D02*
X026718Y013421D01*
X019868Y013061D02*
X026358D01*
X02747Y013691D02*
X028854Y012307D01*
X023162Y013351D02*
X023502Y013691D01*
X02747D01*
X01786Y015069D02*
X019868Y013061D01*
X01786Y015069D02*
Y015848D01*
X017037Y016671D02*
X01786Y015848D01*
X01376Y016671D02*
X017037D01*
X01335Y019211D02*
X014879D01*
X01813Y01596D01*
Y015181D02*
X01996Y013351D01*
X01813Y015181D02*
Y01596D01*
X01565Y011061D02*
X028223D01*
X013736Y041571D02*
X015991D01*
X01671Y040851D01*
Y040751D02*
X0173Y040161D01*
X01671Y040751D02*
Y040851D01*
X0158Y041111D02*
X01625Y040661D01*
X0138Y041111D02*
X0158D01*
X01331Y040621D02*
X0138Y041111D01*
X013168Y040621D02*
X01331D01*
X01241Y039863D02*
X013168Y040621D01*
X01241Y020654D02*
Y039863D01*
Y020654D02*
X01335Y019714D01*
Y019211D02*
Y019714D01*
X015707Y043391D02*
X016679Y04242D01*
X015707Y043391D02*
Y044689D01*
X015977Y044577D02*
X01625Y04485D01*
X015977Y043503D02*
Y044577D01*
Y043503D02*
X01679Y04269D01*
X01268Y0382D02*
X013561Y039081D01*
X01892D01*
X014Y038811D02*
X0195D01*
X013835Y038646D02*
X014Y038811D01*
X013508Y038646D02*
X013835D01*
X0195Y038811D02*
X02045Y039761D01*
X01996Y013351D02*
X023162D01*
X028854Y012307D02*
X033096D01*
X03405Y013261D01*
X028608Y010676D02*
X036792D01*
X028223Y011061D02*
X028608Y010676D01*
X036792D02*
X037135Y011018D01*
X01845Y040511D02*
Y041211D01*
X0181Y040161D02*
X01845Y040511D01*
X0173Y040161D02*
X0181D01*
X037135Y011018D02*
Y011246D01*
X0392Y013311D01*
X01268Y034149D02*
Y0382D01*
X01295Y034261D02*
Y038088D01*
X013508Y038646D01*
X01268Y034149D02*
X014124Y032705D01*
X01295Y034261D02*
X014236Y032975D01*
X014124Y032705D02*
X017856D01*
X014236Y032975D02*
X01897D01*
X01985Y040011D02*
X0199Y039961D01*
X02045Y039761D02*
Y041211D01*
X01897Y032975D02*
X019034Y032911D01*
X017856Y032705D02*
X01935Y031211D01*
X032Y040061D02*
X037032D01*
X03786Y041271D02*
Y044501D01*
X03714Y040551D02*
X03786Y041271D01*
X03665Y043111D02*
X0374Y043861D01*
X03813Y041159D02*
Y043741D01*
X048838Y035124D02*
Y043773D01*
X0482Y044411D02*
X048838Y043773D01*
X04825Y034536D02*
X048838Y035124D01*
X03813Y043741D02*
X039689Y0453D01*
X043489D01*
X0439Y045711D01*
X04825Y032411D02*
Y034536D01*
X047683Y044411D02*
X0482D01*
X046544Y04555D02*
X047683Y044411D01*
X046544Y04555D02*
Y046467D01*
X044876Y048134D02*
X046544Y046467D01*
X036642Y048134D02*
X044876D01*
X036568Y048061D02*
X036642Y048134D01*
X028882Y048061D02*
X036568D01*
X028812Y048131D02*
X028882Y048061D01*
X02257Y048131D02*
X028812D01*
X01929Y04485D02*
X02257Y048131D01*
X019276Y04485D02*
X01929D01*
X018487Y044061D02*
X019276Y04485D01*
X018487Y04404D02*
Y044061D01*
X03265Y044961D02*
X0342Y043411D01*
X031387Y044961D02*
X03265D01*
X030487Y044061D02*
X031387Y044961D01*
X030487Y04404D02*
Y044061D01*
X036Y047111D02*
X03675Y047861D01*
X039037D01*
X039041Y047864D01*
X041096D01*
X04125Y047711D01*
Y047261D02*
Y047711D01*
X036Y043111D02*
X03665D01*
X037032Y040061D02*
X03813Y041159D01*
X036Y046361D02*
X03786Y044501D01*
X0439Y045711D02*
Y046611D01*
X04325Y047261D02*
X0439Y046611D01*
X026391Y042141D02*
X02696Y041572D01*
Y041211D02*
Y041572D01*
X031487Y042548D02*
Y04404D01*
X0342Y044911D02*
X036Y043111D01*
X0342Y044911D02*
Y046911D01*
X03476Y041871D02*
X036Y043111D01*
X02794Y041211D02*
Y041572D01*
X02745Y041211D02*
X02794D01*
X036Y046361D02*
Y047111D01*
X02894Y040849D02*
X029239Y040551D01*
X02894Y040849D02*
Y041211D01*
X02845D02*
X02894D01*
X0253Y046511D02*
X02604Y045771D01*
X0253Y046511D02*
Y047261D01*
X0287Y047861D02*
X0293Y047261D01*
X02335Y047861D02*
X0287D01*
X021487Y045998D02*
X02335Y047861D01*
X021487Y04404D02*
Y045998D01*
X022194Y04323D02*
X023284Y042141D01*
X018276Y04323D02*
X022194D01*
X022082Y04296D02*
X023172Y041871D01*
X017546Y04296D02*
X022082D01*
X02197Y04269D02*
X02345Y041211D01*
X01679Y04269D02*
X02197D01*
X02124Y04242D02*
X02245Y041211D01*
X016679Y04242D02*
X02124D01*
X017487Y044019D02*
X018276Y04323D01*
X016487Y044019D02*
X017546Y04296D01*
X02696Y041211D02*
X02745D01*
X023284Y042141D02*
X026391D01*
X017487Y044019D02*
Y04404D01*
X0258Y041861D02*
X02645Y041211D01*
X025671Y041861D02*
X0258D01*
X025661Y041871D02*
X025671Y041861D01*
X023172Y041871D02*
X025661D01*
X016487Y044019D02*
Y04404D01*
X01925Y045561D02*
X021Y047311D01*
X019134Y045561D02*
X01925D01*
X018424Y04485D02*
X019134Y045561D01*
X01625Y04485D02*
X018424D01*
X016139Y04512D02*
X018312D01*
X02Y046808D01*
X015707Y044689D02*
X016139Y04512D01*
X02Y046808D02*
Y047311D01*
X0343Y013911D02*
X0348Y013411D01*
X032Y013911D02*
X0343D01*
X03135Y013261D02*
X032Y013911D01*
D14*
X0261Y033461D02*
Y03406D01*
X0264D01*
X0265Y033961D01*
Y033761D01*
X0264Y033661D01*
X0261D01*
X0267Y03406D02*
Y033461D01*
Y033761D01*
X0271D01*
Y03406D01*
Y033461D01*
X0273Y03406D02*
Y033561D01*
X0274Y033461D01*
X0276D01*
X027699Y033561D01*
Y03406D01*
X027899Y033461D02*
Y03406D01*
X028099Y033861D01*
X028299Y03406D01*
Y033461D01*
X028499Y03406D02*
Y033661D01*
X028699Y033461D01*
X028899Y033661D01*
Y03406D01*
X0302Y034011D02*
X0301Y034111D01*
X0299D01*
X0298Y034011D01*
Y033611D01*
X0299Y033511D01*
X0301D01*
X0302Y033611D01*
Y033811D01*
X03D01*
X0304Y034111D02*
Y033511D01*
Y033811D01*
X0305Y033911D01*
X0307D01*
X0308Y033811D01*
Y033511D01*
X0313D02*
X0311D01*
X031Y033611D01*
Y033811D01*
X0311Y033911D01*
X0313D01*
X031399Y033811D01*
Y033711D01*
X031D01*
X031599Y033311D02*
Y033911D01*
X031899D01*
X031999Y033811D01*
Y033611D01*
X031899Y033511D01*
X031599D01*
X032199D02*
Y033911D01*
X032499D01*
X032599Y033811D01*
Y033511D01*
X032899D02*
X033099D01*
X033199Y033611D01*
Y033811D01*
X033099Y033911D01*
X032899D01*
X032799Y033811D01*
Y033611D01*
X032899Y033511D01*
X033399D02*
X033599D01*
X033499D01*
Y033911D01*
X033399D01*
D15*
X04355Y02515D02*
D03*
X0243Y047261D02*
D03*
X0303Y028411D02*
D03*
X0206Y028511D02*
D03*
X014Y047311D02*
D03*
D16*
X04255Y02515D02*
D03*
X01945Y025461D02*
D03*
Y026461D02*
D03*
X0253Y047261D02*
D03*
X0263D02*
D03*
X0273D02*
D03*
X0283D02*
D03*
X0293D02*
D03*
X0303D02*
D03*
X0313D02*
D03*
X0293Y028411D02*
D03*
X0283D02*
D03*
X0273D02*
D03*
X0263D02*
D03*
X0253D02*
D03*
X0243D02*
D03*
X0233D02*
D03*
X0196Y028511D02*
D03*
X0186D02*
D03*
X0176D02*
D03*
X0166D02*
D03*
X0156D02*
D03*
X0146D02*
D03*
X0136D02*
D03*
X015Y047311D02*
D03*
X016D02*
D03*
X017D02*
D03*
X018D02*
D03*
X019D02*
D03*
X02D02*
D03*
X021D02*
D03*
X01685Y025461D02*
D03*
Y026461D02*
D03*
X0143Y025461D02*
D03*
Y024461D02*
D03*
D17*
X0256Y037261D02*
D03*
D18*
Y038261D02*
D03*
D19*
X0134Y040061D02*
D03*
X0144D02*
D03*
X01445Y033911D02*
D03*
X01545D02*
D03*
X0342Y046911D02*
D03*
Y043411D02*
D03*
X0269Y014611D02*
D03*
Y015611D02*
D03*
X02695Y012861D02*
D03*
Y011861D02*
D03*
X0442Y027861D02*
D03*
X0477D02*
D03*
X04405Y029511D02*
D03*
X04755D02*
D03*
X01915Y016661D02*
D03*
X02265D02*
D03*
X0474Y020511D02*
D03*
Y017011D02*
D03*
X04255Y020361D02*
D03*
Y016861D02*
D03*
X0377D02*
D03*
Y020361D02*
D03*
X0329Y016961D02*
D03*
Y020461D02*
D03*
D20*
X02275Y025311D02*
D03*
Y026311D02*
D03*
X024187Y025311D02*
D03*
Y026311D02*
D03*
X025437Y025311D02*
D03*
Y026311D02*
D03*
X02675Y025311D02*
D03*
Y026311D02*
D03*
X028137Y025261D02*
D03*
Y026261D02*
D03*
X029587Y025361D02*
D03*
Y026361D02*
D03*
X030837Y025361D02*
D03*
Y026361D02*
D03*
X03215Y025311D02*
D03*
Y026311D02*
D03*
X04625Y033411D02*
D03*
X04825Y032411D02*
D03*
X04625Y031411D02*
D03*
X0238Y023761D02*
D03*
X0263Y021761D02*
D03*
Y023761D02*
D03*
X0238Y021761D02*
D03*
X02885Y013261D02*
D03*
X03135Y011261D02*
D03*
Y013261D02*
D03*
X02885Y011261D02*
D03*
X01375Y036061D02*
D03*
Y038061D02*
D03*
X0392Y013311D02*
D03*
X0417Y011311D02*
D03*
Y013311D02*
D03*
X0392Y011311D02*
D03*
X03405Y013261D02*
D03*
X03655Y011261D02*
D03*
Y013261D02*
D03*
X03405Y011261D02*
D03*
X0448Y013111D02*
D03*
X0473Y011111D02*
D03*
Y013111D02*
D03*
X0448Y011111D02*
D03*
D21*
X043909Y031501D02*
D03*
X01445Y043725D02*
D03*
X01445Y031511D02*
D03*
X043909Y043706D02*
D03*
D22*
X031487Y04404D02*
D03*
X030487D02*
D03*
X029487D02*
D03*
X028487D02*
D03*
X027487D02*
D03*
X026487D02*
D03*
X025487D02*
D03*
X024487D02*
D03*
X023487D02*
D03*
X022487D02*
D03*
X021487D02*
D03*
X020487D02*
D03*
X019487D02*
D03*
X018487D02*
D03*
X017487D02*
D03*
D23*
X016487D02*
D03*
D24*
X01945Y024461D02*
D03*
X01685D02*
D03*
X0143Y026461D02*
D03*
D25*
X025341Y016611D02*
D03*
X01845Y020906D02*
D03*
X044795Y038611D02*
D03*
X04385Y034606D02*
D03*
X044795Y041661D02*
D03*
X0401Y034661D02*
D03*
D26*
X02475Y016611D02*
D03*
X044205Y038611D02*
D03*
Y041661D02*
D03*
D27*
X04535Y023311D02*
D03*
X03645Y041211D02*
D03*
D28*
X04635Y023311D02*
D03*
X04735D02*
D03*
X04835D02*
D03*
X04535Y026311D02*
D03*
X04635D02*
D03*
X04735D02*
D03*
X04835D02*
D03*
X03545Y041211D02*
D03*
X03445D02*
D03*
X03345D02*
D03*
X03245D02*
D03*
X03145D02*
D03*
X03045D02*
D03*
X02945D02*
D03*
X02845D02*
D03*
X02745D02*
D03*
X02645D02*
D03*
X02545D02*
D03*
X02445D02*
D03*
X02345D02*
D03*
X02245D02*
D03*
X02145D02*
D03*
X02045D02*
D03*
X01945D02*
D03*
X01845D02*
D03*
X01745D02*
D03*
X03645Y035211D02*
D03*
X03545D02*
D03*
X03445D02*
D03*
X03345D02*
D03*
X03245D02*
D03*
X03145D02*
D03*
X03045D02*
D03*
X02945D02*
D03*
X02845D02*
D03*
X02745D02*
D03*
X02645D02*
D03*
X02545D02*
D03*
X02445D02*
D03*
X02345D02*
D03*
X02245D02*
D03*
X02145D02*
D03*
X02045D02*
D03*
X01945D02*
D03*
X01845D02*
D03*
X01745D02*
D03*
X03615Y015711D02*
D03*
X03715D02*
D03*
X03815D02*
D03*
X03915D02*
D03*
X04015D02*
D03*
X04115D02*
D03*
X03615Y021711D02*
D03*
X03715D02*
D03*
X03815D02*
D03*
X03915D02*
D03*
X04015D02*
D03*
X04115D02*
D03*
D29*
X01365Y022961D02*
D03*
X01465D02*
D03*
X01565D02*
D03*
Y020461D02*
D03*
X01465D02*
D03*
D30*
X01365D02*
D03*
D31*
X0209Y014011D02*
D03*
X0219D02*
D03*
X0229D02*
D03*
D32*
X0219Y012011D02*
D03*
X03375Y027911D02*
D03*
D33*
X014Y018211D02*
D03*
D34*
X0175D02*
D03*
D35*
X01515Y015961D02*
D03*
Y013461D02*
D03*
D36*
X01715Y014961D02*
D03*
D37*
X04175Y027911D02*
D03*
D38*
X02175Y020311D02*
D03*
D39*
X02075D02*
D03*
D40*
X01825Y022761D02*
D03*
X02125D02*
D03*
D41*
X01845Y020315D02*
D03*
X04385Y034015D02*
D03*
X0401Y03407D02*
D03*
D42*
X036Y047111D02*
D03*
Y043111D02*
D03*
D43*
X03925Y047261D02*
D03*
X04025D02*
D03*
X04125D02*
D03*
X04225D02*
D03*
X04325Y046261D02*
D03*
X04225D02*
D03*
X04125D02*
D03*
X04025D02*
D03*
X03925D02*
D03*
D44*
X04325Y047261D02*
D03*
D45*
X04395Y019911D02*
D03*
X04495D02*
D03*
X04595D02*
D03*
X039D02*
D03*
X04D02*
D03*
X041D02*
D03*
X0343D02*
D03*
X0353D02*
D03*
X0363D02*
D03*
X02935Y019861D02*
D03*
X03035D02*
D03*
X03135D02*
D03*
D46*
X047691Y036187D02*
D03*
Y046025D02*
D03*
D47*
X047132Y043287D02*
D03*
D48*
X04825Y042742D02*
D03*
X047132Y042197D02*
D03*
X04825Y041651D02*
D03*
X047132Y041106D02*
D03*
X04825Y040561D02*
D03*
X047132Y040015D02*
D03*
X04825Y03947D02*
D03*
X047132Y038925D02*
D03*
D49*
X0425Y035911D02*
D03*
D50*
Y036911D02*
D03*
Y037911D02*
D03*
Y038911D02*
D03*
Y039911D02*
D03*
Y040911D02*
D03*
Y041911D02*
D03*
Y042911D02*
D03*
X0395Y035911D02*
D03*
Y036911D02*
D03*
Y037911D02*
D03*
Y038911D02*
D03*
Y039911D02*
D03*
Y040911D02*
D03*
Y041911D02*
D03*
Y042911D02*
D03*
D51*
X02655Y0463D02*
D03*
X0265Y04535D02*
D03*
X0287Y0429D02*
D03*
X03075Y04265D02*
D03*
X0293Y037061D02*
D03*
X0318Y027711D02*
D03*
X03105Y039961D02*
D03*
X0317Y039111D02*
D03*
X013Y018761D02*
D03*
X01625Y040661D02*
D03*
X0386Y024611D02*
D03*
X0395Y033261D02*
D03*
X0374Y034411D02*
D03*
X0388Y033661D02*
D03*
X03765Y025661D02*
D03*
X0199Y039961D02*
D03*
X0282Y037161D02*
D03*
X01695Y038161D02*
D03*
X0174Y036811D02*
D03*
X02365Y039761D02*
D03*
X032Y040061D02*
D03*
X0374Y043861D02*
D03*
X0455Y036711D02*
D03*
X0408Y044611D02*
D03*
X0272Y042161D02*
D03*
X03695Y014561D02*
D03*
M02*
