G04 Layer_Physical_Order=2*
G04 Layer_Color=16711680*
%FSTAX24Y24*%
%MOIN*%
G70*
G01*
G75*
%ADD12C,0.0250*%
%ADD13C,0.0120*%
%ADD15R,0.0591X0.0591*%
%ADD16C,0.0591*%
%ADD17R,0.1000X0.0700*%
%ADD18O,0.1000X0.0700*%
%ADD19C,0.0700*%
%ADD20C,0.0750*%
%ADD21C,0.1969*%
%ADD22O,0.0600X0.1200*%
G04:AMPARAMS|DCode=23|XSize=120mil|YSize=60mil|CornerRadius=0mil|HoleSize=0mil|Usage=FLASHONLY|Rotation=90.000|XOffset=0mil|YOffset=0mil|HoleType=Round|Shape=Octagon|*
%AMOCTAGOND23*
4,1,8,0.0150,0.0600,-0.0150,0.0600,-0.0300,0.0450,-0.0300,-0.0450,-0.0150,-0.0600,0.0150,-0.0600,0.0300,-0.0450,0.0300,0.0450,0.0150,0.0600,0.0*
%
%ADD23OCTAGOND23*%

%ADD24R,0.0591X0.0591*%
%ADD25C,0.0492*%
%ADD26R,0.0492X0.0492*%
%ADD27R,0.0600X0.0900*%
%ADD28O,0.0600X0.0900*%
%ADD29O,0.0700X0.0800*%
%ADD30R,0.0700X0.0800*%
G04:AMPARAMS|DCode=31|XSize=70mil|YSize=90mil|CornerRadius=0mil|HoleSize=0mil|Usage=FLASHONLY|Rotation=180.000|XOffset=0mil|YOffset=0mil|HoleType=Round|Shape=Octagon|*
%AMOCTAGOND31*
4,1,8,0.0175,-0.0450,-0.0175,-0.0450,-0.0350,-0.0275,-0.0350,0.0275,-0.0175,0.0450,0.0175,0.0450,0.0350,0.0275,0.0350,-0.0275,0.0175,-0.0450,0.0*
%
%ADD31OCTAGOND31*%

%ADD32C,0.1000*%
%ADD33C,0.0800*%
%ADD34R,0.0800X0.0800*%
%ADD35R,0.1600X0.1000*%
%ADD36R,0.1000X0.1600*%
%ADD37R,0.1000X0.1000*%
%ADD38O,0.0650X0.1000*%
%ADD39R,0.0650X0.1000*%
%ADD40O,0.0800X0.0750*%
%ADD41R,0.0492X0.0492*%
%ADD42C,0.0850*%
%ADD43O,0.0591X0.0787*%
%ADD44R,0.0591X0.0787*%
%ADD45O,0.0400X0.0800*%
%ADD46C,0.1874*%
%ADD47R,0.0665X0.0665*%
%ADD48C,0.0665*%
%ADD49R,0.0900X0.0600*%
%ADD50O,0.0900X0.0600*%
%ADD51C,0.0500*%
%ADD52C,0.0500*%
G36*
X024101Y034726D02*
X024106Y034716D01*
X024113Y034713D01*
X024152Y03467D01*
Y033484D01*
X023918Y03325D01*
X023752Y033358D01*
X023748Y033362D01*
Y034697D01*
X023794Y034716D01*
X023826Y034791D01*
X024027Y03481D01*
X024101Y034726D01*
D02*
G37*
G36*
X023101D02*
X023106Y034716D01*
X023113Y034713D01*
X023152Y03467D01*
Y033484D01*
X022918Y03325D01*
X022752Y033358D01*
X022748Y033362D01*
Y034697D01*
X022794Y034716D01*
X022826Y034791D01*
X023027Y03481D01*
X023101Y034726D01*
D02*
G37*
G36*
X019101D02*
X019106Y034716D01*
X019113Y034713D01*
X019152Y03467D01*
Y033484D01*
X018927Y033259D01*
X018786Y033329D01*
X018748Y033362D01*
Y034697D01*
X018794Y034716D01*
X018826Y034791D01*
X019027Y03481D01*
X019101Y034726D01*
D02*
G37*
G36*
X025101D02*
X025106Y034716D01*
X025113Y034713D01*
X025152Y03467D01*
Y033484D01*
X024918Y03325D01*
X024752Y033358D01*
X024748Y033362D01*
Y034697D01*
X024794Y034716D01*
X024826Y034791D01*
X025027Y03481D01*
X025101Y034726D01*
D02*
G37*
G36*
X020101D02*
X020106Y034716D01*
X020113Y034713D01*
X020152Y03467D01*
Y033484D01*
X019918Y03325D01*
X019752Y033358D01*
X019748Y033362D01*
Y034697D01*
X019794Y034716D01*
X019826Y034791D01*
X020027Y03481D01*
X020101Y034726D01*
D02*
G37*
G36*
X013582Y030643D02*
X014203Y030385D01*
X014242Y030189D01*
X013362Y029309D01*
X013177Y029385D01*
Y031097D01*
X013377Y031136D01*
X013582Y030643D01*
D02*
G37*
G36*
X022101Y034726D02*
X022106Y034716D01*
X022113Y034713D01*
X022152Y03467D01*
Y033484D01*
X021918Y03325D01*
X021752Y033358D01*
X021748Y033362D01*
Y034697D01*
X021794Y034716D01*
X021826Y034791D01*
X022027Y03481D01*
X022101Y034726D01*
D02*
G37*
G36*
X021101D02*
X021106Y034716D01*
X021113Y034713D01*
X021152Y03467D01*
Y033484D01*
X020918Y03325D01*
X020752Y033358D01*
X020748Y033362D01*
Y034697D01*
X020794Y034716D01*
X020826Y034791D01*
X021027Y03481D01*
X021101Y034726D01*
D02*
G37*
G36*
X049134Y010516D02*
X047629D01*
X04759Y010716D01*
X047664Y010747D01*
X047793Y011061D01*
X046807D01*
X046936Y010747D01*
X04701Y010716D01*
X046971Y010516D01*
X045129D01*
X04509Y010716D01*
X045164Y010747D01*
X045293Y011061D01*
X044307D01*
X044436Y010747D01*
X04451Y010716D01*
X044471Y010516D01*
X042316D01*
X042239Y010701D01*
X042371Y010833D01*
X04275D01*
X042911Y0109D01*
X044625Y012615D01*
X0448Y012542D01*
X045202Y012709D01*
X045368Y013111D01*
X045202Y013513D01*
X0448Y013679D01*
X044398Y013513D01*
X044232Y013111D01*
X044304Y012936D01*
X042656Y011288D01*
X042399D01*
X042214Y011311D01*
X042064Y011674D01*
X04175Y011804D01*
Y011311D01*
X0417D01*
Y011261D01*
X041207D01*
X041272Y011103D01*
X041138Y010903D01*
X039762D01*
X039628Y011103D01*
X039693Y011261D01*
X038707D01*
X038772Y011103D01*
X038638Y010903D01*
X037096D01*
X036985Y011069D01*
X037043Y011211D01*
X036057D01*
X036115Y011069D01*
X036004Y010903D01*
X034596D01*
X034485Y011069D01*
X034543Y011211D01*
X033557D01*
X033615Y011069D01*
X033504Y010903D01*
X031896D01*
X031785Y011069D01*
X031843Y011211D01*
X030857D01*
X030915Y011069D01*
X030804Y010903D01*
X029396D01*
X029285Y011069D01*
X029343Y011211D01*
X028357D01*
X028415Y011069D01*
X028304Y010903D01*
X015729D01*
X013177Y013455D01*
Y014085D01*
X013681Y014588D01*
X013747Y014749D01*
Y015147D01*
X013761Y015161D01*
X013827Y015321D01*
Y01641D01*
X014012Y016486D01*
X0142Y016298D01*
Y015311D01*
X0161D01*
Y016611D01*
X015112D01*
X014433Y01729D01*
Y017819D01*
X014595Y018211D01*
X014553Y018312D01*
X014723Y018426D01*
X015244Y017905D01*
X01555Y017778D01*
X01695D01*
Y017661D01*
X01805D01*
Y018535D01*
X018198Y018586D01*
X01825Y01859D01*
X022079Y014761D01*
X021996Y014561D01*
X02195D01*
Y014011D01*
Y013461D01*
X022125D01*
X022237Y013572D01*
X022388Y013654D01*
X022499Y013562D01*
X02265Y013411D01*
X02315D01*
X0234Y013661D01*
Y014361D01*
X02315Y014611D01*
X022823D01*
Y014736D01*
X022735Y014946D01*
X018748Y018934D01*
Y019919D01*
X018846D01*
Y020711D01*
X018846D01*
X018783Y020806D01*
X018804Y020856D01*
X01845D01*
X018096D01*
X018117Y020806D01*
X018054Y020711D01*
X018054D01*
Y02034D01*
X017272Y019558D01*
X015782D01*
X015655Y019709D01*
X015717Y019897D01*
X016033Y020028D01*
X016191Y020411D01*
Y020511D01*
X016033Y020893D01*
X01565Y021052D01*
X015267Y020893D01*
X01525Y020852D01*
X01505D01*
X015033Y020893D01*
X01465Y021052D01*
X01435Y020928D01*
X01415Y021011D01*
Y021011D01*
X013177D01*
Y022357D01*
X013377Y022482D01*
X01365Y022369D01*
X014033Y022528D01*
X01405Y02257D01*
X01425D01*
X014267Y022528D01*
X01465Y022369D01*
X015033Y022528D01*
X01505Y02257D01*
X01525D01*
X015267Y022528D01*
X01565Y022369D01*
X016033Y022528D01*
X016191Y022911D01*
Y023011D01*
X016176Y023047D01*
X016287Y023213D01*
X017689D01*
X017815Y023013D01*
X017732Y022811D01*
X01825D01*
X018768D01*
X018685Y023013D01*
X018811Y023213D01*
X020377D01*
X020707Y022883D01*
X020657Y022761D01*
X020707Y022639D01*
X02054Y022471D01*
X020452Y022261D01*
Y020961D01*
X020275D01*
Y019661D01*
X021225D01*
Y019672D01*
X021425Y019756D01*
X02175Y019622D01*
X02194Y0197D01*
X022352Y019287D01*
Y017079D01*
X022267Y017043D01*
X022109Y016661D01*
X022267Y016278D01*
X02265Y01612D01*
X023033Y016278D01*
X023191Y016661D01*
X023033Y017043D01*
X022948Y017079D01*
Y019411D01*
X02286Y019621D01*
X022264Y020218D01*
Y020486D01*
X022114Y020849D01*
X02175Y021D01*
X021425Y020865D01*
X021225Y020949D01*
Y020961D01*
X021048D01*
Y022058D01*
X021225Y022193D01*
X021225Y022192D01*
X021275D01*
X021677Y022359D01*
X021843Y022761D01*
X021677Y023163D01*
X021275Y023329D01*
X021225D01*
X021139Y023293D01*
X02071Y023721D01*
X0205Y023808D01*
X016157D01*
X016119Y023846D01*
X015909Y023933D01*
X015248D01*
X014764Y024418D01*
X014782Y024461D01*
X014733Y024579D01*
Y025342D01*
X014782Y025461D01*
X014733Y025579D01*
Y026015D01*
X014745D01*
Y026906D01*
X013855D01*
Y026015D01*
X013867D01*
Y025579D01*
X013818Y025461D01*
X013867Y025342D01*
Y024579D01*
X013818Y024461D01*
X013959Y02412D01*
X0143Y023979D01*
X014343Y023997D01*
X014603Y023737D01*
X014547Y023509D01*
X014267Y023393D01*
X01425Y023352D01*
X01405D01*
X014033Y023393D01*
X01365Y023552D01*
X013377Y023439D01*
X013177Y023565D01*
Y02799D01*
X013377Y028121D01*
X0136Y028029D01*
X013941Y02817D01*
X013992Y028293D01*
X014208D01*
X014259Y02817D01*
X0146Y028029D01*
X014941Y02817D01*
X014992Y028293D01*
X015208D01*
X015259Y02817D01*
X0156Y028029D01*
X015941Y02817D01*
X015992Y028293D01*
X016208D01*
X016259Y02817D01*
X0166Y028029D01*
X016941Y02817D01*
X016992Y028293D01*
X017208D01*
X017259Y02817D01*
X0176Y028029D01*
X017941Y02817D01*
X017992Y028293D01*
X018208D01*
X018259Y02817D01*
X0186Y028029D01*
X018941Y02817D01*
X018992Y028293D01*
X019208D01*
X019259Y02817D01*
X0196Y028029D01*
X019941Y02817D01*
X019955Y028204D01*
X020155Y028164D01*
Y028065D01*
X021045D01*
Y028535D01*
X02566Y03315D01*
X025748Y033361D01*
Y034697D01*
X025794Y034716D01*
X025842Y034831D01*
X026058D01*
X026106Y034716D01*
X02645Y034574D01*
X026794Y034716D01*
X026869Y034896D01*
X027085D01*
X027144Y034755D01*
X0274Y034648D01*
Y035211D01*
Y035773D01*
X027144Y035667D01*
X027085Y035525D01*
X026869D01*
X026794Y035705D01*
X02645Y035848D01*
X026106Y035705D01*
X026058Y035591D01*
X025842D01*
X025794Y035705D01*
X02545Y035848D01*
X025106Y035705D01*
X025058Y035591D01*
X024842D01*
X024794Y035705D01*
X02445Y035848D01*
X024106Y035705D01*
X024058Y035591D01*
X023842D01*
X023794Y035705D01*
X02345Y035848D01*
X023106Y035705D01*
X023058Y035591D01*
X022842D01*
X022794Y035705D01*
X02245Y035848D01*
X022106Y035705D01*
X022058Y035591D01*
X021842D01*
X021794Y035705D01*
X02145Y035848D01*
X021106Y035705D01*
X021058Y035591D01*
X020842D01*
X020794Y035705D01*
X02045Y035848D01*
X020106Y035705D01*
X020058Y035591D01*
X019842D01*
X019794Y035705D01*
X01945Y035848D01*
X019106Y035705D01*
X019058Y035591D01*
X018842D01*
X018794Y035705D01*
X01845Y035848D01*
X018106Y035705D01*
X018058Y035591D01*
X017842D01*
X017794Y035705D01*
X01745Y035848D01*
X017227Y035755D01*
X015872Y037111D01*
Y040168D01*
X016072Y040302D01*
X01625Y040228D01*
X016556Y040355D01*
X016589Y040433D01*
X0169D01*
X017061Y0405D01*
X017227Y040666D01*
X01745Y040574D01*
X017794Y040716D01*
X017842Y040831D01*
X018058D01*
X018106Y040716D01*
X01845Y040574D01*
X018794Y040716D01*
X018842Y040831D01*
X019058D01*
X019106Y040716D01*
X01945Y040574D01*
X019794Y040716D01*
X019842Y040831D01*
X020058D01*
X020106Y040716D01*
X02045Y040574D01*
X020794Y040716D01*
X020842Y040831D01*
X021058D01*
X021106Y040716D01*
X021223Y040668D01*
Y040355D01*
X021056Y040188D01*
X020239D01*
X020206Y040267D01*
X0199Y040394D01*
X019594Y040267D01*
X019467Y039961D01*
X019594Y039655D01*
X0199Y039528D01*
X020206Y039655D01*
X020239Y039733D01*
X02115D01*
X021311Y0398D01*
X021611Y0401D01*
X021677Y040261D01*
Y040668D01*
X021794Y040716D01*
X021842Y040831D01*
X022058D01*
X022106Y040716D01*
X02245Y040574D01*
X022794Y040716D01*
X022826Y040791D01*
X023027Y04081D01*
X023101Y040726D01*
X023106Y040716D01*
X023113Y040713D01*
X023152Y04067D01*
Y039961D01*
X023226Y039783D01*
X023217Y039761D01*
X023344Y039455D01*
X023518Y039382D01*
X023565Y039147D01*
X022877Y038458D01*
X01726D01*
X017256Y038467D01*
X01695Y038594D01*
X016644Y038467D01*
X016517Y038161D01*
X016644Y037855D01*
X01695Y037728D01*
X017256Y037855D01*
X01726Y037863D01*
X022949D01*
X023038Y037711D01*
X023047Y037678D01*
X022477Y037108D01*
X01771D01*
X017706Y037117D01*
X0174Y037244D01*
X017094Y037117D01*
X016967Y036811D01*
X017094Y036505D01*
X0174Y036378D01*
X017706Y036505D01*
X01771Y036513D01*
X0226D01*
X02281Y0366D01*
X02566Y03945D01*
X025748Y039661D01*
Y040697D01*
X025794Y040716D01*
X025869Y040896D01*
X026085D01*
X026144Y040755D01*
X0264Y040648D01*
Y041211D01*
Y041773D01*
X026144Y041667D01*
X026085Y041525D01*
X025869D01*
X025794Y041705D01*
X02545Y041848D01*
X025106Y041705D01*
X025058Y041591D01*
X024842D01*
X024794Y041705D01*
X02445Y041848D01*
X024106Y041705D01*
X024058Y041591D01*
X023842D01*
X023794Y041705D01*
X02345Y041848D01*
X023106Y041705D01*
X023058Y041591D01*
X022842D01*
X022794Y041705D01*
X02245Y041848D01*
X022106Y041705D01*
X022058Y041591D01*
X021842D01*
X021794Y041705D01*
X02145Y041848D01*
X021227Y041755D01*
X019786Y043197D01*
X019825Y043393D01*
X019832Y043396D01*
X019879Y04351D01*
X020096D01*
X020143Y043396D01*
X020487Y043253D01*
X020832Y043396D01*
X020879Y04351D01*
X021096D01*
X021143Y043396D01*
X021487Y043253D01*
X021832Y043396D01*
X021879Y04351D01*
X022096D01*
X022143Y043396D01*
X022487Y043253D01*
X022832Y043396D01*
X022879Y04351D01*
X023096D01*
X023143Y043396D01*
X023487Y043253D01*
X023832Y043396D01*
X023879Y04351D01*
X024096D01*
X024143Y043396D01*
X024487Y043253D01*
X024832Y043396D01*
X024879Y04351D01*
X025096D01*
X025143Y043396D01*
X025487Y043253D01*
X025832Y043396D01*
X025879Y04351D01*
X026096D01*
X026143Y043396D01*
X026487Y043253D01*
X026832Y043396D01*
X026879Y04351D01*
X027096D01*
X027143Y043396D01*
X027487Y043253D01*
X027832Y043396D01*
X027879Y04351D01*
X028096D01*
X028143Y043396D01*
X02827Y043343D01*
X028348Y043095D01*
X028267Y0429D01*
X028394Y042594D01*
X028452Y04257D01*
Y042033D01*
X028451Y041909D01*
X028289Y041781D01*
X028106Y041705D01*
X028058Y041591D01*
X027842D01*
X027794Y041705D01*
X027616Y041779D01*
X027526Y042033D01*
X027558Y042111D01*
X026842D01*
X026932Y041893D01*
X027003Y041864D01*
X027106Y041705D01*
X027031Y041525D01*
X026815D01*
X026756Y041667D01*
X0265Y041773D01*
Y041211D01*
Y040648D01*
X026756Y040755D01*
X026815Y040896D01*
X027031D01*
X027106Y040716D01*
X02745Y040574D01*
X027603Y040637D01*
X028002Y040237D01*
Y037512D01*
X027894Y037467D01*
X027767Y037161D01*
X027894Y036855D01*
X0282Y036728D01*
X028506Y036855D01*
X028633Y037161D01*
X028598Y037246D01*
Y040359D01*
X028602Y040363D01*
X028768Y040472D01*
X03244Y0368D01*
X03265Y036713D01*
X036277D01*
X036702Y036287D01*
Y035923D01*
X036536Y035812D01*
X03645Y035848D01*
X036106Y035705D01*
X036058Y035591D01*
X035842D01*
X035794Y035705D01*
X03545Y035848D01*
X035106Y035705D01*
X035058Y035591D01*
X034842D01*
X034794Y035705D01*
X03445Y035848D01*
X034106Y035705D01*
X034058Y035591D01*
X033842D01*
X033794Y035705D01*
X03345Y035848D01*
X033106Y035705D01*
X033058Y035591D01*
X032842D01*
X032794Y035705D01*
X03245Y035848D01*
X032106Y035705D01*
X032058Y035591D01*
X031842D01*
X031794Y035705D01*
X03145Y035848D01*
X031106Y035705D01*
X031058Y035591D01*
X030842D01*
X030794Y035705D01*
X03045Y035848D01*
X030106Y035705D01*
X030058Y035591D01*
X029842D01*
X029794Y035705D01*
X02945Y035848D01*
X029106Y035705D01*
X029058Y035591D01*
X028842D01*
X028794Y035705D01*
X028792Y035706D01*
X02877Y035909D01*
X02951Y03665D01*
X029543Y036728D01*
X029606Y036755D01*
X029733Y037061D01*
X029606Y037367D01*
X0293Y037494D01*
X028994Y037367D01*
X028867Y037061D01*
X028929Y036911D01*
X02824Y036221D01*
X028152Y036011D01*
Y035724D01*
X028106Y035705D01*
X028031Y035525D01*
X027815D01*
X027756Y035667D01*
X0275Y035773D01*
Y035211D01*
Y034648D01*
X027756Y034755D01*
X027815Y034896D01*
X028031D01*
X028106Y034716D01*
X028243Y03466D01*
X028282Y034463D01*
X02309Y029271D01*
X023002Y029061D01*
Y028769D01*
X022959Y028751D01*
X022818Y028411D01*
X022959Y02807D01*
X023002Y028052D01*
Y026984D01*
X022854Y026836D01*
X02275Y026879D01*
X022348Y026713D01*
X022182Y026311D01*
X022348Y025909D01*
X022348Y025713D01*
X022182Y025311D01*
X022348Y024909D01*
X02275Y024742D01*
X022854Y024786D01*
X023307Y024333D01*
X023398Y024163D01*
X023232Y023761D01*
X023398Y023359D01*
X0238Y023192D01*
X024202Y023359D01*
X024279Y023545D01*
X024475Y023584D01*
X025352Y022707D01*
Y021491D01*
X02544Y021281D01*
X02582Y0209D01*
X025938Y020851D01*
X027227Y019562D01*
Y016142D01*
X027061Y016031D01*
X02695Y016077D01*
Y015611D01*
X0269D01*
Y015561D01*
X026434D01*
X026556Y015266D01*
X026624Y015238D01*
Y015048D01*
X026606Y01503D01*
X026517Y014993D01*
X026485Y014915D01*
X026478Y014908D01*
X026073D01*
X025048Y015934D01*
Y016055D01*
X025146Y016215D01*
X025291Y016232D01*
Y016611D01*
Y016965D01*
X02524Y016944D01*
X025146Y017007D01*
Y017007D01*
X024354D01*
Y016215D01*
X024452D01*
Y015811D01*
X02454Y0156D01*
X02574Y0144D01*
X02595Y014313D01*
X026482D01*
X026517Y014228D01*
X026602Y014193D01*
Y013258D01*
X026567Y013243D01*
X026409Y012861D01*
X026567Y012478D01*
X026674Y012434D01*
Y012234D01*
X026606Y012205D01*
X026484Y011911D01*
X02695D01*
X027416D01*
X027294Y012205D01*
X027226Y012234D01*
Y012434D01*
X027333Y012478D01*
X027491Y012861D01*
X027333Y013243D01*
X027198Y013299D01*
Y014193D01*
X027283Y014228D01*
X027441Y014611D01*
X027283Y014993D01*
X027176Y015038D01*
Y015238D01*
X027244Y015266D01*
X027287Y015368D01*
X027483Y015407D01*
X028876Y014014D01*
X028799Y013808D01*
X028448Y013663D01*
X028282Y013261D01*
X028448Y012859D01*
X02885Y012692D01*
X029252Y012859D01*
X029418Y013261D01*
X029303Y013538D01*
X029437Y013738D01*
X030763D01*
X030897Y013538D01*
X030782Y013261D01*
X030948Y012859D01*
X03135Y012692D01*
X031752Y012859D01*
X031918Y013261D01*
X031803Y013538D01*
X031937Y013738D01*
X033463D01*
X033597Y013538D01*
X033482Y013261D01*
X033648Y012859D01*
X03405Y012692D01*
X034452Y012859D01*
X034524Y013033D01*
X036076D01*
X036148Y012859D01*
X03655Y012692D01*
X036952Y012859D01*
X037118Y013261D01*
X037003Y013538D01*
X037137Y013738D01*
X037275D01*
X037485Y013825D01*
X03836Y0147D01*
X038448Y014911D01*
Y015197D01*
X038494Y015216D01*
X038542Y015331D01*
X038758D01*
X038806Y015216D01*
X03915Y015074D01*
X039494Y015216D01*
X039542Y015331D01*
X039758D01*
X039806Y015216D01*
X04015Y015074D01*
X040494Y015216D01*
X040542Y015331D01*
X040758D01*
X040806Y015216D01*
X04115Y015074D01*
X041494Y015216D01*
X041576Y015413D01*
X04285D01*
X04306Y0155D01*
X04416Y0166D01*
X044248Y016811D01*
Y019515D01*
X044329Y019711D01*
Y020111D01*
X044218Y020379D01*
X04395Y02049D01*
X043682Y020379D01*
X043571Y020111D01*
Y019711D01*
X043652Y019515D01*
Y016934D01*
X042727Y016008D01*
X041576D01*
X041494Y016205D01*
X04115Y016348D01*
X040806Y016205D01*
X040758Y016091D01*
X040542D01*
X040494Y016205D01*
X04015Y016348D01*
X039806Y016205D01*
X039758Y016091D01*
X039542D01*
X039494Y016205D01*
X03915Y016348D01*
X038806Y016205D01*
X038758Y016091D01*
X038542D01*
X038494Y016205D01*
X038195Y016329D01*
X038105Y016533D01*
X038241Y016861D01*
X038083Y017243D01*
X037998Y017279D01*
Y018511D01*
X03791Y018721D01*
X036679Y019953D01*
Y020111D01*
X036568Y020379D01*
X0363Y02049D01*
X036032Y020379D01*
X035921Y020111D01*
Y019711D01*
X036032Y019443D01*
X0363Y019332D01*
X036412Y019378D01*
X037402Y018387D01*
Y017279D01*
X037317Y017243D01*
X037159Y016861D01*
X037309Y016498D01*
X037212Y016322D01*
X03715Y016348D01*
X036806Y016205D01*
X036758Y016091D01*
X036542D01*
X036494Y016205D01*
X03615Y016348D01*
X035806Y016205D01*
X035663Y015861D01*
Y015561D01*
X035788Y015258D01*
X035702Y015058D01*
X029673D01*
X028648Y016084D01*
Y020696D01*
X02856Y020906D01*
X026435Y023032D01*
X026482Y023268D01*
X026702Y023359D01*
X026779Y023545D01*
X026975Y023584D01*
X027609Y02295D01*
X027819Y022863D01*
X036577D01*
X036982Y022458D01*
X036943Y022262D01*
X036806Y022205D01*
X036758Y022091D01*
X036542D01*
X036494Y022205D01*
X03615Y022348D01*
X035806Y022205D01*
X035663Y021861D01*
Y021561D01*
X035699Y021475D01*
X035587Y021308D01*
X0354D01*
X03519Y021221D01*
X034412Y020443D01*
X0343Y02049D01*
X034032Y020379D01*
X033921Y020111D01*
Y019711D01*
X034032Y019443D01*
X0341Y019415D01*
X034147Y019179D01*
X033827Y018858D01*
X031773D01*
X031503Y019129D01*
X03155Y019365D01*
X031618Y019393D01*
X031729Y019661D01*
Y020061D01*
X031618Y020329D01*
X03135Y02044D01*
X031082Y020329D01*
X030996Y020121D01*
X030824Y020039D01*
X030771Y020031D01*
X030729Y020059D01*
Y020061D01*
X030618Y020329D01*
X03035Y02044D01*
X030082Y020329D01*
X029971Y020061D01*
Y019661D01*
X030082Y019393D01*
X03035Y019282D01*
X030462Y019328D01*
X03144Y01835D01*
X03165Y018263D01*
X03395D01*
X03416Y01835D01*
X03484Y01903D01*
X035076Y018983D01*
X03509Y01895D01*
X0353Y018863D01*
X03551Y01895D01*
X035598Y019161D01*
Y019515D01*
X035679Y019711D01*
Y020111D01*
X035568Y020379D01*
X035524Y020592D01*
X035628Y020713D01*
X035851D01*
X035912Y020688D01*
X037114D01*
X037226Y020522D01*
X037159Y020361D01*
X037317Y019978D01*
X0377Y01982D01*
X038083Y019978D01*
X038241Y020361D01*
X038174Y020522D01*
X038286Y020688D01*
X038388D01*
X038599Y020775D01*
X038971Y021148D01*
X03915Y021074D01*
X039494Y021216D01*
X039713Y02122D01*
X03976Y021131D01*
X039714Y021046D01*
X039112Y020443D01*
X039Y02049D01*
X038732Y020379D01*
X038621Y020111D01*
Y019711D01*
X038732Y019443D01*
X039Y019332D01*
X039268Y019443D01*
X039379Y019711D01*
Y019712D01*
X039421Y01974D01*
X039474Y019732D01*
X039646Y01965D01*
X039732Y019443D01*
X04Y019332D01*
X040268Y019443D01*
X040379Y019711D01*
Y020111D01*
X040268Y020379D01*
X0402Y020407D01*
X040153Y020643D01*
X04036Y02085D01*
X040448Y021061D01*
Y021197D01*
X040494Y021216D01*
X040542Y021331D01*
X040758D01*
X040806Y021216D01*
X04115Y021074D01*
X041494Y021216D01*
X041637Y021561D01*
Y021861D01*
X041494Y022205D01*
X04115Y022348D01*
X040997Y022284D01*
X04011Y023171D01*
X0399Y023258D01*
X037589D01*
X037076Y023771D01*
X036866Y023858D01*
X032761D01*
X032053Y024566D01*
X03215Y024742D01*
X032552Y024909D01*
X032718Y025311D01*
X032552Y025713D01*
X032552Y025909D01*
X032718Y026311D01*
X032552Y026713D01*
X032325Y026806D01*
X031965Y027166D01*
X032004Y027362D01*
X032106Y027405D01*
X032233Y027711D01*
X032106Y028017D01*
X032048Y028041D01*
Y029424D01*
X036859Y034236D01*
X037056Y034197D01*
X037094Y034105D01*
X0374Y033978D01*
X037706Y034105D01*
X037833Y034411D01*
X037723Y034677D01*
Y035765D01*
X037698Y035825D01*
Y039537D01*
X038773Y040613D01*
X038986D01*
X039006Y040566D01*
X03912Y040519D01*
Y040302D01*
X039006Y040255D01*
X038863Y039911D01*
X039006Y039566D01*
X03912Y039519D01*
Y039302D01*
X039006Y039255D01*
X038863Y038911D01*
X039006Y038566D01*
X03912Y038519D01*
Y038302D01*
X039006Y038255D01*
X038863Y037911D01*
X039006Y037566D01*
X039185Y037492D01*
Y037275D01*
X039044Y037217D01*
X038938Y036961D01*
X0395D01*
Y036861D01*
X038938D01*
X039044Y036605D01*
X039185Y036546D01*
Y03633D01*
X039006Y036255D01*
X038863Y035911D01*
X039006Y035566D01*
X039202Y035485D01*
Y034524D01*
X03929Y034313D01*
X039608Y033995D01*
X039605Y033852D01*
X0395Y033694D01*
X039418Y03366D01*
X039184Y033779D01*
X039106Y033967D01*
X0388Y034094D01*
X038494Y033967D01*
X038367Y033661D01*
X038385Y033617D01*
X03814Y033371D01*
X038052Y033161D01*
Y032068D01*
X03744Y031455D01*
X037352Y031245D01*
Y02597D01*
X037344Y025967D01*
X037217Y025661D01*
X037344Y025355D01*
X03765Y025228D01*
X037956Y025355D01*
X038083Y025661D01*
X037956Y025967D01*
X037948Y02597D01*
Y031122D01*
X03856Y031735D01*
X038648Y031945D01*
Y033037D01*
X038865Y033255D01*
X038882Y033262D01*
X039116Y033142D01*
X039194Y032955D01*
X039202Y032951D01*
Y027634D01*
X03839Y026821D01*
X038302Y026611D01*
Y02492D01*
X038294Y024917D01*
X038167Y024611D01*
X038294Y024305D01*
X0386Y024178D01*
X038906Y024305D01*
X039033Y024611D01*
X038906Y024917D01*
X038898Y02492D01*
Y026487D01*
X03971Y0273D01*
X039798Y027511D01*
Y032951D01*
X039806Y032955D01*
X039933Y033261D01*
X039845Y033474D01*
X03996Y033674D01*
X040496D01*
Y033772D01*
X042791D01*
X04328Y033284D01*
X04349Y033197D01*
X04421D01*
X04442Y033284D01*
X04475Y033613D01*
X045562D01*
X045694Y033441D01*
X045682Y033411D01*
X045725Y033307D01*
X044957Y032539D01*
X044931Y032476D01*
X044686Y032407D01*
X043909Y032729D01*
X043041Y032369D01*
X042681Y031501D01*
X043041Y030633D01*
X043807Y030315D01*
X043752Y030182D01*
Y029929D01*
X043667Y029893D01*
X043509Y029511D01*
X043667Y029128D01*
X04405Y02897D01*
X044433Y029128D01*
X044591Y029511D01*
X044488Y029759D01*
X044581Y030006D01*
X044641Y030031D01*
X045378Y030769D01*
X045466Y030979D01*
Y032205D01*
X046146Y032886D01*
X04625Y032842D01*
X046652Y033009D01*
X046818Y033411D01*
X046652Y033813D01*
X04625Y033979D01*
X046146Y033936D01*
X04596Y034121D01*
X04575Y034208D01*
X044626D01*
X044446Y034134D01*
X044246Y034213D01*
Y034411D01*
X044246D01*
X044216Y034456D01*
X044279Y034606D01*
X044153Y034909D01*
X043979Y034981D01*
X043932Y035217D01*
X044528Y035813D01*
X0449D01*
X04511Y0359D01*
X045492Y036281D01*
X0455Y036278D01*
X045806Y036405D01*
X045933Y036711D01*
X045806Y037017D01*
X045553Y037121D01*
X045478Y037328D01*
X04606Y037911D01*
X046148Y038122D01*
Y039701D01*
X046425Y039978D01*
X046649Y039919D01*
X046762Y039646D01*
X046991Y039551D01*
Y039335D01*
X046801Y039256D01*
X046684Y038975D01*
X047579D01*
X047463Y039256D01*
X047273Y039335D01*
Y039551D01*
X047501Y039646D01*
X047654Y040015D01*
X047501Y040385D01*
X047338Y040452D01*
Y040669D01*
X047501Y040737D01*
X047654Y041106D01*
X047501Y041475D01*
X047338Y041543D01*
Y041759D01*
X047501Y041827D01*
X047654Y042197D01*
X047501Y042566D01*
X047581Y042733D01*
X047771Y042636D01*
X047881Y042372D01*
X048044Y042305D01*
Y042088D01*
X047881Y042021D01*
X047728Y041651D01*
X047881Y041282D01*
X048044Y041214D01*
Y040998D01*
X047881Y04093D01*
X047728Y040561D01*
X047881Y040191D01*
X048044Y040124D01*
Y039907D01*
X047881Y03984D01*
X047728Y03947D01*
X047881Y039101D01*
X04825Y038948D01*
X048619Y039101D01*
X048772Y03947D01*
X048619Y03984D01*
X048456Y039907D01*
Y040124D01*
X048619Y040191D01*
X048772Y040561D01*
X048619Y04093D01*
X048456Y040998D01*
Y041214D01*
X048619Y041282D01*
X048772Y041651D01*
X048619Y042021D01*
X048456Y042088D01*
Y042305D01*
X048619Y042372D01*
X048772Y042742D01*
X048619Y043111D01*
X04825Y043264D01*
X047881Y043111D01*
X047815Y042952D01*
X047615Y042992D01*
Y04377D01*
X046649D01*
Y042804D01*
X046815D01*
X046855Y042604D01*
X046762Y042566D01*
X046609Y042197D01*
X046762Y041827D01*
X046926Y041759D01*
Y041543D01*
X046762Y041475D01*
X046609Y041106D01*
X046639Y041034D01*
X04564Y040035D01*
X045552Y039824D01*
Y038245D01*
X043285Y035978D01*
X0431Y036054D01*
Y036361D01*
X043021D01*
X042981Y036561D01*
X042994Y036566D01*
X043137Y036911D01*
X042994Y037255D01*
X04288Y037302D01*
Y037519D01*
X042994Y037566D01*
X043137Y037911D01*
X042994Y038255D01*
X042919Y038286D01*
X042901Y038487D01*
X042985Y038562D01*
X042994Y038566D01*
X042998Y038574D01*
X043041Y038613D01*
X043781D01*
X043809Y038586D01*
Y038215D01*
X044601D01*
Y038215D01*
X044645Y038244D01*
X044795Y038182D01*
X045098Y038308D01*
X045224Y038611D01*
X045098Y038914D01*
X045093Y038916D01*
Y039215D01*
X045006Y039426D01*
X04431Y040121D01*
X0441Y040208D01*
X043014D01*
X042994Y040255D01*
X04288Y040302D01*
Y040519D01*
X042994Y040566D01*
X043137Y040911D01*
X042994Y041255D01*
X04288Y041302D01*
Y041519D01*
X042994Y041566D01*
X043137Y041911D01*
X042994Y042255D01*
X04288Y042302D01*
Y042519D01*
X042994Y042566D01*
X043097Y042814D01*
X043909Y042478D01*
X044777Y042837D01*
X045136Y043706D01*
X044777Y044574D01*
X043909Y044933D01*
X04358Y044797D01*
X043469Y044964D01*
X044186Y04568D01*
X044253Y045841D01*
Y047853D01*
X044186Y048014D01*
X044001Y048199D01*
X044078Y048384D01*
X049134D01*
Y010516D01*
D02*
G37*
G36*
X037102Y039527D02*
Y036991D01*
X036918Y036914D01*
X03661Y037221D01*
X0364Y037308D01*
X032773D01*
X031564Y038518D01*
X031677Y038687D01*
X0317Y038678D01*
X032006Y038805D01*
X03206Y038933D01*
X036132D01*
X036293Y039D01*
X036902Y03961D01*
X037102Y039527D01*
D02*
G37*
G36*
X035938Y039433D02*
X035907Y039388D01*
X032774D01*
X032667Y039588D01*
X032697Y039633D01*
X035831D01*
X035938Y039433D01*
D02*
G37*
G36*
X044251Y039339D02*
X044185Y039122D01*
X044126Y03911D01*
X044115Y039121D01*
X043905Y039208D01*
X043014D01*
X042994Y039255D01*
X042919Y039286D01*
X042901Y039487D01*
X042985Y039562D01*
X042994Y039566D01*
X042998Y039574D01*
X043041Y039613D01*
X043977D01*
X044251Y039339D01*
D02*
G37*
G36*
X018101Y034726D02*
X018106Y034716D01*
X018113Y034713D01*
X018152Y03467D01*
Y033471D01*
X016422Y031741D01*
X016237Y031818D01*
Y033677D01*
X017227Y034666D01*
X01745Y034574D01*
X017794Y034716D01*
X017826Y034791D01*
X018027Y03481D01*
X018101Y034726D01*
D02*
G37*
G36*
X041077Y035912D02*
Y035331D01*
X041165Y035121D01*
X04159Y034696D01*
X0418Y034608D01*
X0432D01*
X043237Y034624D01*
X043328Y034574D01*
X043454Y034411D01*
X043454Y034411D01*
X043454D01*
Y034213D01*
X043269Y034136D01*
X043125Y034281D01*
X042914Y034368D01*
X040611D01*
X040489Y034565D01*
X040529Y034661D01*
X040403Y034964D01*
X0401Y035089D01*
X039964Y035033D01*
X039798Y035144D01*
Y035485D01*
X039994Y035566D01*
X040137Y035911D01*
X039994Y036255D01*
X039815Y03633D01*
Y036546D01*
X039956Y036605D01*
X040013Y036742D01*
X040209Y036781D01*
X041077Y035912D01*
D02*
G37*
G36*
X040225Y04345D02*
X040386Y043383D01*
X041795D01*
X041928Y043438D01*
X042005Y043254D01*
X041863Y042911D01*
X042006Y042566D01*
X04212Y042519D01*
Y042302D01*
X042006Y042255D01*
X041863Y041911D01*
X042006Y041566D01*
X04212Y041519D01*
Y041302D01*
X042006Y041255D01*
X041863Y040911D01*
X042006Y040566D01*
X04212Y040519D01*
Y040302D01*
X042006Y040255D01*
X041863Y039911D01*
X042006Y039566D01*
X04212Y039519D01*
Y039302D01*
X042006Y039255D01*
X041863Y038911D01*
X042006Y038566D01*
X04212Y038519D01*
Y038302D01*
X042006Y038255D01*
X04189Y037976D01*
X041678Y037905D01*
X040462Y039121D01*
X040251Y039208D01*
X040014D01*
X039994Y039255D01*
X03988Y039302D01*
Y039519D01*
X039994Y039566D01*
X040137Y039911D01*
X039994Y040255D01*
X03988Y040302D01*
Y040519D01*
X039994Y040566D01*
X040137Y040911D01*
X039994Y041255D01*
X03988Y041302D01*
Y041519D01*
X039994Y041566D01*
X040137Y041911D01*
X039994Y042255D01*
X03988Y042302D01*
Y042519D01*
X039994Y042566D01*
X040137Y042911D01*
X039994Y043255D01*
X039781Y043343D01*
X039821Y043543D01*
X040132D01*
X040225Y04345D01*
D02*
G37*
G36*
X040199Y038542D02*
X041477Y037263D01*
Y036616D01*
X041293Y036539D01*
X040074Y037758D01*
X040137Y037911D01*
X039994Y038255D01*
X039991Y038257D01*
X039966Y038483D01*
X040064Y038558D01*
X040199Y038542D01*
D02*
G37*
G36*
X031345Y029582D02*
X031452Y029509D01*
Y027962D01*
X031343Y027894D01*
X031256Y027876D01*
X030745Y028386D01*
Y028856D01*
X030745D01*
X030716Y029056D01*
X031268Y029607D01*
X031345Y029582D01*
D02*
G37*
G36*
X027951Y028091D02*
X027959Y02807D01*
X027975Y028064D01*
X028002Y028032D01*
Y027648D01*
X02809Y027438D01*
X029062Y026465D01*
X029019Y026361D01*
X029186Y025959D01*
X029186Y025763D01*
X029019Y025361D01*
X029186Y024959D01*
X029587Y024792D01*
X029989Y024959D01*
X030104Y025236D01*
X030321D01*
X030436Y024959D01*
X030837Y024792D01*
X030942Y024836D01*
X032134Y023643D01*
X032058Y023458D01*
X027943D01*
X026838Y024563D01*
X026858Y02477D01*
X02687Y024792D01*
X027152Y024909D01*
X027318Y025311D01*
X027159Y025695D01*
X027152Y025736D01*
Y025885D01*
X027159Y025926D01*
X027318Y026311D01*
X027272Y026422D01*
X027442Y026536D01*
X027612Y026365D01*
X027569Y026261D01*
X027736Y025859D01*
X027736Y025663D01*
X027569Y025261D01*
X027736Y024859D01*
X028137Y024692D01*
X028539Y024859D01*
X028706Y025261D01*
X028539Y025663D01*
X028539Y025859D01*
X028706Y026261D01*
X028539Y026663D01*
X028137Y026829D01*
X028033Y026786D01*
X027598Y027221D01*
Y028052D01*
X027641Y02807D01*
X027677Y028158D01*
X027877Y028175D01*
X027951Y028091D01*
D02*
G37*
G36*
X039982Y022458D02*
X039943Y022262D01*
X039806Y022205D01*
X039758Y022091D01*
X039542D01*
X039494Y022205D01*
X03915Y022348D01*
X038806Y022205D01*
X038758Y022091D01*
X038542D01*
X038494Y022205D01*
X03815Y022348D01*
X037997Y022284D01*
X037803Y022478D01*
X03788Y022663D01*
X039777D01*
X039982Y022458D01*
D02*
G37*
G36*
X026348Y025909D02*
X026348Y025713D01*
X026191Y025332D01*
X025997D01*
X025839Y025713D01*
X025839Y025909D01*
X025997Y026289D01*
X026191D01*
X026348Y025909D01*
D02*
G37*
G36*
X023951Y028091D02*
X023959Y02807D01*
X023974Y028064D01*
X024002Y028032D01*
Y026802D01*
X023786Y026713D01*
X023619Y026311D01*
X023786Y025909D01*
X023786Y025713D01*
X023619Y025311D01*
X023736Y025028D01*
X023567Y024915D01*
X023275Y025207D01*
X023318Y025311D01*
X023152Y025713D01*
X023152Y025909D01*
X023318Y026311D01*
X023275Y026415D01*
X02351Y02665D01*
X023598Y026861D01*
Y028052D01*
X023641Y02807D01*
X023677Y028158D01*
X023877Y028175D01*
X023951Y028091D01*
D02*
G37*
G36*
X037806Y015216D02*
X037808Y015215D01*
X03783Y015012D01*
X037509Y014691D01*
X037313Y01473D01*
X037256Y014867D01*
X037203Y014889D01*
X037215Y0151D01*
X037494Y015216D01*
X037542Y015331D01*
X037758D01*
X037806Y015216D01*
D02*
G37*
G36*
X035916Y013538D02*
X03589Y013488D01*
X03471D01*
X034684Y013538D01*
X034804Y013738D01*
X035796D01*
X035916Y013538D01*
D02*
G37*
G36*
X018152Y019336D02*
Y018918D01*
X018068Y018788D01*
X017968Y018761D01*
X01695D01*
Y018644D01*
X015729D01*
X015595Y018778D01*
X015613Y01884D01*
X015693Y018963D01*
X017395D01*
X017606Y01905D01*
X017968Y019412D01*
X018152Y019336D01*
D02*
G37*
G36*
X028052Y020572D02*
Y016153D01*
X027852Y016034D01*
X027823Y01605D01*
Y019686D01*
X027735Y019896D01*
X026487Y021144D01*
X026526Y02134D01*
X026664Y021397D01*
X026746Y021596D01*
X026982Y021643D01*
X028052Y020572D01*
D02*
G37*
G36*
X025951Y028091D02*
X025959Y02807D01*
X025975Y028064D01*
X026002Y028032D01*
Y026811D01*
X025822Y026722D01*
X025818Y026722D01*
X025598Y026813D01*
Y028052D01*
X025641Y02807D01*
X025677Y028158D01*
X025877Y028175D01*
X025951Y028091D01*
D02*
G37*
G36*
X024951D02*
X024959Y02807D01*
X024975Y028064D01*
X025002Y028032D01*
Y026632D01*
X024921Y026435D01*
X024704D01*
X024598Y026692D01*
Y028052D01*
X024641Y02807D01*
X024677Y028158D01*
X024877Y028175D01*
X024951Y028091D01*
D02*
G37*
G36*
X028951D02*
X028959Y02807D01*
X028974Y028064D01*
X029002Y028032D01*
Y027898D01*
X02909Y027688D01*
X029558Y02722D01*
X029493Y027001D01*
X02939Y026979D01*
X028598Y027771D01*
Y028052D01*
X028641Y02807D01*
X028677Y028158D01*
X028877Y028175D01*
X028951Y028091D01*
D02*
G37*
G36*
X026951D02*
X026959Y02807D01*
X026974Y028064D01*
X027002Y028032D01*
Y027098D01*
X027041Y027006D01*
X026905Y026859D01*
X026735Y026894D01*
X026598Y027032D01*
Y028052D01*
X026641Y02807D01*
X026677Y028158D01*
X026877Y028175D01*
X026951Y028091D01*
D02*
G37*
G36*
X025036Y025909D02*
X025036Y025713D01*
X024921Y025435D01*
X024704D01*
X024589Y025713D01*
X024589Y025909D01*
X024704Y026186D01*
X024921D01*
X025036Y025909D01*
D02*
G37*
G36*
X031591Y026289D02*
X031748Y025909D01*
X031748Y025713D01*
X031591Y025332D01*
X031397Y025382D01*
X031239Y025763D01*
X031239Y025959D01*
X031397Y026339D01*
X031591Y026289D01*
D02*
G37*
G36*
X031698Y026592D02*
X031591Y026332D01*
X031397Y026382D01*
X031239Y026763D01*
X030837Y026929D01*
X030733Y026886D01*
X029853Y027766D01*
X029937Y027965D01*
X030324D01*
X031698Y026592D01*
D02*
G37*
G36*
X030436Y025959D02*
X030436Y025763D01*
X030321Y025485D01*
X030104D01*
X029989Y025763D01*
X029989Y025959D01*
X030104Y026236D01*
X030321D01*
X030436Y025959D01*
D02*
G37*
G36*
X022996Y048246D02*
X023001Y048184D01*
X019817Y044999D01*
X019784Y044921D01*
X019565Y044795D01*
X019487Y044827D01*
X019143Y044685D01*
X019096Y04457D01*
X018879D01*
X018832Y044685D01*
X018487Y044827D01*
X018143Y044685D01*
X018096Y04457D01*
X017879D01*
X017832Y044685D01*
X017617Y044774D01*
X01757Y045009D01*
X019161Y0466D01*
X019227Y046761D01*
Y046923D01*
X019341Y04697D01*
X019392Y047093D01*
X019608D01*
X019659Y04697D01*
X02Y046829D01*
X020341Y04697D01*
X020392Y047093D01*
X020608D01*
X020659Y04697D01*
X021Y046829D01*
X021341Y04697D01*
X021482Y047311D01*
X021341Y047651D01*
X021Y047793D01*
X020659Y047651D01*
X020608Y047528D01*
X020392D01*
X020341Y047651D01*
X02Y047793D01*
X019659Y047651D01*
X019608Y047528D01*
X019392D01*
X019341Y047651D01*
X019Y047793D01*
X018659Y047651D01*
X018608Y047528D01*
X018392D01*
X018341Y047651D01*
X018Y047793D01*
X017659Y047651D01*
X017608Y047528D01*
X017392D01*
X017341Y047651D01*
X017Y047793D01*
X016675Y047658D01*
X016666Y047681D01*
X016666Y047681D01*
X01637Y047977D01*
X016209Y048043D01*
X013618D01*
X013457Y047977D01*
X012015Y046535D01*
X011948Y046374D01*
Y042783D01*
X012015Y042623D01*
X012723Y041915D01*
Y040497D01*
X012679Y040453D01*
X012613Y040293D01*
Y039829D01*
X012679Y039668D01*
X012723Y039625D01*
Y029051D01*
X012519Y028848D01*
X012453Y028687D01*
Y019181D01*
X012519Y01902D01*
X012629Y01891D01*
X012567Y018761D01*
X012694Y018455D01*
X013Y018328D01*
X013163Y018219D01*
Y017958D01*
X013229Y017797D01*
X013313Y017714D01*
Y01692D01*
X013373Y016775D01*
Y015415D01*
X013359Y015402D01*
X013293Y015241D01*
Y014843D01*
X012789Y01434D01*
X012723Y014179D01*
Y013361D01*
X012789Y0132D01*
X015288Y010701D01*
X015211Y010516D01*
X011666D01*
Y03905D01*
Y048384D01*
X022943D01*
X022996Y048246D01*
D02*
G37*
G36*
X033878Y047318D02*
X033817Y047293D01*
X033659Y046911D01*
X033474Y046888D01*
X031844D01*
X03171Y047088D01*
X031782Y047261D01*
X031735Y047374D01*
X031879Y047518D01*
X033838D01*
X033878Y047318D01*
D02*
G37*
G36*
X016081Y046785D02*
X016158Y04658D01*
X014846Y045268D01*
X014826Y045272D01*
X01476Y045489D01*
X016059Y046787D01*
X016081Y046785D01*
D02*
G37*
G36*
X020211Y042129D02*
X020154Y041903D01*
X020097Y041885D01*
X01929Y042692D01*
X019358Y042907D01*
X019422Y042918D01*
X020211Y042129D01*
D02*
G37*
G36*
X030223Y041962D02*
Y041754D01*
X030106Y041705D01*
X030058Y041591D01*
X029842D01*
X029794Y041705D01*
X02945Y041848D01*
X029297Y041784D01*
X029048Y042034D01*
Y042694D01*
X029095Y042807D01*
X029318Y042867D01*
X030223Y041962D01*
D02*
G37*
G36*
X03556Y042671D02*
X035801Y042571D01*
X03584Y042374D01*
X035289Y041823D01*
X035268Y041772D01*
X035106Y041705D01*
X035058Y041591D01*
X034842D01*
X034794Y041705D01*
X034677Y041754D01*
Y042393D01*
X035191Y042906D01*
X035218Y042973D01*
X035435D01*
X03556Y042671D01*
D02*
G37*
G36*
X033323Y042628D02*
Y042405D01*
X032749Y041832D01*
X032609Y041876D01*
X032559Y042087D01*
X033111Y042639D01*
X033123Y042668D01*
X033323Y042628D01*
D02*
G37*
G36*
X013555Y04717D02*
Y046865D01*
X013813D01*
X013896Y046665D01*
X013459Y046229D01*
X013393Y046068D01*
Y045824D01*
X012588Y045019D01*
X012403Y045096D01*
Y04628D01*
X01337Y047247D01*
X013555Y04717D01*
D02*
G37*
G36*
X040054Y048199D02*
X039584Y047729D01*
X039575Y047707D01*
X03925Y047841D01*
X038909Y0477D01*
X038768Y047359D01*
Y047162D01*
X038909Y046821D01*
X038922Y0466D01*
X038822Y046359D01*
Y046311D01*
X03925D01*
Y046261D01*
X0393D01*
Y045755D01*
X039553Y04586D01*
X039642Y046075D01*
X039858D01*
X039947Y04586D01*
X0402Y045755D01*
Y046261D01*
X0403D01*
Y045755D01*
X040553Y04586D01*
X040642Y046075D01*
X040858D01*
X040947Y04586D01*
X0412Y045755D01*
Y046261D01*
X0413D01*
Y045755D01*
X041553Y04586D01*
X041642Y046075D01*
X041858D01*
X041947Y04586D01*
X042158Y045773D01*
X042217Y04555D01*
X041361Y044693D01*
X041125Y04474D01*
X041068Y044879D01*
X04085Y044969D01*
Y044611D01*
X04075D01*
Y044969D01*
X040532Y044879D01*
X040421Y044611D01*
X040236Y044538D01*
X03785D01*
X037689Y044471D01*
X037479Y044261D01*
X0374Y044294D01*
X037299Y044252D01*
X037132Y044363D01*
Y047104D01*
X037066Y047264D01*
X036424Y047906D01*
X036263Y047973D01*
X031785D01*
X031785Y047973D01*
X031624Y047906D01*
X031624Y047906D01*
X031414Y047696D01*
X0313Y047743D01*
X031186Y047696D01*
X030699Y048184D01*
X030704Y048246D01*
X030757Y048384D01*
X039977D01*
X040054Y048199D01*
D02*
G37*
G36*
X038016Y044031D02*
X038089Y043821D01*
X038023Y043661D01*
Y041755D01*
X037085Y040817D01*
X0369Y040893D01*
Y041811D01*
X036677D01*
Y042187D01*
X037066Y042575D01*
X037132Y042736D01*
Y043359D01*
X037299Y04347D01*
X0374Y043428D01*
X037706Y043555D01*
X037833Y043861D01*
X037826Y043877D01*
X037964Y044037D01*
X038016Y044031D01*
D02*
G37*
G36*
X033807Y04619D02*
X033968Y046123D01*
X03623D01*
Y043818D01*
X036064Y043707D01*
X036Y043733D01*
X03556Y043551D01*
X035457Y043303D01*
X035257Y043343D01*
Y043754D01*
X035191Y043915D01*
X035191Y043915D01*
X032857Y046249D01*
X032934Y046433D01*
X033564D01*
X033807Y04619D01*
D02*
G37*
G36*
X027819Y04542D02*
X02798Y045353D01*
X031725D01*
X032723Y044356D01*
Y042894D01*
X03186Y042031D01*
X031624Y042078D01*
X031611Y042111D01*
X031611Y042111D01*
X03115Y042571D01*
X031183Y04265D01*
X031056Y042956D01*
X03075Y043083D01*
X030444Y042956D01*
X030359Y042752D01*
X030132Y042696D01*
X029676Y043151D01*
X029715Y043348D01*
X029832Y043396D01*
X029879Y04351D01*
X030096D01*
X030143Y043396D01*
X030487Y043253D01*
X030832Y043396D01*
X030906Y043575D01*
X031123D01*
X031181Y043434D01*
X031437Y043328D01*
Y04404D01*
Y044752D01*
X031181Y044646D01*
X031123Y044505D01*
X030906D01*
X030832Y044685D01*
X030487Y044827D01*
X030143Y044685D01*
X030096Y04457D01*
X029879D01*
X029832Y044685D01*
X029487Y044827D01*
X029173Y044697D01*
X028859Y045011D01*
X028699Y045078D01*
X027D01*
X026889Y045244D01*
X026933Y04535D01*
X026806Y045656D01*
X026727Y045689D01*
Y04594D01*
X026856Y045994D01*
X026901Y046103D01*
X027097Y046142D01*
X027819Y04542D01*
D02*
G37*
G36*
X042817Y044034D02*
X042681Y043706D01*
X042741Y04356D01*
X042592Y043398D01*
X04235D01*
X042034Y043267D01*
X041956Y04345D01*
X042651Y044145D01*
X042817Y044034D01*
D02*
G37*
G36*
X017659Y04697D02*
X017773Y046923D01*
Y046312D01*
X016808Y045348D01*
X016139D01*
X015978Y045281D01*
X015547Y04485D01*
X015501Y044739D01*
X015296Y044661D01*
X015179Y04472D01*
X015144Y044922D01*
X017086Y046864D01*
X017341Y04697D01*
X017392Y047093D01*
X017608D01*
X017659Y04697D01*
D02*
G37*
G36*
X023855Y047361D02*
Y046815D01*
X024073D01*
Y04641D01*
X024139Y046249D01*
X025387Y045002D01*
X02534Y044766D01*
X025143Y044685D01*
X025096Y04457D01*
X024879D01*
X024832Y044685D01*
X024487Y044827D01*
X024143Y044685D01*
X024096Y04457D01*
X023879D01*
X023832Y044685D01*
X023487Y044827D01*
X023143Y044685D01*
X023096Y04457D01*
X022879D01*
X022832Y044685D01*
X022487Y044827D01*
X022143Y044685D01*
X022096Y04457D01*
X021879D01*
X021832Y044685D01*
X021487Y044827D01*
X021203Y04471D01*
X02109Y044879D01*
X023655Y047444D01*
X023855Y047361D01*
D02*
G37*
G36*
X024101Y040726D02*
X024106Y040716D01*
X024113Y040713D01*
X024152Y04067D01*
Y040116D01*
X023956Y040067D01*
X023748Y040153D01*
Y040697D01*
X023794Y040716D01*
X023826Y040791D01*
X024027Y04081D01*
X024101Y040726D01*
D02*
G37*
G36*
X035478Y047352D02*
X035378Y047111D01*
X035515Y046778D01*
X035391Y046578D01*
X034783D01*
X034672Y046744D01*
X034741Y046911D01*
X034583Y047293D01*
X034522Y047318D01*
X034562Y047518D01*
X035366D01*
X035478Y047352D01*
D02*
G37*
G36*
X025959Y04692D02*
X026219Y046812D01*
X026243Y046617D01*
X026239Y046594D01*
X026117Y0463D01*
X026244Y045994D01*
X026273Y045982D01*
Y045689D01*
X026194Y045656D01*
X026067Y04535D01*
X025912Y045202D01*
X025837Y045194D01*
X024527Y046504D01*
Y046815D01*
X024745D01*
Y046914D01*
X024945Y046954D01*
X024959Y04692D01*
X0253Y046779D01*
X025641Y04692D01*
X025692Y047043D01*
X025908D01*
X025959Y04692D01*
D02*
G37*
G36*
X034106Y040716D02*
X03445Y040574D01*
X034794Y040716D01*
X034842Y040831D01*
X035058D01*
X035106Y040716D01*
X03545Y040574D01*
X035794Y040716D01*
X0358Y04073D01*
X036Y04069D01*
Y040611D01*
X036617D01*
X036694Y040426D01*
X036356Y040088D01*
X032451D01*
X032416Y040102D01*
X032306Y040367D01*
X032Y040494D01*
X031921Y040461D01*
X031773Y040609D01*
X031794Y040716D01*
X031842Y040831D01*
X032058D01*
X032106Y040716D01*
X03245Y040574D01*
X032794Y040716D01*
X032842Y040831D01*
X033058D01*
X033106Y040716D01*
X03345Y040574D01*
X033794Y040716D01*
X033842Y040831D01*
X034058D01*
X034106Y040716D01*
D02*
G37*
G36*
X013459Y04156D02*
X01362Y041494D01*
X01528D01*
X015417Y041402D01*
Y037016D01*
X015484Y036856D01*
X016968Y035372D01*
X016963Y035361D01*
Y035061D01*
X016968Y03505D01*
X016033Y034115D01*
X015836Y034154D01*
X015794Y034255D01*
X0155Y034377D01*
Y033911D01*
Y033444D01*
X015616Y033493D01*
X015783Y033381D01*
Y03178D01*
X015583Y03174D01*
X015318Y032379D01*
X01445Y032738D01*
X013582Y032379D01*
X013377Y031885D01*
X013177Y031925D01*
Y035407D01*
X013377Y035513D01*
X013452Y035463D01*
Y034611D01*
X01354Y0344D01*
X013944Y033996D01*
X013909Y033911D01*
X014067Y033528D01*
X01445Y03337D01*
X014833Y033528D01*
X014877Y033635D01*
X015077D01*
X015106Y033566D01*
X0154Y033444D01*
Y033911D01*
Y034377D01*
X015106Y034255D01*
X015077Y034186D01*
X014877D01*
X014833Y034293D01*
X01445Y034452D01*
X014365Y034417D01*
X014048Y034734D01*
Y035616D01*
X014152Y035659D01*
X014318Y036061D01*
X014152Y036463D01*
X01375Y036629D01*
X013377Y036475D01*
X013177Y036553D01*
Y037568D01*
X013377Y037647D01*
X01375Y037492D01*
X014152Y037659D01*
X014318Y038061D01*
X014152Y038463D01*
X01375Y038629D01*
X013698Y038664D01*
Y039639D01*
X013704Y039645D01*
X013783Y039678D01*
X01382Y039767D01*
X013837Y039785D01*
X014027D01*
X014056Y039716D01*
X01435Y039594D01*
Y040061D01*
Y040527D01*
X014056Y040405D01*
X014027Y040336D01*
X013827D01*
X013783Y040443D01*
X0134Y040602D01*
X013344Y040579D01*
X013177Y04069D01*
Y041581D01*
X013362Y041657D01*
X013459Y04156D01*
D02*
G37*
G36*
X025101Y040726D02*
X025106Y040716D01*
X025113Y040713D01*
X025152Y04067D01*
Y039784D01*
X024932Y039564D01*
X0249Y039572D01*
X024748Y039662D01*
Y040697D01*
X024794Y040716D01*
X024826Y040791D01*
X025027Y04081D01*
X025101Y040726D01*
D02*
G37*
G36*
X016968Y041372D02*
X016963Y041361D01*
Y041061D01*
X016968Y04105D01*
X016806Y040888D01*
X016589D01*
X016556Y040967D01*
X01625Y041094D01*
X016072Y04102D01*
X015872Y041153D01*
Y041831D01*
X0159Y041874D01*
X016465D01*
X016968Y041372D01*
D02*
G37*
%LPC*%
G36*
X01775Y014911D02*
X0172D01*
Y014061D01*
X01775D01*
Y014911D01*
D02*
G37*
G36*
X0192Y017127D02*
Y016711D01*
X019616D01*
X019494Y017005D01*
X0192Y017127D01*
D02*
G37*
G36*
X02935Y02044D02*
X029082Y020329D01*
X028971Y020061D01*
Y019661D01*
X029082Y019393D01*
X02935Y019282D01*
X029618Y019393D01*
X029729Y019661D01*
Y020061D01*
X029618Y020329D01*
X02935Y02044D01*
D02*
G37*
G36*
X0329Y021002D02*
X032517Y020843D01*
X032359Y020461D01*
X032517Y020078D01*
X0329Y01992D01*
X033283Y020078D01*
X033441Y020461D01*
X033283Y020843D01*
X0329Y021002D01*
D02*
G37*
G36*
X0417Y013879D02*
X041298Y013713D01*
X041226Y013538D01*
X039674D01*
X039602Y013713D01*
X0392Y013879D01*
X038798Y013713D01*
X038632Y013311D01*
X038798Y012909D01*
X0392Y012742D01*
X039602Y012909D01*
X039674Y013083D01*
X041226D01*
X041298Y012909D01*
X0417Y012742D01*
X042102Y012909D01*
X042268Y013311D01*
X042102Y013713D01*
X0417Y013879D01*
D02*
G37*
G36*
X0171Y014911D02*
X01655D01*
Y014061D01*
X0171D01*
Y014911D01*
D02*
G37*
G36*
X0191Y017127D02*
X018806Y017005D01*
X018684Y016711D01*
X0191D01*
Y017127D01*
D02*
G37*
G36*
X019616Y016611D02*
X0192D01*
Y016194D01*
X019494Y016316D01*
X019616Y016611D01*
D02*
G37*
G36*
X0191D02*
X018684D01*
X018806Y016316D01*
X0191Y016194D01*
Y016611D01*
D02*
G37*
G36*
X025694Y016561D02*
X025391D01*
Y016257D01*
X025605Y016346D01*
X025694Y016561D01*
D02*
G37*
G36*
X04255Y017402D02*
X042167Y017243D01*
X042009Y016861D01*
X042167Y016478D01*
X04255Y01632D01*
X042933Y016478D01*
X043091Y016861D01*
X042933Y017243D01*
X04255Y017402D01*
D02*
G37*
G36*
X0329Y017502D02*
X032517Y017343D01*
X032359Y016961D01*
X032517Y016578D01*
X0329Y01642D01*
X033283Y016578D01*
X033441Y016961D01*
X033283Y017343D01*
X0329Y017502D01*
D02*
G37*
G36*
X0474Y017552D02*
X047017Y017393D01*
X046859Y017011D01*
X047017Y016628D01*
X0474Y01647D01*
X047783Y016628D01*
X047941Y017011D01*
X047783Y017393D01*
X0474Y017552D01*
D02*
G37*
G36*
X025391Y016965D02*
Y016661D01*
X025694D01*
X025605Y016876D01*
X025391Y016965D01*
D02*
G37*
G36*
X0171Y015861D02*
X01655D01*
Y015011D01*
X0171D01*
Y015861D01*
D02*
G37*
G36*
X02685Y016077D02*
X026556Y015955D01*
X026434Y015661D01*
X02685D01*
Y016077D01*
D02*
G37*
G36*
X01775Y015861D02*
X0172D01*
Y015011D01*
X01775D01*
Y015861D01*
D02*
G37*
G36*
X01605Y014061D02*
X0152D01*
Y013511D01*
X01605D01*
Y014061D01*
D02*
G37*
G36*
X0341Y011754D02*
Y011311D01*
X034543D01*
X034414Y011624D01*
X0341Y011754D01*
D02*
G37*
G36*
X034D02*
X033686Y011624D01*
X033557Y011311D01*
X034D01*
Y011754D01*
D02*
G37*
G36*
X0314D02*
Y011311D01*
X031843D01*
X031714Y011624D01*
X0314Y011754D01*
D02*
G37*
G36*
X03915Y011804D02*
X038836Y011674D01*
X038707Y011361D01*
X03915D01*
Y011804D01*
D02*
G37*
G36*
X0366Y011754D02*
Y011311D01*
X037043D01*
X036914Y011624D01*
X0366Y011754D01*
D02*
G37*
G36*
X0365D02*
X036186Y011624D01*
X036057Y011311D01*
X0365D01*
Y011754D01*
D02*
G37*
G36*
X0313D02*
X030986Y011624D01*
X030857Y011311D01*
X0313D01*
Y011754D01*
D02*
G37*
G36*
X04725Y011604D02*
X046936Y011474D01*
X046807Y011161D01*
X04725D01*
Y011604D01*
D02*
G37*
G36*
X04485D02*
Y011161D01*
X045293D01*
X045164Y011474D01*
X04485Y011604D01*
D02*
G37*
G36*
X04475D02*
X044436Y011474D01*
X044307Y011161D01*
X04475D01*
Y011604D01*
D02*
G37*
G36*
X0289Y011754D02*
Y011311D01*
X029343D01*
X029214Y011624D01*
X0289Y011754D01*
D02*
G37*
G36*
X0288D02*
X028486Y011624D01*
X028357Y011311D01*
X0288D01*
Y011754D01*
D02*
G37*
G36*
X04735Y011604D02*
Y011161D01*
X047793D01*
X047664Y011474D01*
X04735Y011604D01*
D02*
G37*
G36*
X0151Y013411D02*
X01425D01*
Y012861D01*
X0151D01*
Y013411D01*
D02*
G37*
G36*
X0473Y013679D02*
X046898Y013513D01*
X046732Y013111D01*
X046898Y012709D01*
X0473Y012542D01*
X047702Y012709D01*
X047868Y013111D01*
X047702Y013513D01*
X0473Y013679D01*
D02*
G37*
G36*
X02195Y012639D02*
Y012061D01*
X022529D01*
X022359Y01247D01*
X02195Y012639D01*
D02*
G37*
G36*
X0151Y014061D02*
X01425D01*
Y013511D01*
X0151D01*
Y014061D01*
D02*
G37*
G36*
X02115Y014611D02*
X02065D01*
X0204Y014361D01*
Y013661D01*
X02065Y013411D01*
X02115D01*
X021301Y013562D01*
X021412Y013654D01*
X021563Y013572D01*
X021675Y013461D01*
X02185D01*
Y014011D01*
Y014561D01*
X021675D01*
X021563Y014449D01*
X021412Y014367D01*
X021301Y014459D01*
X02115Y014611D01*
D02*
G37*
G36*
X01605Y013411D02*
X0152D01*
Y012861D01*
X01605D01*
Y013411D01*
D02*
G37*
G36*
X02185Y012639D02*
X021441Y01247D01*
X021271Y012061D01*
X02185D01*
Y012639D01*
D02*
G37*
G36*
Y011961D02*
X021271D01*
X021441Y011551D01*
X02185Y011382D01*
Y011961D01*
D02*
G37*
G36*
X04165Y011804D02*
X041336Y011674D01*
X041207Y011361D01*
X04165D01*
Y011804D01*
D02*
G37*
G36*
X03925D02*
Y011361D01*
X039693D01*
X039564Y011674D01*
X03925Y011804D01*
D02*
G37*
G36*
X027416Y011811D02*
X027D01*
Y011394D01*
X027294Y011516D01*
X027416Y011811D01*
D02*
G37*
G36*
X0269D02*
X026484D01*
X026606Y011516D01*
X0269Y011394D01*
Y011811D01*
D02*
G37*
G36*
X022529Y011961D02*
X02195D01*
Y011382D01*
X022359Y011551D01*
X022529Y011961D01*
D02*
G37*
G36*
X046743Y031361D02*
X0463D01*
Y030917D01*
X046614Y031047D01*
X046743Y031361D01*
D02*
G37*
G36*
X0462D02*
X045757D01*
X045886Y031047D01*
X0462Y030917D01*
Y031361D01*
D02*
G37*
G36*
X02725Y042519D02*
Y042211D01*
X027558D01*
X027468Y042429D01*
X02725Y042519D01*
D02*
G37*
G36*
X04825Y032979D02*
X047848Y032813D01*
X047682Y032411D01*
X047848Y032009D01*
X04825Y031842D01*
X048652Y032009D01*
X048818Y032411D01*
X048652Y032813D01*
X04825Y032979D01*
D02*
G37*
G36*
X0463Y031904D02*
Y031461D01*
X046743D01*
X046614Y031774D01*
X0463Y031904D01*
D02*
G37*
G36*
X0462D02*
X045886Y031774D01*
X045757Y031461D01*
X0462D01*
Y031904D01*
D02*
G37*
G36*
X0442Y028402D02*
X043817Y028243D01*
X043659Y027861D01*
X043817Y027478D01*
X0442Y02732D01*
X044583Y027478D01*
X044741Y027861D01*
X044583Y028243D01*
X0442Y028402D01*
D02*
G37*
G36*
X034379Y027861D02*
X0338D01*
Y027282D01*
X034209Y027451D01*
X034379Y027861D01*
D02*
G37*
G36*
X0337D02*
X033121D01*
X033291Y027451D01*
X0337Y027282D01*
Y027861D01*
D02*
G37*
G36*
X04755Y030052D02*
X047167Y029893D01*
X047009Y029511D01*
X047167Y029128D01*
X04755Y02897D01*
X047635Y029005D01*
X048022Y028618D01*
X048011Y028461D01*
X047832Y028347D01*
X0477Y028402D01*
X047317Y028243D01*
X047159Y027861D01*
X047317Y027478D01*
X047402Y027443D01*
Y026983D01*
X04735Y026948D01*
X047006Y026805D01*
X046958Y026691D01*
X046742D01*
X046694Y026805D01*
X04635Y026948D01*
X046006Y026805D01*
X045958Y026691D01*
X045742D01*
X045694Y026805D01*
X04535Y026948D01*
X045006Y026805D01*
X044863Y026461D01*
Y026161D01*
X045006Y025816D01*
X045052Y025797D01*
Y024573D01*
X044565Y024085D01*
X044477Y023875D01*
Y022586D01*
X044565Y022375D01*
X044977Y021962D01*
Y020508D01*
X04495Y02049D01*
X044682Y020379D01*
X044571Y020111D01*
Y019711D01*
X044682Y019443D01*
X04495Y019332D01*
X045218Y019443D01*
X045329Y019711D01*
Y019712D01*
X045371Y01974D01*
X045424Y019732D01*
X045596Y01965D01*
X045682Y019443D01*
X04595Y019332D01*
X046218Y019443D01*
X046329Y019711D01*
Y019869D01*
X046673Y020213D01*
X046982D01*
X047017Y020128D01*
X0474Y01997D01*
X047783Y020128D01*
X047941Y020511D01*
X047783Y020893D01*
X0474Y021052D01*
X047017Y020893D01*
X046982Y020808D01*
X04655D01*
X04634Y020721D01*
X046062Y020443D01*
X04595Y02049D01*
X045773Y020416D01*
X045573Y02053D01*
Y022086D01*
X045485Y022296D01*
X045271Y022511D01*
X045354Y022711D01*
X0458D01*
Y02279D01*
X046Y02283D01*
X046006Y022816D01*
X04635Y022674D01*
X046694Y022816D01*
X046742Y022931D01*
X046958D01*
X047006Y022816D01*
X04735Y022674D01*
X047694Y022816D01*
X047769Y022996D01*
X047985D01*
X048044Y022855D01*
X0483Y022748D01*
Y023311D01*
Y023873D01*
X048044Y023767D01*
X047985Y023625D01*
X047769D01*
X047694Y023805D01*
X04735Y023948D01*
X047006Y023805D01*
X046958Y023691D01*
X046742D01*
X046694Y023805D01*
X04635Y023948D01*
X046006Y023805D01*
X046Y023792D01*
X0458Y023831D01*
Y023911D01*
X045493D01*
X045417Y024095D01*
X04556Y024239D01*
X045648Y02445D01*
Y025797D01*
X045694Y025816D01*
X045742Y025931D01*
X045958D01*
X046006Y025816D01*
X04635Y025674D01*
X046694Y025816D01*
X046742Y025931D01*
X046958D01*
X047006Y025816D01*
X04735Y025674D01*
X047694Y025816D01*
X047742Y025931D01*
X047958D01*
X048006Y025816D01*
X04835Y025674D01*
X048694Y025816D01*
X048837Y026161D01*
Y026461D01*
X048694Y026805D01*
X048648Y026824D01*
Y028711D01*
X04856Y028921D01*
X048056Y029426D01*
X048091Y029511D01*
X047933Y029893D01*
X04755Y030052D01*
D02*
G37*
G36*
X0338Y028539D02*
Y027961D01*
X034379D01*
X034209Y02837D01*
X0338Y028539D01*
D02*
G37*
G36*
X0337D02*
X033291Y02837D01*
X033121Y027961D01*
X0337D01*
Y028539D01*
D02*
G37*
G36*
X02575Y038748D02*
X02565D01*
Y038311D01*
X026216D01*
X026094Y038605D01*
X02575Y038748D01*
D02*
G37*
G36*
X02555D02*
X02545D01*
X025106Y038605D01*
X024984Y038311D01*
X02555D01*
Y038748D01*
D02*
G37*
G36*
X047579Y038875D02*
X047182D01*
Y038477D01*
X047463Y038594D01*
X047579Y038875D01*
D02*
G37*
G36*
X047082D02*
X046684D01*
X046801Y038594D01*
X047082Y038477D01*
Y038875D01*
D02*
G37*
G36*
X045149Y041611D02*
X044845D01*
Y041307D01*
X04506Y041396D01*
X045149Y041611D01*
D02*
G37*
G36*
X044845Y042015D02*
Y041711D01*
X045149D01*
X04506Y041926D01*
X044845Y042015D01*
D02*
G37*
G36*
X02715Y042519D02*
X026932Y042429D01*
X026842Y042211D01*
X02715D01*
Y042519D01*
D02*
G37*
G36*
X026216Y038211D02*
X0256D01*
X024984D01*
X025087Y037961D01*
X025Y037761D01*
X02495D01*
Y036761D01*
X02625D01*
Y037761D01*
X0262D01*
X026113Y037961D01*
X026216Y038211D01*
D02*
G37*
G36*
X047691Y037363D02*
X046859Y037019D01*
X046514Y036187D01*
X046859Y035355D01*
X047691Y03501D01*
X048523Y035355D01*
X048868Y036187D01*
X048523Y037019D01*
X047691Y037363D01*
D02*
G37*
G36*
X044601Y042057D02*
Y042057D01*
X043809D01*
Y041265D01*
X044601D01*
Y041265D01*
X044695Y041328D01*
X044745Y041307D01*
Y041661D01*
Y042015D01*
X044695Y041994D01*
X044601Y042057D01*
D02*
G37*
G36*
X018768Y022711D02*
X0183D01*
Y022257D01*
X018639Y022397D01*
X018768Y022711D01*
D02*
G37*
G36*
X0182D02*
X017732D01*
X017861Y022397D01*
X0182Y022257D01*
Y022711D01*
D02*
G37*
G36*
X02385Y022254D02*
Y021811D01*
X024293D01*
X024164Y022124D01*
X02385Y022254D01*
D02*
G37*
G36*
X01945Y026943D02*
X019109Y026801D01*
X018968Y026461D01*
X019017Y026342D01*
Y025579D01*
X018968Y025461D01*
X019017Y025342D01*
Y024906D01*
X019005D01*
Y024015D01*
X019895D01*
Y024906D01*
X019883D01*
Y025342D01*
X019932Y025461D01*
X019883Y025579D01*
Y026342D01*
X019932Y026461D01*
X019791Y026801D01*
X01945Y026943D01*
D02*
G37*
G36*
X0484Y023873D02*
Y023361D01*
X048783D01*
Y023461D01*
X048656Y023767D01*
X0484Y023873D01*
D02*
G37*
G36*
X048783Y023261D02*
X0484D01*
Y022748D01*
X048656Y022855D01*
X048783Y023161D01*
Y023261D01*
D02*
G37*
G36*
X0185Y02126D02*
Y020956D01*
X018804D01*
X018715Y021171D01*
X0185Y02126D01*
D02*
G37*
G36*
X0184D02*
X018185Y021171D01*
X018096Y020956D01*
X0184D01*
Y02126D01*
D02*
G37*
G36*
X04255Y020902D02*
X042167Y020743D01*
X042009Y020361D01*
X041855Y020208D01*
X041338D01*
X041268Y020379D01*
X041Y02049D01*
X040732Y020379D01*
X040621Y020111D01*
Y019711D01*
X040732Y019443D01*
X041Y019332D01*
X041268Y019443D01*
X041338Y019613D01*
X0421D01*
X04231Y0197D01*
X042465Y019855D01*
X04255Y01982D01*
X042933Y019978D01*
X043091Y020361D01*
X042933Y020743D01*
X04255Y020902D01*
D02*
G37*
G36*
X02375Y022254D02*
X023436Y022124D01*
X023307Y021811D01*
X02375D01*
Y022254D01*
D02*
G37*
G36*
X024293Y021711D02*
X02385D01*
Y021267D01*
X024164Y021397D01*
X024293Y021711D01*
D02*
G37*
G36*
X02375D02*
X023307D01*
X023436Y021397D01*
X02375Y021267D01*
Y021711D01*
D02*
G37*
G36*
X0168Y026868D02*
X016547Y026763D01*
X016443Y026511D01*
X0168D01*
Y026868D01*
D02*
G37*
G36*
X017257Y026411D02*
X01685D01*
X016443D01*
X016547Y026158D01*
X016741Y026078D01*
X016763Y026069D01*
Y025852D01*
X016741Y025843D01*
X016547Y025763D01*
X016443Y025511D01*
X01685D01*
X017257D01*
X017153Y025763D01*
X016959Y025843D01*
X016937Y025852D01*
Y026069D01*
X016959Y026078D01*
X017153Y026158D01*
X017257Y026411D01*
D02*
G37*
G36*
X0424Y028561D02*
X0411D01*
Y027261D01*
X0424D01*
Y028561D01*
D02*
G37*
G36*
X0169Y026868D02*
Y026511D01*
X017257D01*
X017153Y026763D01*
X0169Y026868D01*
D02*
G37*
G36*
X017257Y025411D02*
X01685D01*
X016443D01*
X016547Y025158D01*
X016723Y025085D01*
X016794Y025056D01*
X016754Y024856D01*
X016455D01*
Y024511D01*
X01685D01*
X017245D01*
Y024856D01*
X016946D01*
X016906Y025056D01*
X016977Y025085D01*
X017153Y025158D01*
X017257Y025411D01*
D02*
G37*
G36*
X017245Y024411D02*
X0169D01*
Y024065D01*
X017245D01*
Y024411D01*
D02*
G37*
G36*
X0168D02*
X016455D01*
Y024065D01*
X0168D01*
Y024411D01*
D02*
G37*
G36*
X047691Y047202D02*
X046859Y046857D01*
X046514Y046025D01*
X046859Y045193D01*
X047691Y044849D01*
X048523Y045193D01*
X048868Y046025D01*
X048523Y046857D01*
X047691Y047202D01*
D02*
G37*
G36*
X04255Y025632D02*
X042209Y025491D01*
X042068Y02515D01*
X042209Y024809D01*
X04255Y024668D01*
X042891Y024809D01*
X042905Y024843D01*
X043105Y024803D01*
Y024705D01*
X043995D01*
Y025595D01*
X043105D01*
Y025497D01*
X042905Y025457D01*
X042891Y025491D01*
X04255Y025632D01*
D02*
G37*
G36*
X0392Y046211D02*
X038822D01*
Y046162D01*
X038947Y04586D01*
X0392Y045755D01*
Y046211D01*
D02*
G37*
G36*
X031537Y044752D02*
Y04409D01*
X03192D01*
Y04434D01*
X031794Y044646D01*
X031537Y044752D01*
D02*
G37*
G36*
X03192Y04399D02*
X031537D01*
Y043328D01*
X031794Y043434D01*
X03192Y04374D01*
Y04399D01*
D02*
G37*
G36*
X01445Y040527D02*
Y040111D01*
X014866D01*
X014744Y040405D01*
X01445Y040527D01*
D02*
G37*
G36*
X014866Y040011D02*
X01445D01*
Y039594D01*
X014744Y039716D01*
X014866Y040011D01*
D02*
G37*
%LPD*%
D12*
X0283Y037161D02*
Y040361D01*
X03175Y027661D02*
Y029548D01*
X0287Y0429D02*
X02875Y04285D01*
Y041911D02*
Y04285D01*
Y041911D02*
X02945Y041211D01*
X0235Y011861D02*
X02695D01*
X0219Y013461D02*
X0235Y011861D01*
X0219Y013461D02*
Y014011D01*
X0269Y012911D02*
X02695Y012861D01*
X0269Y012911D02*
Y014611D01*
X0205Y023511D02*
X02125Y022761D01*
X016034Y023511D02*
X0205D01*
X015909Y023636D02*
X016034Y023511D01*
X015125Y023636D02*
X015909D01*
X0143Y024461D02*
X015125Y023636D01*
X01565Y019261D02*
X017395D01*
X01465Y020261D02*
X01565Y019261D01*
X017395D02*
X01845Y020315D01*
X02845Y035211D02*
Y036011D01*
X0293Y036861D01*
Y037061D01*
X029275Y014036D02*
X037275D01*
X027525Y015786D02*
X029275Y014036D01*
X037275D02*
X03815Y014911D01*
X0303Y028411D02*
X03215Y026561D01*
X03175Y027661D02*
X0318Y027711D01*
X03175Y029548D02*
X037025Y034823D01*
Y035599D01*
X037Y035624D02*
X037025Y035599D01*
X037Y035624D02*
Y036411D01*
X0364Y037011D02*
X037Y036411D01*
X037425Y034436D02*
Y035765D01*
X0374Y034411D02*
X037425Y034436D01*
X0374Y03579D02*
Y039661D01*
Y03579D02*
X037425Y035765D01*
X03265Y037011D02*
X0364D01*
X02845Y041211D02*
X03265Y037011D01*
X04835Y012161D02*
Y023311D01*
X0473Y011111D02*
X04835Y012161D01*
X0448Y011111D02*
X0473D01*
X0448D02*
X045765Y012076D01*
Y013446D01*
X04535Y013861D02*
X045765Y013446D01*
X04425Y013861D02*
X04535D01*
X0417Y011311D02*
X04425Y013861D01*
X0392Y011311D02*
X0417D01*
X03915Y011261D02*
X0392Y011311D01*
X03655Y011261D02*
X03915D01*
X03405D02*
X03655D01*
X03135D02*
X03405D01*
X02885D02*
X03135D01*
X02825Y011861D02*
X02885Y011261D01*
X02695Y011861D02*
X02825D01*
X02695D02*
X0278Y012711D01*
Y014711D01*
X0269Y015611D02*
X0278Y014711D01*
X013613Y028511D02*
X01845Y033348D01*
X01545Y033911D02*
Y036737D01*
X015309Y036878D02*
X01545Y036737D01*
X015309Y036878D02*
Y039151D01*
X0144Y040061D02*
X015309Y039151D01*
X01845Y033348D02*
Y035211D01*
X0136Y028511D02*
X013613D01*
X0353Y019161D02*
Y019911D01*
X03395Y018561D02*
X0353Y019911D01*
X03165Y018561D02*
X03395D01*
X03035Y019861D02*
X03165Y018561D01*
X0343Y019911D02*
X0354Y021011D01*
X035887D01*
X035912Y020986D01*
X038388D01*
X039113Y021711D01*
X03915D01*
X0386Y026611D02*
X0395Y027511D01*
X0386Y024611D02*
Y026611D01*
X0395Y027511D02*
Y033261D01*
X03765Y025661D02*
Y031245D01*
X0367Y023161D02*
X03815Y021711D01*
X037466Y022961D02*
X0399D01*
X036866Y023561D02*
X037466Y022961D01*
X027819Y023161D02*
X0367D01*
X032637Y023561D02*
X036866D01*
X0399Y022961D02*
X04115Y021711D01*
X03865Y040911D02*
X0395D01*
X0374Y039661D02*
X03865Y040911D01*
X03795Y032111D02*
Y035361D01*
X0395Y036911D01*
X0388Y033611D02*
Y033661D01*
X03835Y033161D02*
X0388Y033611D01*
X03835Y031945D02*
Y033161D01*
X03765Y031245D02*
X03835Y031945D01*
X04015Y021061D02*
Y021711D01*
X039Y019911D02*
X04015Y021061D01*
X0282Y037161D02*
X0283D01*
X02745Y041211D02*
X0283Y040361D01*
X02745Y035211D02*
Y037111D01*
X0263Y038261D02*
X02745Y037111D01*
X0256Y038261D02*
X0263D01*
X02745Y037111D02*
Y039711D01*
X01695Y038161D02*
X023D01*
X02445Y039611D01*
Y041211D01*
X0134Y038411D02*
X01375Y038061D01*
X0134Y038411D02*
Y040061D01*
X01375Y034611D02*
X01445Y033911D01*
X01375Y034611D02*
Y036061D01*
X0174Y036811D02*
X0226D01*
X02545Y039661D01*
Y041211D01*
X02345Y039961D02*
Y041211D01*
Y039961D02*
X02365Y039761D01*
X045168Y032329D02*
X04625Y033411D01*
X045168Y030979D02*
Y032329D01*
X04443Y030242D02*
X045168Y030979D01*
X044109Y030242D02*
X04443D01*
X04405Y030182D02*
X044109Y030242D01*
X04405Y029511D02*
Y030182D01*
X04575Y033911D02*
X04625Y033411D01*
X044626Y033911D02*
X04575D01*
X04421Y033494D02*
X044626Y033911D01*
X04349Y033494D02*
X04421D01*
X042914Y03407D02*
X04349Y033494D01*
X0401Y03407D02*
X042914D01*
X0395Y034524D02*
Y035911D01*
Y034524D02*
X039884Y03414D01*
X040031D01*
X0401Y03407D01*
X03375Y027911D02*
X03795Y032111D01*
X0266Y040561D02*
X02745Y039711D01*
X0266Y040561D02*
Y041061D01*
X02645Y041211D02*
X0266Y041061D01*
X0449Y036111D02*
X0455Y036711D01*
X044405Y036111D02*
X0449D01*
X0432Y034906D02*
X044405Y036111D01*
X0418Y034906D02*
X0432D01*
X041375Y035331D02*
X0418Y034906D01*
X041375Y035331D02*
Y036036D01*
X0395Y037911D02*
X041375Y036036D01*
X04585Y039824D02*
X047132Y041106D01*
X04585Y038122D02*
Y039824D01*
X043064Y035336D02*
X04585Y038122D01*
X041936Y035336D02*
X043064D01*
X041775Y035497D02*
X041936Y035336D01*
X041775Y035497D02*
Y037387D01*
X040251Y038911D02*
X041775Y037387D01*
X0395Y038911D02*
X040251D01*
X043905D02*
X044205Y038611D01*
X0425Y038911D02*
X043905D01*
X044795Y038611D02*
Y039215D01*
X0441Y039911D02*
X044795Y039215D01*
X0425Y039911D02*
X0441D01*
X04495Y019911D02*
X045275Y020236D01*
Y022086D01*
X044775Y022586D02*
X045275Y022086D01*
X044775Y022586D02*
Y023875D01*
X04535Y02445D01*
Y026311D01*
X04835Y023311D02*
Y025011D01*
X048925Y025586D01*
Y02902D01*
X047809Y030136D02*
X048925Y02902D01*
X047525Y030136D02*
X047809D01*
X04625Y031411D02*
X047525Y030136D01*
X04625Y031411D02*
X0466D01*
X047132Y031943D01*
Y034379D01*
X046479Y035032D02*
X047132Y034379D01*
X046479Y035032D02*
Y036689D01*
X047132Y037342D01*
Y038925D01*
X04835Y026311D02*
Y028711D01*
X04755Y029511D02*
X04835Y028711D01*
X04735Y026311D02*
X0477Y026661D01*
Y027861D01*
X0377Y016861D02*
Y018511D01*
X0363Y019911D02*
X0377Y018511D01*
X0421Y019911D02*
X04255Y020361D01*
X041Y019911D02*
X0421D01*
X04115Y015711D02*
X04285D01*
X04395Y016811D01*
Y019911D01*
X04595D02*
X04655Y020511D01*
X0474D01*
X030837Y025361D02*
X032637Y023561D01*
X03815Y014911D02*
Y015711D01*
X026569Y024411D02*
X027819Y023161D01*
X026337Y024411D02*
X026569D01*
X025437Y025311D02*
X026337Y024411D01*
X02835Y015961D02*
X02955Y014761D01*
X02835Y015961D02*
Y020696D01*
X02565Y023396D02*
X02835Y020696D01*
X02565Y023396D02*
Y023848D01*
X024187Y025311D02*
X02565Y023848D01*
X027525Y015786D02*
Y019686D01*
X0261Y021111D02*
X027525Y019686D01*
X026031Y021111D02*
X0261D01*
X02565Y021491D02*
X026031Y021111D01*
X02565Y021491D02*
Y02283D01*
X024069Y024411D02*
X02565Y02283D01*
X02365Y024411D02*
X024069D01*
X02275Y025311D02*
X02365Y024411D01*
X0303Y028411D02*
Y029061D01*
X03645Y035211D01*
X0293Y028411D02*
Y029061D01*
X03545Y035211D01*
X0283Y028411D02*
Y029061D01*
X03445Y035211D01*
X0273Y028411D02*
Y029061D01*
X03345Y035211D01*
X0263Y028411D02*
Y029061D01*
X03245Y035211D01*
X0253Y028411D02*
Y029061D01*
X03145Y035211D01*
X0243Y028411D02*
Y029061D01*
X03045Y035211D01*
X0233Y028411D02*
Y029061D01*
X02945Y035211D01*
X0206Y028511D02*
X02545Y033361D01*
Y035211D01*
X0196Y028511D02*
X02445Y033361D01*
Y035211D01*
X0186Y028511D02*
X02345Y033361D01*
Y035211D01*
X0176Y028511D02*
X02245Y033361D01*
Y035211D01*
X0166Y028511D02*
X02145Y033361D01*
Y035211D01*
X0156Y028511D02*
X02045Y033361D01*
Y035211D01*
X0146Y028511D02*
X01945Y033361D01*
Y035211D01*
X04025Y045161D02*
X0408Y044611D01*
X04025Y045161D02*
Y046261D01*
X04125D02*
X04225D01*
X04025D02*
X04125D01*
X03925D02*
X04025D01*
X03215Y026311D02*
Y026561D01*
X0293Y027898D02*
X030837Y026361D01*
X0293Y027898D02*
Y028411D01*
X0283Y027648D02*
X029587Y026361D01*
X0283Y027648D02*
Y028411D01*
X0273Y027098D02*
X028137Y026261D01*
X0273Y027098D02*
Y028411D01*
X0263Y026761D02*
X02675Y026311D01*
X0263Y026761D02*
Y028411D01*
X0253Y026448D02*
X025437Y026311D01*
X0253Y026448D02*
Y028411D01*
X024187Y026311D02*
X0243Y026423D01*
Y028411D01*
X02275Y026311D02*
X0233Y026861D01*
Y028411D01*
X02075Y020311D02*
Y022261D01*
X02125Y022761D01*
X01845Y018811D02*
Y020315D01*
Y018811D02*
X022525Y014736D01*
Y014386D02*
Y014736D01*
Y014386D02*
X0229Y014011D01*
X02175Y020311D02*
X02265Y019411D01*
Y016661D02*
Y019411D01*
X01465Y020261D02*
Y020461D01*
X025341Y016611D02*
X026341Y015611D01*
X0269D01*
X02595Y014611D02*
X0269D01*
X02475Y015811D02*
X02595Y014611D01*
X02475Y015811D02*
Y016611D01*
X02955Y014761D02*
X03675D01*
X03695Y014561D01*
D13*
X0317Y039161D02*
X036132D01*
X0265Y04625D02*
X02655Y0463D01*
X0263Y047261D02*
X02798Y045581D01*
X0265Y04535D02*
Y04625D01*
X02586Y04485D02*
X028699D01*
X028487Y044019D02*
X03045Y042056D01*
X028699Y04485D02*
X029487Y044061D01*
X0243Y04641D02*
X02586Y04485D01*
X03145Y0413D02*
Y04195D01*
Y041211D02*
Y0413D01*
X03075Y04265D02*
X03145Y04195D01*
Y0413D02*
X03295Y0428D01*
Y04445D01*
X031819Y045581D02*
X03295Y04445D01*
X02798Y045581D02*
X031819D01*
X029487Y04404D02*
Y044061D01*
X017Y0471D02*
Y047311D01*
X01482Y04492D02*
X017Y0471D01*
X013955Y04492D02*
X01482D01*
X016Y04705D02*
Y047311D01*
X01414Y04519D02*
X016Y04705D01*
X013843Y04519D02*
X01414D01*
X015707Y043391D02*
X016139Y04296D01*
X015707Y043391D02*
Y044689D01*
X015977Y044577D02*
X01625Y04485D01*
X015977Y043503D02*
Y044577D01*
Y043503D02*
X01625Y04323D01*
X013256Y04422D02*
X013955Y04492D01*
X016139Y04512D02*
X016902D01*
X015707Y044689D02*
X016139Y04512D01*
X01625Y04485D02*
X016724D01*
X015Y046693D02*
X015071Y046621D01*
X01391Y04546D02*
X015071Y046621D01*
X013732Y04546D02*
X01391D01*
X01362Y04573D02*
Y046068D01*
X01425Y046698D01*
Y047061D01*
X014Y047311D02*
X01425Y047061D01*
X030859Y039501D02*
X031241D01*
X031341Y039601D01*
X032191D01*
X03094Y040071D02*
X03105Y039961D01*
X02945Y041211D02*
X03059Y040071D01*
Y03977D02*
Y040071D01*
X0317Y039111D02*
Y039161D01*
X03059Y03977D02*
X030859Y039501D01*
X0136Y018673D02*
Y019061D01*
X01339Y018463D02*
X0136Y018673D01*
X01339Y017958D02*
Y018463D01*
X01295Y019711D02*
X0136Y019061D01*
X013Y018761D02*
Y018861D01*
X01268Y019181D02*
X013Y018861D01*
X01268Y019181D02*
Y028687D01*
X01339Y017958D02*
X01354Y017808D01*
X01352Y015241D02*
X0136Y015321D01*
Y01686D01*
X01354Y01692D02*
X0136Y01686D01*
X01354Y01692D02*
Y017808D01*
X01295Y019711D02*
Y028575D01*
X014691Y030316D01*
X01295Y040403D02*
Y042009D01*
X01284Y040293D02*
X01295Y040403D01*
X01284Y039829D02*
Y040293D01*
Y039829D02*
X01295Y039719D01*
Y028957D02*
Y039719D01*
X012176Y042783D02*
X01295Y042009D01*
X01268Y028687D02*
X01295Y028957D01*
Y014179D02*
X01352Y014749D01*
X01295Y013361D02*
Y014179D01*
X01352Y014749D02*
Y015241D01*
X012176Y042783D02*
Y046374D01*
X013618Y047816D01*
X016209D01*
X016505Y04752D01*
Y047311D02*
Y04752D01*
Y047311D02*
X017D01*
X0169Y040661D02*
X01745Y041211D01*
X01625Y040661D02*
X0169D01*
X015391Y041831D02*
X015644D01*
Y037016D02*
Y041831D01*
X01528Y041721D02*
X015391Y041831D01*
X01362Y041721D02*
X01528D01*
X015644Y037016D02*
X01745Y035211D01*
X015279Y042101D02*
X016559D01*
X015168Y041991D02*
X015279Y042101D01*
X013732Y041991D02*
X015168D01*
X015167Y042371D02*
X017289D01*
X015057Y042261D02*
X015167Y042371D01*
X013843Y042261D02*
X015057D01*
X013955Y042531D02*
X014945D01*
X015055Y042641D01*
X018019D01*
X016139Y04296D02*
X0187D01*
X01625Y04323D02*
X01943D01*
X01295Y013361D02*
X015635Y010676D01*
X04275Y011061D02*
X0448Y013111D01*
X042277Y011061D02*
X04275D01*
X041892Y010676D02*
X042277Y011061D01*
X015635Y010676D02*
X041892D01*
X014691Y030316D02*
X014945D01*
X01601Y031382D01*
Y033771D01*
X01745Y035211D01*
X012716Y044444D02*
X013732Y04546D01*
X012986Y044332D02*
X013843Y04519D01*
X012716Y043007D02*
Y044444D01*
X012986Y043119D02*
Y044332D01*
Y043119D02*
X013843Y042261D01*
X013256Y043231D02*
Y04422D01*
Y043231D02*
X013955Y042531D01*
X012716Y043007D02*
X013732Y041991D01*
X012446Y042895D02*
X01362Y041721D01*
X0392Y013311D02*
X0417D01*
X015Y046693D02*
Y047311D01*
X012446Y042895D02*
Y044555D01*
X03405Y013261D02*
X03655D01*
X02145Y040261D02*
Y041211D01*
X02115Y039961D02*
X02145Y040261D01*
X0199Y039961D02*
X02115D01*
X03145Y040611D02*
X032Y040061D01*
X032191Y039601D02*
X032451Y039861D01*
X03645D01*
X03825Y041661D01*
X0374Y043861D02*
X03785Y044311D01*
X036905Y042736D02*
Y047104D01*
X036635Y042848D02*
Y043374D01*
X036457Y043552D02*
X036635Y043374D01*
X036457Y043552D02*
Y046304D01*
X047132Y038925D02*
X047496Y038561D01*
X04865D01*
X0488Y038711D01*
Y043161D01*
X048Y043961D02*
X0488Y043161D01*
X04645Y043961D02*
X048D01*
X044795Y042306D02*
X04645Y043961D01*
X044795Y041661D02*
Y042306D01*
X041795Y043611D02*
X044025Y045841D01*
X041683Y043881D02*
X043755Y045953D01*
X04114Y044151D02*
X04325Y046261D01*
X040609Y044151D02*
X04114D01*
X040498Y043881D02*
X041683D01*
X040386Y043611D02*
X041795D01*
X040226Y043771D02*
X040386Y043611D01*
X0389Y043771D02*
X040226D01*
X040338Y044041D02*
X040498Y043881D01*
X03863Y044041D02*
X040338D01*
X040449Y044311D02*
X040609Y044151D01*
X03785Y044311D02*
X040449D01*
X03045Y041211D02*
X03094Y040721D01*
Y040071D02*
Y040721D01*
X036132Y039161D02*
X03852Y041549D01*
Y043391D01*
X0389Y043771D01*
X043755Y045953D02*
Y047741D01*
X044025Y045841D02*
Y047853D01*
X043598Y048281D02*
X044025Y047853D01*
X040457Y048281D02*
X043598D01*
X039745Y047568D02*
X040457Y048281D01*
X039745Y047261D02*
Y047568D01*
X03925Y047261D02*
X039745D01*
X04025D02*
Y047561D01*
X0407Y048011D01*
X043486D01*
X043755Y047741D01*
X03825Y043661D02*
X03863Y044041D01*
X03825Y041661D02*
Y043661D01*
X03145Y040611D02*
Y041211D01*
X023655Y047766D02*
X029509D01*
X023175Y048036D02*
X030525D01*
X020487Y044598D02*
X023655Y047766D01*
X029509D02*
X029735Y047541D01*
X019977Y044838D02*
X023175Y048036D01*
X030525D02*
X0313Y047261D01*
X02645Y041211D02*
Y041411D01*
X0272Y042161D01*
X03045Y041211D02*
Y042056D01*
X028487Y044019D02*
Y04404D01*
X0273Y047061D02*
Y047261D01*
Y047061D02*
X02815Y046211D01*
X029586D01*
X029946Y045851D01*
X03207D01*
X03355Y044371D01*
Y042311D02*
Y044371D01*
X03245Y041211D02*
X03355Y042311D01*
X03418Y041941D02*
Y042599D01*
X03476Y043179D01*
X03445Y042487D02*
X03503Y043067D01*
X03445Y041211D02*
Y042487D01*
X03476Y043179D02*
Y043643D01*
X03503Y043067D02*
Y043754D01*
X0283Y047261D02*
X02895Y046611D01*
X029568D01*
X030058Y046121D01*
X032282D01*
X03476Y043643D01*
X03345Y041211D02*
X03418Y041941D01*
X030788Y046391D02*
X032394D01*
X03503Y043754D01*
X0293Y047261D02*
X02995Y046611D01*
X030568D01*
X030788Y046391D01*
X0303Y047261D02*
X0309Y046661D01*
X033658D01*
X033968Y046351D01*
X03641D01*
X036457Y046304D01*
X03545Y041663D02*
X036635Y042848D01*
X036263Y047746D02*
X036905Y047104D01*
X03645Y042281D02*
X036905Y042736D01*
X03545Y041211D02*
Y041663D01*
X03645Y041211D02*
Y042281D01*
X0313Y047261D02*
X031785Y047746D01*
X036263D01*
X0243Y04641D02*
Y047261D01*
X03002Y047541D02*
X0303Y047261D01*
X029735Y047541D02*
X03002D01*
X020487Y04404D02*
Y044598D01*
X019977Y04453D02*
Y044838D01*
X019487Y04404D02*
X019977Y04453D01*
X0187Y04296D02*
X02045Y041211D01*
X018019Y042641D02*
X01945Y041211D01*
X01943Y04323D02*
X02145Y041211D01*
X017289Y042371D02*
X01845Y041211D01*
X016559Y042101D02*
X01745Y041211D01*
X012446Y044555D02*
X01362Y04573D01*
X017057Y044817D02*
X019Y046761D01*
X016757Y044817D02*
X017057D01*
X016902Y04512D02*
X018Y046218D01*
X016724Y04485D02*
X016757Y044817D01*
X019Y046761D02*
Y047311D01*
X018Y046218D02*
Y047311D01*
D15*
X04355Y02515D02*
D03*
X0243Y047261D02*
D03*
X0303Y028411D02*
D03*
X0206Y028511D02*
D03*
X014Y047311D02*
D03*
D16*
X04255Y02515D02*
D03*
X01945Y025461D02*
D03*
Y026461D02*
D03*
X0253Y047261D02*
D03*
X0263D02*
D03*
X0273D02*
D03*
X0283D02*
D03*
X0293D02*
D03*
X0303D02*
D03*
X0313D02*
D03*
X0293Y028411D02*
D03*
X0283D02*
D03*
X0273D02*
D03*
X0263D02*
D03*
X0253D02*
D03*
X0243D02*
D03*
X0233D02*
D03*
X0196Y028511D02*
D03*
X0186D02*
D03*
X0176D02*
D03*
X0166D02*
D03*
X0156D02*
D03*
X0146D02*
D03*
X0136D02*
D03*
X015Y047311D02*
D03*
X016D02*
D03*
X017D02*
D03*
X018D02*
D03*
X019D02*
D03*
X02D02*
D03*
X021D02*
D03*
X01685Y025461D02*
D03*
Y026461D02*
D03*
X0143Y025461D02*
D03*
Y024461D02*
D03*
D17*
X0256Y037261D02*
D03*
D18*
Y038261D02*
D03*
D19*
X0134Y040061D02*
D03*
X0144D02*
D03*
X01445Y033911D02*
D03*
X01545D02*
D03*
X0342Y046911D02*
D03*
Y043411D02*
D03*
X0269Y014611D02*
D03*
Y015611D02*
D03*
X02695Y012861D02*
D03*
Y011861D02*
D03*
X0442Y027861D02*
D03*
X0477D02*
D03*
X04405Y029511D02*
D03*
X04755D02*
D03*
X01915Y016661D02*
D03*
X02265D02*
D03*
X0474Y020511D02*
D03*
Y017011D02*
D03*
X04255Y020361D02*
D03*
Y016861D02*
D03*
X0377D02*
D03*
Y020361D02*
D03*
X0329Y016961D02*
D03*
Y020461D02*
D03*
D20*
X02275Y025311D02*
D03*
Y026311D02*
D03*
X024187Y025311D02*
D03*
Y026311D02*
D03*
X025437Y025311D02*
D03*
Y026311D02*
D03*
X02675Y025311D02*
D03*
Y026311D02*
D03*
X028137Y025261D02*
D03*
Y026261D02*
D03*
X029587Y025361D02*
D03*
Y026361D02*
D03*
X030837Y025361D02*
D03*
Y026361D02*
D03*
X03215Y025311D02*
D03*
Y026311D02*
D03*
X04625Y033411D02*
D03*
X04825Y032411D02*
D03*
X04625Y031411D02*
D03*
X0238Y023761D02*
D03*
X0263Y021761D02*
D03*
Y023761D02*
D03*
X0238Y021761D02*
D03*
X02885Y013261D02*
D03*
X03135Y011261D02*
D03*
Y013261D02*
D03*
X02885Y011261D02*
D03*
X01375Y036061D02*
D03*
Y038061D02*
D03*
X0392Y013311D02*
D03*
X0417Y011311D02*
D03*
Y013311D02*
D03*
X0392Y011311D02*
D03*
X03405Y013261D02*
D03*
X03655Y011261D02*
D03*
Y013261D02*
D03*
X03405Y011261D02*
D03*
X0448Y013111D02*
D03*
X0473Y011111D02*
D03*
Y013111D02*
D03*
X0448Y011111D02*
D03*
D21*
X043909Y031501D02*
D03*
X01445Y043725D02*
D03*
X01445Y031511D02*
D03*
X043909Y043706D02*
D03*
D22*
X031487Y04404D02*
D03*
X030487D02*
D03*
X029487D02*
D03*
X028487D02*
D03*
X027487D02*
D03*
X026487D02*
D03*
X025487D02*
D03*
X024487D02*
D03*
X023487D02*
D03*
X022487D02*
D03*
X021487D02*
D03*
X020487D02*
D03*
X019487D02*
D03*
X018487D02*
D03*
X017487D02*
D03*
D23*
X016487D02*
D03*
D24*
X01945Y024461D02*
D03*
X01685D02*
D03*
X0143Y026461D02*
D03*
D25*
X025341Y016611D02*
D03*
X01845Y020906D02*
D03*
X044795Y038611D02*
D03*
X04385Y034606D02*
D03*
X044795Y041661D02*
D03*
X0401Y034661D02*
D03*
D26*
X02475Y016611D02*
D03*
X044205Y038611D02*
D03*
Y041661D02*
D03*
D27*
X04535Y023311D02*
D03*
X03645Y041211D02*
D03*
D28*
X04635Y023311D02*
D03*
X04735D02*
D03*
X04835D02*
D03*
X04535Y026311D02*
D03*
X04635D02*
D03*
X04735D02*
D03*
X04835D02*
D03*
X03545Y041211D02*
D03*
X03445D02*
D03*
X03345D02*
D03*
X03245D02*
D03*
X03145D02*
D03*
X03045D02*
D03*
X02945D02*
D03*
X02845D02*
D03*
X02745D02*
D03*
X02645D02*
D03*
X02545D02*
D03*
X02445D02*
D03*
X02345D02*
D03*
X02245D02*
D03*
X02145D02*
D03*
X02045D02*
D03*
X01945D02*
D03*
X01845D02*
D03*
X01745D02*
D03*
X03645Y035211D02*
D03*
X03545D02*
D03*
X03445D02*
D03*
X03345D02*
D03*
X03245D02*
D03*
X03145D02*
D03*
X03045D02*
D03*
X02945D02*
D03*
X02845D02*
D03*
X02745D02*
D03*
X02645D02*
D03*
X02545D02*
D03*
X02445D02*
D03*
X02345D02*
D03*
X02245D02*
D03*
X02145D02*
D03*
X02045D02*
D03*
X01945D02*
D03*
X01845D02*
D03*
X01745D02*
D03*
X03615Y015711D02*
D03*
X03715D02*
D03*
X03815D02*
D03*
X03915D02*
D03*
X04015D02*
D03*
X04115D02*
D03*
X03615Y021711D02*
D03*
X03715D02*
D03*
X03815D02*
D03*
X03915D02*
D03*
X04015D02*
D03*
X04115D02*
D03*
D29*
X01365Y022961D02*
D03*
X01465D02*
D03*
X01565D02*
D03*
Y020461D02*
D03*
X01465D02*
D03*
D30*
X01365D02*
D03*
D31*
X0209Y014011D02*
D03*
X0219D02*
D03*
X0229D02*
D03*
D32*
X0219Y012011D02*
D03*
X03375Y027911D02*
D03*
D33*
X014Y018211D02*
D03*
D34*
X0175D02*
D03*
D35*
X01515Y015961D02*
D03*
Y013461D02*
D03*
D36*
X01715Y014961D02*
D03*
D37*
X04175Y027911D02*
D03*
D38*
X02175Y020311D02*
D03*
D39*
X02075D02*
D03*
D40*
X01825Y022761D02*
D03*
X02125D02*
D03*
D41*
X01845Y020315D02*
D03*
X04385Y034015D02*
D03*
X0401Y03407D02*
D03*
D42*
X036Y047111D02*
D03*
Y043111D02*
D03*
D43*
X03925Y047261D02*
D03*
X04025D02*
D03*
X04125D02*
D03*
X04225D02*
D03*
X04325Y046261D02*
D03*
X04225D02*
D03*
X04125D02*
D03*
X04025D02*
D03*
X03925D02*
D03*
D44*
X04325Y047261D02*
D03*
D45*
X04395Y019911D02*
D03*
X04495D02*
D03*
X04595D02*
D03*
X039D02*
D03*
X04D02*
D03*
X041D02*
D03*
X0343D02*
D03*
X0353D02*
D03*
X0363D02*
D03*
X02935Y019861D02*
D03*
X03035D02*
D03*
X03135D02*
D03*
D46*
X047691Y036187D02*
D03*
Y046025D02*
D03*
D47*
X047132Y043287D02*
D03*
D48*
X04825Y042742D02*
D03*
X047132Y042197D02*
D03*
X04825Y041651D02*
D03*
X047132Y041106D02*
D03*
X04825Y040561D02*
D03*
X047132Y040015D02*
D03*
X04825Y03947D02*
D03*
X047132Y038925D02*
D03*
D49*
X0425Y035911D02*
D03*
D50*
Y036911D02*
D03*
Y037911D02*
D03*
Y038911D02*
D03*
Y039911D02*
D03*
Y040911D02*
D03*
Y041911D02*
D03*
Y042911D02*
D03*
X0395Y035911D02*
D03*
Y036911D02*
D03*
Y037911D02*
D03*
Y038911D02*
D03*
Y039911D02*
D03*
Y040911D02*
D03*
Y041911D02*
D03*
Y042911D02*
D03*
D51*
X02655Y0463D02*
D03*
X0265Y04535D02*
D03*
X0287Y0429D02*
D03*
X03075Y04265D02*
D03*
X0293Y037061D02*
D03*
X0318Y027711D02*
D03*
X03105Y039961D02*
D03*
X0317Y039111D02*
D03*
X013Y018761D02*
D03*
X01625Y040661D02*
D03*
X0386Y024611D02*
D03*
X0395Y033261D02*
D03*
X0374Y034411D02*
D03*
X0388Y033661D02*
D03*
X03765Y025661D02*
D03*
X0199Y039961D02*
D03*
X0282Y037161D02*
D03*
X01695Y038161D02*
D03*
X0174Y036811D02*
D03*
X02365Y039761D02*
D03*
X032Y040061D02*
D03*
X0374Y043861D02*
D03*
X0455Y036711D02*
D03*
X0408Y044611D02*
D03*
X0272Y042161D02*
D03*
X03695Y014561D02*
D03*
D52*
X0219Y012011D02*
Y013461D01*
X01945Y025461D02*
Y026461D01*
Y024461D02*
Y025461D01*
X01685D02*
Y026461D01*
Y024461D02*
Y025461D01*
X0143D02*
Y026461D01*
Y024461D02*
Y025461D01*
X014Y017111D02*
X01515Y015961D01*
X014Y017111D02*
Y018211D01*
X01515Y013461D02*
X01565D01*
X01715Y014961D01*
X019441Y016661D02*
X02165Y014451D01*
X01915Y016661D02*
X019441D01*
X02165Y014261D02*
Y014451D01*
X01555Y018211D02*
X0175D01*
X01365Y020111D02*
X01555Y018211D01*
X01365Y020111D02*
Y020461D01*
X02165Y014261D02*
X0219Y014011D01*
X01745Y014961D02*
X01915Y016661D01*
X01715Y014961D02*
X01745D01*
M02*
